<?xml version="1.0" encoding="UTF-8" standalone="no"?>
<!-- Generator: Adobe Illustrator 18.1.1, SVG Export Plug-In . SVG Version: 6.00 Build 0)  -->

<svg
   xmlns:dc="http://purl.org/dc/elements/1.1/"
   xmlns:cc="http://creativecommons.org/ns#"
   xmlns:rdf="http://www.w3.org/1999/02/22-rdf-syntax-ns#"
   xmlns:svg="http://www.w3.org/2000/svg"
   xmlns="http://www.w3.org/2000/svg"
   xmlns:sodipodi="http://sodipodi.sourceforge.net/DTD/sodipodi-0.dtd"
   xmlns:inkscape="http://www.inkscape.org/namespaces/inkscape"
   version="1.1"
   id="Capa_1"
   x="0px"
   y="0px"
   viewBox="0 0 360 360"
   xml:space="preserve"
   inkscape:version="0.91 r13725"
   sodipodi:docname="AddStation.svg"
   width="360"
   height="360"><metadata
     id="metadata41"><rdf:RDF><cc:Work
         rdf:about=""><dc:format>image/svg+xml</dc:format><dc:type
           rdf:resource="http://purl.org/dc/dcmitype/StillImage" /><dc:title /></cc:Work></rdf:RDF></metadata><defs
     id="defs39" /><sodipodi:namedview
     pagecolor="#ffffff"
     bordercolor="#666666"
     borderopacity="1"
     objecttolerance="10"
     gridtolerance="10"
     guidetolerance="10"
     inkscape:pageopacity="0"
     inkscape:pageshadow="2"
     inkscape:window-width="1920"
     inkscape:window-height="1017"
     id="namedview37"
     showgrid="true"
     inkscape:showpageshadow="true"
     borderlayer="false"
     inkscape:zoom="1.2801874"
     inkscape:cx="245.25584"
     inkscape:cy="83.481695"
     inkscape:window-x="-8"
     inkscape:window-y="-8"
     inkscape:window-maximized="1"
     inkscape:current-layer="Capa_1"><inkscape:grid
       type="xygrid"
       id="grid4169"
       visible="false" /></sodipodi:namedview><g
     id="g4283"><g
       id="g4251"><g
         id="g4220"><path
           sodipodi:nodetypes="ccccc"
           inkscape:connector-curvature="0"
           id="path4216"
           d="m 105,100 210,0 -4.44765,122.48556 c -32.27807,56.29394 -181.45486,41.6609 -206.93322,-1.10469 z"
           style="fill:#9fe0ff;fill-rule:evenodd;stroke:none;stroke-width:1px;stroke-linecap:butt;stroke-linejoin:miter;stroke-opacity:1;fill-opacity:1" /><path
           inkscape:connector-curvature="0"
           id="path4218"
           d="m 150,65 115,0 0,30 -115,0 z"
           style="fill:#000000;fill-rule:evenodd;stroke:#000000;stroke-width:1px;stroke-linecap:butt;stroke-linejoin:miter;stroke-opacity:1;fill-opacity:1" /><path
           sodipodi:nodetypes="sscccccccccccccccccccssccccccccscc"
           inkscape:connector-curvature="0"
           id="path5-8"
           d="m 134.22536,60 c -24.9039,0 -45.100826,18.903283 -45.100826,42.22656 l 0,112.61393 -14.691673,-6.18399 -0.813007,-32.73011 7.590048,-0.32547 c 3.08712,-95.696648 -18.608281,-95.371174 -18.608281,0.32547 l 7.263219,0 0.813007,36.25713 18.446687,6.184 0.325202,41.53109 c 44.712644,127.44292 237.768714,56.93361 238.346684,-1.14566 l 0,-38.20444 20.64052,-4.8821 0.9756,-38.90309 10.33809,0 c 3.08622,-95.721388 -23.49283,-95.707043 -23.49283,0.007 l 9.39324,0 -0.97561,35.38747 -16.87901,4.8821 0,-114.81283 C 327.80337,78.903283 307.60645,60 282.69559,60 Z m 22.56098,8.787435 105.23309,0 0,22.88737 -105.23309,0 z m -48.87698,35.190425 201.09409,0 0,116.14096 c 0,0 -11.27617,33.43912 -101.47807,33.43912 -90.21577,0 -99.61602,-33.43912 -99.61602,-33.43912 z"
           style="opacity:1;fill:#4f4ae2;fill-opacity:1" /><rect
           transform="matrix(0.90608454,0.42309668,-0.4225192,0.90635398,0,0)"
           y="41.886093"
           x="165.39613"
           height="37.173481"
           width="2.1955714"
           id="rect4156-9"
           style="opacity:1;fill:#e1fdff;fill-opacity:1;fill-rule:nonzero;stroke:#e1fdff;stroke-width:0.39001104;stroke-linecap:butt;stroke-linejoin:miter;stroke-miterlimit:4;stroke-dasharray:none;stroke-opacity:1" /><rect
           transform="matrix(0.90608454,0.42309668,-0.4225192,0.90635398,0,0)"
           y="39.96814"
           x="170.59267"
           height="37.173481"
           width="2.1955714"
           id="rect4156-2-07"
           style="opacity:1;fill:#e1fdff;fill-opacity:1;fill-rule:nonzero;stroke:#e1fdff;stroke-width:0.39001104;stroke-linecap:butt;stroke-linejoin:miter;stroke-miterlimit:4;stroke-dasharray:none;stroke-opacity:1" /><path
           sodipodi:nodetypes="ccccc"
           inkscape:connector-curvature="0"
           id="path6261-2"
           d="m 116.69073,360 31.02908,0 c 5.43664,0 4.21618,-10.22723 4.21618,-16.97744 -35.21631,-0.50229 -35.30494,-3.31641 -39.54943,-5.08913 C 112.97822,345.43397 111.32417,360 116.69073,360 Z"
           style="fill:#000000;fill-opacity:1;fill-rule:evenodd;stroke:none;stroke-width:1px;stroke-linecap:butt;stroke-linejoin:miter;stroke-opacity:1" /><path
           sodipodi:nodetypes="ccccccc"
           inkscape:connector-curvature="0"
           id="path6712-0"
           d="m 92.395604,264.91317 c 10.166416,18.64011 30.526226,3.77138 63.042616,29.67146 30.90166,-5.04185 64.72019,-7.19763 105.31074,0.0544 32.67402,-24.48838 54.98183,-13.7616 60.94408,-27.74758 l -4.6056,46.84955 -216.61571,-3.91245 z"
           style="fill:#c2c2c2;fill-opacity:1;fill-rule:evenodd;stroke:none;stroke-width:1px;stroke-linecap:butt;stroke-linejoin:miter;stroke-opacity:1" /><path
           sodipodi:nodetypes="ccccsscccc"
           inkscape:connector-curvature="0"
           id="path6355-4"
           d="m 139.17076,343.87853 c -16.55588,0.18954 -35.20198,-5.03214 -43.875991,-20.38471 -9.87784,-14.31662 -5.237575,-32.38087 -6.300107,-48.56793 -0.03583,-16.37734 -0.06357,-32.75499 0.05093,-49.1321 -3.76018,55.79942 18.983915,73.86302 68.942235,78.9592 35.67115,3.63878 81.92262,3.76451 117.87948,-1.87811 44.14737,-6.92792 50.50029,-39.6229 52.02378,-77.69645 -0.27855,27.66993 0.9799,55.40682 -0.59805,83.03213 -3.6883,21.39127 -25.31528,37.37254 -46.80553,35.17798 -47.09843,0.90483 -94.21333,0.62146 -141.31675,0.48999 z"
           style="opacity:1;fill:#43b027;fill-opacity:1;fill-rule:nonzero;stroke:none;stroke-width:2;stroke-linecap:butt;stroke-linejoin:miter;stroke-miterlimit:4;stroke-dasharray:none;stroke-opacity:1" /><path
           sodipodi:nodetypes="ccccc"
           inkscape:connector-curvature="0"
           id="path6261-9-8"
           d="m 299.24234,360 -31.02939,0 c -5.43669,0 -4.35994,-9.96832 -4.35994,-16.71853 35.21666,-0.5023 34.67292,-3.1438 39.03243,-4.22609 0,7.41653 1.72351,20.94462 -3.6431,20.94462 z"
           style="fill:#000000;fill-opacity:1;fill-rule:evenodd;stroke:none;stroke-width:1px;stroke-linecap:butt;stroke-linejoin:miter;stroke-opacity:1" /><path
           inkscape:connector-curvature="0"
           id="path6522-8"
           d="m 308.88673,284.59707 c 4.72949,0.10345 8.4191,1.99055 5.90491,8.48633 -4.53172,8.05004 -11.46649,14.86078 -21.07133,15.86751 -11.13296,1.46811 -33.87554,3.69856 -28.62528,-7.70345 10.00233,-8.01055 22.01953,-12.21537 34.02931,-15.19369 2.31697,-0.64421 5.70356,-1.37705 8.80453,-1.45507 0.32301,-0.008 0.64256,-0.009 0.95786,-0.002 z"
           style="opacity:1;fill:#999999;fill-opacity:1;fill-rule:nonzero;stroke:none;stroke-width:2;stroke-linecap:butt;stroke-linejoin:miter;stroke-miterlimit:4;stroke-dasharray:none;stroke-opacity:1" /><path
           style="opacity:1;fill:#999999;fill-opacity:1;fill-rule:nonzero;stroke:none;stroke-width:2;stroke-linecap:butt;stroke-linejoin:miter;stroke-miterlimit:4;stroke-dasharray:none;stroke-opacity:1"
           d="m 105.83578,284.59707 c -4.72949,0.10345 -8.419101,1.99055 -5.904917,8.48633 4.531727,8.05004 11.466497,14.86078 21.071337,15.86751 11.13295,1.46811 33.87553,3.69856 28.62527,-7.70345 -10.00233,-8.01055 -22.01953,-12.21537 -34.0293,-15.19369 -2.31697,-0.64421 -5.70356,-1.37705 -8.80452,-1.45507 -0.32302,-0.008 -0.64257,-0.009 -0.95787,-0.002 z"
           id="path6603-0"
           inkscape:connector-curvature="0" /><path
           style="opacity:1;fill:#b3b3b3;fill-opacity:1;fill-rule:nonzero;stroke:none;stroke-width:2;stroke-linecap:butt;stroke-linejoin:miter;stroke-miterlimit:4;stroke-dasharray:none;stroke-opacity:1"
           d="m 308.88673,283.21621 c 4.72949,0.10345 8.4191,1.99056 5.90491,8.48633 -4.53172,8.05004 -11.46649,14.86078 -21.07133,15.86751 -11.13296,1.46812 -33.87554,3.69856 -28.62528,-7.70345 10.00233,-8.01055 22.01953,-12.21537 34.02931,-15.19368 2.31697,-0.64422 5.70356,-1.37706 8.80453,-1.45508 0.32301,-0.008 0.64256,-0.009 0.95786,-0.002 z"
           id="path6714-6"
           inkscape:connector-curvature="0" /><path
           style="opacity:1;fill:#ececec;fill-opacity:1;fill-rule:nonzero;stroke:none;stroke-width:2;stroke-linecap:butt;stroke-linejoin:miter;stroke-miterlimit:4;stroke-dasharray:none;stroke-opacity:1"
           d="m 309.00388,282.52577 c 4.64702,0.10345 8.2723,1.99055 5.80196,8.48633 -4.45271,8.05004 -11.26655,14.86078 -20.7039,15.86751 -10.93882,1.46811 -33.28482,3.69856 -28.12611,-7.70345 9.82791,-8.01055 21.63556,-12.21537 33.43591,-15.19369 2.27657,-0.64421 5.6041,-1.37705 8.651,-1.45507 0.31736,-0.008 0.63135,-0.009 0.94114,-0.002 z"
           id="path6708-7"
           inkscape:connector-curvature="0" /><path
           inkscape:connector-curvature="0"
           id="path6716-0"
           d="m 105.83578,283.21621 c -4.72949,0.10345 -8.419101,1.99056 -5.904917,8.48633 4.531727,8.05004 11.466497,14.86078 21.071337,15.86751 11.13295,1.46812 33.87553,3.69856 28.62527,-7.70345 -10.00233,-8.01055 -22.01953,-12.21537 -34.0293,-15.19368 -2.31697,-0.64422 -5.70356,-1.37706 -8.80452,-1.45508 -0.32302,-0.008 -0.64257,-0.009 -0.95787,-0.002 z"
           style="opacity:1;fill:#b3b3b3;fill-opacity:1;fill-rule:nonzero;stroke:none;stroke-width:2;stroke-linecap:butt;stroke-linejoin:miter;stroke-miterlimit:4;stroke-dasharray:none;stroke-opacity:1" /><path
           inkscape:connector-curvature="0"
           id="path6710-5"
           d="m 105.71862,282.52577 c -4.64701,0.10345 -8.272289,1.99055 -5.801947,8.48633 4.452707,8.05004 11.266547,14.86078 20.703897,15.86751 10.93882,1.46811 33.28481,3.69856 28.12611,-7.70345 -9.82791,-8.01055 -21.63556,-12.21537 -33.4359,-15.19369 -2.27657,-0.64421 -5.60411,-1.37705 -8.651,-1.45507 -0.31738,-0.008 -0.63136,-0.009 -0.94116,-0.002 z"
           style="opacity:1;fill:#ececec;fill-opacity:1;fill-rule:nonzero;stroke:none;stroke-width:2;stroke-linecap:butt;stroke-linejoin:miter;stroke-miterlimit:4;stroke-dasharray:none;stroke-opacity:1" /><text
           transform="scale(0.99958429,1.0004159)"
           sodipodi:linespacing="125%"
           id="text6718-4"
           y="88.776474"
           x="172.86334"
           style="font-style:normal;font-weight:normal;font-size:25.77668381px;line-height:125%;font-family:sans-serif;letter-spacing:0px;word-spacing:0px;fill:#00ff00;fill-opacity:1;stroke:none;stroke-width:1px;stroke-linecap:butt;stroke-linejoin:miter;stroke-opacity:1"
           xml:space="preserve"><tspan
             y="88.776474"
             x="172.86334"
             id="tspan6720-6"
             sodipodi:role="line">GLOO</tspan></text>
<rect
           transform="matrix(0.90608454,0.42309668,-0.4225192,0.90635398,0,0)"
           y="49.829597"
           x="348.80515"
           height="37.173481"
           width="2.1955714"
           id="rect4156-3-0"
           style="opacity:1;fill:#e1fdff;fill-opacity:1;fill-rule:nonzero;stroke:#e1fdff;stroke-width:0.39001104;stroke-linecap:butt;stroke-linejoin:miter;stroke-miterlimit:4;stroke-dasharray:none;stroke-opacity:1" /><rect
           transform="matrix(0.90608454,0.42309668,-0.4225192,0.90635398,0,0)"
           y="47.91164"
           x="354.00168"
           height="37.173481"
           width="2.1955714"
           id="rect4156-2-0-8"
           style="opacity:1;fill:#e1fdff;fill-opacity:1;fill-rule:nonzero;stroke:#e1fdff;stroke-width:0.39001104;stroke-linecap:butt;stroke-linejoin:miter;stroke-miterlimit:4;stroke-dasharray:none;stroke-opacity:1" /><path
           inkscape:connector-curvature="0"
           id="path6742-7"
           d="m 60.114976,177.84083 c 7.818402,0 15.636804,0 23.455205,0 0,-25.16244 0,-50.32488 0,-75.48732 -7.856727,0 -15.713454,0 -23.570181,0 0.03833,25.16244 0.07665,50.32488 0.114976,75.48732 z"
           style="fill:#7e7d95;fill-opacity:1;fill-rule:evenodd;stroke:none;stroke-width:1px;stroke-linecap:butt;stroke-linejoin:miter;stroke-opacity:1" /><path
           style="fill:#7e7d95;fill-opacity:1;fill-rule:evenodd;stroke:none;stroke-width:1px;stroke-linecap:butt;stroke-linejoin:miter;stroke-opacity:1"
           d="m 336.3514,177.84083 23.4552,0 0,-75.48732 -23.57018,0 z"
           id="path6759-9"
           inkscape:connector-curvature="0" /><path
           inkscape:connector-curvature="0"
           id="path6791-7"
           d="m 89.122907,141.43408 0,32.38734 18.787913,46.30375 0,-55.7751 z"
           style="fill:#738ce3;fill-opacity:1;fill-rule:evenodd;stroke:none;stroke-width:1px;stroke-linecap:butt;stroke-linejoin:miter;stroke-opacity:1" /><path
           style="fill:#738ce3;fill-opacity:1;fill-rule:evenodd;stroke:none;stroke-width:1px;stroke-linecap:butt;stroke-linejoin:miter;stroke-opacity:1"
           d="m 327.79304,141.43139 0,32.38733 -18.7879,46.30375 0,-55.7751 z"
           id="path6793-7"
           inkscape:connector-curvature="0" /><path
           style="fill:#c5cce4;fill-opacity:1;fill-rule:evenodd;stroke:none;stroke-width:1px;stroke-linecap:butt;stroke-linejoin:miter;stroke-opacity:1"
           d="m 89.122907,141.90998 0,29.77844 18.787913,44.93085 0,-51.28225 z"
           id="path6795-2"
           inkscape:connector-curvature="0" /><path
           inkscape:connector-curvature="0"
           id="path6797-8"
           d="m 327.79304,142.19865 0,29.77843 -18.7879,44.3416 0,-51.28225 z"
           style="fill:#c5cce4;fill-opacity:1;fill-rule:evenodd;stroke:none;stroke-width:1px;stroke-linecap:butt;stroke-linejoin:miter;stroke-opacity:1" /><ellipse
           ry="6.6666665"
           rx="46.003395"
           cy="298.33334"
           cx="208.00188"
           id="path6803-4"
           style="opacity:1;fill:#a1a1a1;fill-opacity:1;fill-rule:nonzero;stroke:none;stroke-width:2;stroke-linecap:butt;stroke-linejoin:miter;stroke-miterlimit:4;stroke-dasharray:none;stroke-opacity:1" /><text
           transform="scale(0.99958429,1.0004159)"
           sodipodi:linespacing="125%"
           id="text6799-9"
           y="302.37424"
           x="182.47403"
           style="font-style:normal;font-weight:normal;font-size:11.45356941px;line-height:125%;font-family:sans-serif;letter-spacing:0px;word-spacing:0px;fill:#000000;fill-opacity:1;stroke:none;stroke-width:1px;stroke-linecap:butt;stroke-linejoin:miter;stroke-opacity:1"
           xml:space="preserve"><tspan
             y="302.37424"
             x="182.47403"
             id="tspan6801-5"
             sodipodi:role="line">EXPRESS</tspan></text>
<path
           inkscape:connector-curvature="0"
           style="fill:#008000;fill-opacity:1"
           d="m 113.33343,53.333427 -46.666857,0 0,-46.666853 C 66.666573,2.986555 63.666594,5.4997997e-7 60,5.4997997e-7 56.319981,5.4997997e-7 53.333426,2.986555 53.333426,6.666574 l 0,46.666853 -46.6668526,0 C 2.9865544,53.333427 0,56.319981 0,60 c 0,3.666595 2.9865544,6.666574 6.6665734,6.666574 l 46.6668526,0 0,46.666856 C 53.333426,117.00002 56.319981,120 60,120 c 3.666594,0 6.666573,-2.99998 6.666573,-6.66657 l 0,-46.666856 46.666857,0 C 117.00002,66.666574 120,63.666595 120,60 c 0,-3.680019 -2.99998,-6.666573 -6.66657,-6.666573 z"
           id="path9-4" /></g></g></g></svg>