<?xml version="1.0" encoding="UTF-8" standalone="no"?>
<!-- Generator: Adobe Illustrator 19.0.0, SVG Export Plug-In . SVG Version: 6.00 Build 0)  -->

<svg
   xmlns:dc="http://purl.org/dc/elements/1.1/"
   xmlns:cc="http://creativecommons.org/ns#"
   xmlns:rdf="http://www.w3.org/1999/02/22-rdf-syntax-ns#"
   xmlns:svg="http://www.w3.org/2000/svg"
   xmlns="http://www.w3.org/2000/svg"
   xmlns:sodipodi="http://sodipodi.sourceforge.net/DTD/sodipodi-0.dtd"
   xmlns:inkscape="http://www.inkscape.org/namespaces/inkscape"
   version="1.1"
   id="Capa_1"
   x="0px"
   y="0px"
   viewBox="0 0 360 360"
   xml:space="preserve"
   inkscape:version="0.91 r13725"
   sodipodi:docname="Add.svg"
   width="360"
   height="360"><metadata
     id="metadata45"><rdf:RDF><cc:Work
         rdf:about=""><dc:format>image/svg+xml</dc:format><dc:type
           rdf:resource="http://purl.org/dc/dcmitype/StillImage" /></cc:Work></rdf:RDF></metadata><defs
     id="defs43" /><sodipodi:namedview
     pagecolor="#ffffff"
     bordercolor="#666666"
     borderopacity="1"
     objecttolerance="10"
     gridtolerance="10"
     guidetolerance="10"
     inkscape:pageopacity="0"
     inkscape:pageshadow="2"
     inkscape:window-width="1440"
     inkscape:window-height="897"
     id="namedview41"
     showgrid="false"
     inkscape:zoom="0.82505369"
     inkscape:cx="-53.329863"
     inkscape:cy="143.021"
     inkscape:window-x="1912"
     inkscape:window-y="199"
     inkscape:window-maximized="1"
     inkscape:current-layer="Capa_1" /><g
     id="g3"
     style="fill:#008000"
     transform="matrix(1.2585564,0,0,1.2585564,0,1.0831327e-5)"><g
       id="g5"
       style="fill:#008000"><g
         id="g7"
         style="fill:#008000"><path
           style="fill:#008000"
           d="m 270.151,127.13 -111.239,0 0,-111.239 C 158.912,7.119 151.761,0 143.021,0 134.249,0 127.13,7.119 127.13,15.891 l 0,111.239 -111.239,0 C 7.119,127.13 0,134.249 0,143.021 c 0,8.74 7.119,15.891 15.891,15.891 l 111.239,0 0,111.239 c 0,8.74 7.119,15.891 15.891,15.891 8.74,0 15.891,-7.151 15.891,-15.891 l 0,-111.239 111.239,0 c 8.74,0 15.891,-7.151 15.891,-15.891 0,-8.772 -7.151,-15.891 -15.891,-15.891 z"
           id="path9"
           inkscape:connector-curvature="0" /></g></g></g><g
     id="g11" /><g
     id="g13" /><g
     id="g15" /><g
     id="g17" /><g
     id="g19" /><g
     id="g21" /><g
     id="g23" /><g
     id="g25" /><g
     id="g27" /><g
     id="g29" /><g
     id="g31" /><g
     id="g33" /><g
     id="g35" /><g
     id="g37" /><g
     id="g39" /></svg>