<?xml version="1.0" encoding="UTF-8" standalone="no"?>
<!-- Generator: Adobe Illustrator 16.0.0, SVG Export Plug-In . SVG Version: 6.00 Build 0)  -->

<svg
   xmlns:dc="http://purl.org/dc/elements/1.1/"
   xmlns:cc="http://creativecommons.org/ns#"
   xmlns:rdf="http://www.w3.org/1999/02/22-rdf-syntax-ns#"
   xmlns:svg="http://www.w3.org/2000/svg"
   xmlns="http://www.w3.org/2000/svg"
   xmlns:sodipodi="http://sodipodi.sourceforge.net/DTD/sodipodi-0.dtd"
   xmlns:inkscape="http://www.inkscape.org/namespaces/inkscape"
   version="1.1"
   id="Capa_1"
   x="0px"
   y="0px"
   width="360"
   height="360"
   viewBox="0 0 360 360"
   xml:space="preserve"
   inkscape:version="0.91 r13725"
   sodipodi:docname="Cancel.svg"><metadata
     id="metadata41"><rdf:RDF><cc:Work
         rdf:about=""><dc:format>image/svg+xml</dc:format><dc:type
           rdf:resource="http://purl.org/dc/dcmitype/StillImage" /><dc:title /></cc:Work></rdf:RDF></metadata><defs
     id="defs39" /><sodipodi:namedview
     pagecolor="#ffffff"
     bordercolor="#666666"
     borderopacity="1"
     objecttolerance="10"
     gridtolerance="10"
     guidetolerance="10"
     inkscape:pageopacity="0"
     inkscape:pageshadow="2"
     inkscape:window-width="1440"
     inkscape:window-height="897"
     id="namedview37"
     showgrid="false"
     inkscape:zoom="0.66251567"
     inkscape:cx="-265.35161"
     inkscape:cy="178.10899"
     inkscape:window-x="1912"
     inkscape:window-y="199"
     inkscape:window-maximized="1"
     inkscape:current-layer="Capa_1" /><g
     id="g3"
     style="fill:#bf1616;fill-opacity:1"
     transform="matrix(1.0106167,0,0,1.0106238,-5.0528272e-4,-0.00138958)"><path
       d="m 350.676,261.501 c 7.388,7.389 7.388,19.365 0.001,26.754 l -62.421,62.421 c -7.39,7.389 -19.366,7.387 -26.755,0 l -83.392,-83.394 -83.395,83.394 c -7.386,7.388 -19.364,7.387 -26.752,0 L 5.541,288.254 c -7.388,-7.388 -7.387,-19.364 10e-4,-26.75 L 88.937,178.109 5.543,94.715 C -1.844,87.328 -1.844,75.35 5.542,67.964 L 67.965,5.542 c 7.387,-7.388 19.365,-7.387 26.75,0 L 178.11,88.937 261.503,5.542 c 7.388,-7.387 19.364,-7.388 26.753,0 l 62.422,62.421 c 7.387,7.388 7.388,19.366 0,26.753 l -83.395,83.393 83.393,83.392 z"
       id="path5"
       style="fill:#bf1616;fill-opacity:1"
       inkscape:connector-curvature="0" /></g><g
     id="g7" /><g
     id="g9" /><g
     id="g11" /><g
     id="g13" /><g
     id="g15" /><g
     id="g17" /><g
     id="g19" /><g
     id="g21" /><g
     id="g23" /><g
     id="g25" /><g
     id="g27" /><g
     id="g29" /><g
     id="g31" /><g
     id="g33" /><g
     id="g35" /></svg>