<?xml version="1.0" encoding="UTF-8" standalone="no"?>
<!-- Generator: Adobe Illustrator 16.0.0, SVG Export Plug-In . SVG Version: 6.00 Build 0)  -->

<svg
   xmlns:dc="http://purl.org/dc/elements/1.1/"
   xmlns:cc="http://creativecommons.org/ns#"
   xmlns:rdf="http://www.w3.org/1999/02/22-rdf-syntax-ns#"
   xmlns:svg="http://www.w3.org/2000/svg"
   xmlns="http://www.w3.org/2000/svg"
   xmlns:sodipodi="http://sodipodi.sourceforge.net/DTD/sodipodi-0.dtd"
   xmlns:inkscape="http://www.inkscape.org/namespaces/inkscape"
   version="1.1"
   id="Capa_1"
   x="0px"
   y="0px"
   width="360"
   height="360"
   viewBox="0 0 360 360"
   xml:space="preserve"
   inkscape:version="0.91 r13725"
   sodipodi:docname="Clock.svg"><metadata
     id="metadata45"><rdf:RDF><cc:Work
         rdf:about=""><dc:format>image/svg+xml</dc:format><dc:type
           rdf:resource="http://purl.org/dc/dcmitype/StillImage" /></cc:Work></rdf:RDF></metadata><defs
     id="defs43" /><sodipodi:namedview
     pagecolor="#ffffff"
     bordercolor="#666666"
     borderopacity="1"
     objecttolerance="10"
     gridtolerance="10"
     guidetolerance="10"
     inkscape:pageopacity="0"
     inkscape:pageshadow="2"
     inkscape:window-width="1920"
     inkscape:window-height="1017"
     id="namedview41"
     showgrid="false"
     inkscape:zoom="0.53201561"
     inkscape:cx="221.798"
     inkscape:cy="221.798"
     inkscape:window-x="-8"
     inkscape:window-y="-8"
     inkscape:window-maximized="1"
     inkscape:current-layer="Capa_1" /><g
     id="g3"
     transform="matrix(0.81154925,0,0,0.81154925,0,-1.103e-6)"><g
       id="g5"><path
         d="M 221.799,0 C 99.5,0 0,99.498 0,221.798 c 0,122.3 99.5,221.798 221.799,221.798 122.301,0 221.797,-99.498 221.797,-221.798 C 443.596,99.498 344.1,0 221.799,0 Z m 0,381.123 c -87.854,0 -159.323,-71.473 -159.323,-159.325 0,-87.852 71.469,-159.325 159.323,-159.325 87.852,0 159.328,71.473 159.328,159.325 0,87.852 -71.477,159.325 -159.328,159.325 z"
         id="path7"
         inkscape:connector-curvature="0" /><path
         d="m 332.505,205.832 -94.738,0 0,-94.739 c 0,-4.672 -3.788,-8.459 -8.46,-8.459 l -25.378,0 c -4.672,0 -8.462,3.787 -8.462,8.459 l 0,128.576 c 0,4.672 3.79,8.459 8.462,8.459 l 128.576,0 c 4.672,0 8.458,-3.787 8.458,-8.459 l 0,-25.378 c 0,-4.672 -3.786,-8.459 -8.458,-8.459 z"
         id="path9"
         inkscape:connector-curvature="0" /></g></g><g
     id="g11" /><g
     id="g13" /><g
     id="g15" /><g
     id="g17" /><g
     id="g19" /><g
     id="g21" /><g
     id="g23" /><g
     id="g25" /><g
     id="g27" /><g
     id="g29" /><g
     id="g31" /><g
     id="g33" /><g
     id="g35" /><g
     id="g37" /><g
     id="g39" /></svg>