<?xml version="1.0" encoding="UTF-8" standalone="no"?>
<!-- Generator: Adobe Illustrator 18.1.1, SVG Export Plug-In . SVG Version: 6.00 Build 0)  -->

<svg
   xmlns:dc="http://purl.org/dc/elements/1.1/"
   xmlns:cc="http://creativecommons.org/ns#"
   xmlns:rdf="http://www.w3.org/1999/02/22-rdf-syntax-ns#"
   xmlns:svg="http://www.w3.org/2000/svg"
   xmlns="http://www.w3.org/2000/svg"
   xmlns:sodipodi="http://sodipodi.sourceforge.net/DTD/sodipodi-0.dtd"
   xmlns:inkscape="http://www.inkscape.org/namespaces/inkscape"
   version="1.1"
   id="Capa_1"
   x="0px"
   y="0px"
   viewBox="0 0 360 360"
   xml:space="preserve"
   inkscape:version="0.91 r13725"
   sodipodi:docname="ContactUs.svg"
   width="360"
   height="360"><metadata
     id="metadata41"><rdf:RDF><cc:Work
         rdf:about=""><dc:format>image/svg+xml</dc:format><dc:type
           rdf:resource="http://purl.org/dc/dcmitype/StillImage" /><dc:title /></cc:Work></rdf:RDF></metadata><defs
     id="defs39" /><sodipodi:namedview
     pagecolor="#ffffff"
     bordercolor="#666666"
     borderopacity="1"
     objecttolerance="10"
     gridtolerance="10"
     guidetolerance="10"
     inkscape:pageopacity="0"
     inkscape:pageshadow="2"
     inkscape:window-width="1440"
     inkscape:window-height="897"
     id="namedview37"
     showgrid="false"
     inkscape:zoom="0.95233866"
     inkscape:cx="138.67602"
     inkscape:cy="240.84039"
     inkscape:window-x="1912"
     inkscape:window-y="199"
     inkscape:window-maximized="1"
     inkscape:current-layer="Capa_1" /><g
     id="g3"
     transform="matrix(0.72636001,0,0,0.83726737,0,-17.484349)"><path
       style="fill:#030104"
       d="m 495.622,113.089 0,150.03 c 0,0 -32.11,6.326 -38.725,7.158 -6.594,0.83 -27.316,7.521 -42.334,-6.914 -23.16,-22.197 -105.447,-104.03 -105.447,-104.03 0,0 -14.188,-13.922 -36.969,-1.89 -20.912,11.022 -51.911,27.175 -64.859,33.465 -24.477,13.028 -44.764,-7.642 -44.764,-23.387 0,-12.213 7.621,-20.502 18.515,-26.598 29.524,-17.898 91.752,-52.827 117.67,-66.598 15.754,-8.379 27.105,-9.097 48.734,9.124 26.638,22.403 50.344,42.824 50.344,42.824 0,0 7.732,6.453 20.063,3.854 30.28,-6.402 77.772,-17.038 77.772,-17.038 z M 168.098,367.3 c 3.985,-10.238 2.653,-21.689 -4.987,-29.545 -6.865,-7.027 -16.888,-8.879 -26.445,-6.689 2.673,-9.479 1.197,-19.568 -5.705,-26.688 -6.886,-7.009 -16.89,-8.898 -26.446,-6.688 2.653,-9.465 1.181,-19.553 -5.725,-26.652 -10.814,-11.092 -29.519,-10.616 -41.807,1.097 -12.223,11.729 -20.053,32.979 -9.144,45.487 10.891,12.445 23.405,4.873 32.945,2.699 -2.654,9.465 -10.606,18.269 -0.813,30.658 9.784,12.395 23.404,4.875 32.954,2.721 -2.663,9.429 -10.268,19.117 -0.851,30.604 9.502,11.522 25.065,5.383 35.344,2.19 -3.967,10.199 -12.458,21.193 -1.549,33.513 10.892,12.409 36.063,6.668 48.358,-5.063 12.262,-11.729 13.439,-30.318 2.654,-41.445 -7.446,-7.634 -18.546,-9.41 -28.783,-6.199 z m 224.344,-78.054 c -88.88,-88.881 -47.075,-47.058 -94.906,-94.992 0,0 -14.375,-14.311 -33.321,-5.998 -13.3,5.828 -30.423,13.771 -43.307,19.835 -14.158,7.424 -24.347,9.722 -29.131,9.69 -27.37,-0.179 -49.576,-22.178 -49.576,-49.521 0,-17.738 9.417,-33.181 23.462,-41.947 19.75,-13.667 65.21,-37.847 65.21,-37.847 0,0 -13.849,-17.549 -44.187,-17.549 -30.329,0 -93.695,41.512 -93.695,41.512 0,0 -17.976,11.514 -43.601,1.143 L 0,96.373 0,268.05 c 0,0 14.103,4.082 26.775,9.258 2.862,-8.162 7.48,-15.699 13.886,-21.924 21.023,-20.024 55.869,-20.232 74.996,-0.537 5.762,5.987 9.783,13.129 11.835,21.024 7.707,2.379 14.688,6.593 20.298,12.373 5.779,5.947 9.785,13.129 11.854,20.984 7.698,2.381 14.669,6.611 20.298,12.395 6.339,6.537 10.562,14.433 12.534,22.988 8.047,2.344 15.319,6.705 21.176,12.693 11.495,11.807 15.575,27.826 13.103,43.278 0.02,0 0.058,0 0.076,0.035 0.188,0.246 7.122,7.976 11.446,12.336 8.474,8.482 22.311,8.482 30.811,0 8.444,-8.479 8.481,-22.289 0,-30.811 -0.304,-0.303 -30.572,-31.963 -28.136,-34.418 2.418,-2.438 40.981,37.688 41.699,38.422 8.463,8.465 22.291,8.465 30.792,0 8.481,-8.479 8.463,-22.289 0,-30.791 -0.416,-0.396 -2.152,-2.059 -2.796,-2.721 0,0 -38.234,-34.06 -35.324,-36.97 2.946,-2.928 50.438,41.392 50.515,41.392 8.537,7.688 21.687,7.631 29.9,-0.586 7.991,-7.99 8.162,-20.629 1.078,-29.146 -0.15,-0.453 -36.194,-38.121 -33.381,-40.955 2.854,-2.871 38.519,33.853 38.594,33.929 8.444,8.463 22.291,8.463 30.792,0 8.463,-8.464 8.463,-22.291 0,-30.83 -0.115,-0.072 -0.266,-0.148 -0.379,-0.222 z"
       id="shape"
       inkscape:connector-curvature="0" /></g><g
     id="g7" /><g
     id="g9" /><g
     id="g11" /><g
     id="g13" /><g
     id="g15" /><g
     id="g17" /><g
     id="g19" /><g
     id="g21" /><g
     id="g23" /><g
     id="g25" /><g
     id="g27" /><g
     id="g29" /><g
     id="g31" /><g
     id="g33" /><g
     id="g35" /></svg>