<?xml version="1.0" encoding="UTF-8" standalone="no"?>
<!-- Generator: Adobe Illustrator 16.0.0, SVG Export Plug-In . SVG Version: 6.00 Build 0)  -->

<svg
   xmlns:dc="http://purl.org/dc/elements/1.1/"
   xmlns:cc="http://creativecommons.org/ns#"
   xmlns:rdf="http://www.w3.org/1999/02/22-rdf-syntax-ns#"
   xmlns:svg="http://www.w3.org/2000/svg"
   xmlns="http://www.w3.org/2000/svg"
   xmlns:sodipodi="http://sodipodi.sourceforge.net/DTD/sodipodi-0.dtd"
   xmlns:inkscape="http://www.inkscape.org/namespaces/inkscape"
   version="1.1"
   id="Capa_1"
   x="0px"
   y="0px"
   width="360"
   height="360"
   viewBox="0 0 360 360"
   xml:space="preserve"
   inkscape:version="0.91 r13725"
   sodipodi:docname="Delete.svg"><metadata
     id="metadata45"><rdf:RDF><cc:Work
         rdf:about=""><dc:format>image/svg+xml</dc:format><dc:type
           rdf:resource="http://purl.org/dc/dcmitype/StillImage" /></cc:Work></rdf:RDF></metadata><defs
     id="defs43" /><sodipodi:namedview
     pagecolor="#ffffff"
     bordercolor="#666666"
     borderopacity="1"
     objecttolerance="10"
     gridtolerance="10"
     guidetolerance="10"
     inkscape:pageopacity="0"
     inkscape:pageshadow="2"
     inkscape:window-width="1920"
     inkscape:window-height="1017"
     id="namedview41"
     showgrid="false"
     inkscape:zoom="0.57774742"
     inkscape:cx="90.004729"
     inkscape:cy="204.2415"
     inkscape:window-x="-8"
     inkscape:window-y="-8"
     inkscape:window-maximized="1"
     inkscape:current-layer="Capa_1" /><g
     id="g3"
     transform="matrix(0.91968823,0,0,0.88130963,-7.838503,-1.59129e-6)"><g
       id="g5"><path
         d="m 87.748,388.784 c 0.461,11.01 9.521,19.699 20.539,19.699 l 191.911,0 c 11.018,0 20.078,-8.689 20.539,-19.699 l 13.705,-289.316 -260.399,0 13.705,289.316 z M 247.655,171.329 c 0,-4.61 3.738,-8.349 8.35,-8.349 l 13.355,0 c 4.609,0 8.35,3.738 8.35,8.349 l 0,165.293 c 0,4.611 -3.738,8.349 -8.35,8.349 l -13.355,0 c -4.61,0 -8.35,-3.736 -8.35,-8.349 l 0,-165.293 z m -58.439,0 c 0,-4.61 3.738,-8.349 8.349,-8.349 l 13.355,0 c 4.609,0 8.349,3.738 8.349,8.349 l 0,165.293 c 0,4.611 -3.737,8.349 -8.349,8.349 l -13.355,0 c -4.61,0 -8.349,-3.736 -8.349,-8.349 l 0,-165.293 0,0 z m -58.441,0 c 0,-4.61 3.738,-8.349 8.349,-8.349 l 13.356,0 c 4.61,0 8.349,3.738 8.349,8.349 l 0,165.293 c 0,4.611 -3.738,8.349 -8.349,8.349 l -13.356,0 c -4.61,0 -8.349,-3.736 -8.349,-8.349 l 0,-165.293 z"
         id="path7"
         inkscape:connector-curvature="0" /><path
         d="m 343.567,21.043 -88.535,0 0,-16.738 C 255.032,1.928 253.105,0 250.727,0 l -92.971,0 c -2.377,0 -4.304,1.928 -4.304,4.305 l 0,16.737 -88.536,0 c -7.125,0 -12.9,5.776 -12.9,12.901 l 0,40.527 304.451,0 0,-40.526 c 0,-7.125 -5.775,-12.901 -12.9,-12.901 z"
         id="path9"
         inkscape:connector-curvature="0" /></g></g><g
     id="g11" /><g
     id="g13" /><g
     id="g15" /><g
     id="g17" /><g
     id="g19" /><g
     id="g21" /><g
     id="g23" /><g
     id="g25" /><g
     id="g27" /><g
     id="g29" /><g
     id="g31" /><g
     id="g33" /><g
     id="g35" /><g
     id="g37" /><g
     id="g39" /></svg>