<?xml version="1.0" encoding="UTF-8" standalone="no"?>
<!-- Generator: Adobe Illustrator 16.0.0, SVG Export Plug-In . SVG Version: 6.00 Build 0)  -->

<svg
   xmlns:dc="http://purl.org/dc/elements/1.1/"
   xmlns:cc="http://creativecommons.org/ns#"
   xmlns:rdf="http://www.w3.org/1999/02/22-rdf-syntax-ns#"
   xmlns:svg="http://www.w3.org/2000/svg"
   xmlns="http://www.w3.org/2000/svg"
   xmlns:sodipodi="http://sodipodi.sourceforge.net/DTD/sodipodi-0.dtd"
   xmlns:inkscape="http://www.inkscape.org/namespaces/inkscape"
   version="1.1"
   id="Capa_1"
   x="0px"
   y="0px"
   width="360"
   height="360"
   viewBox="0 0 31.416 31.416"
   xml:space="preserve"
   inkscape:version="0.91 r13725"
   sodipodi:docname="Earth.svg"><metadata
     id="metadata47"><rdf:RDF><cc:Work
         rdf:about=""><dc:format>image/svg+xml</dc:format><dc:type
           rdf:resource="http://purl.org/dc/dcmitype/StillImage" /><dc:title></dc:title></cc:Work></rdf:RDF></metadata><defs
     id="defs45" /><sodipodi:namedview
     pagecolor="#ffffff"
     bordercolor="#666666"
     borderopacity="1"
     objecttolerance="10"
     gridtolerance="10"
     guidetolerance="10"
     inkscape:pageopacity="0"
     inkscape:pageshadow="2"
     inkscape:window-width="1920"
     inkscape:window-height="1017"
     id="namedview43"
     showgrid="false"
     inkscape:zoom="1.3279634"
     inkscape:cx="78.895813"
     inkscape:cy="177.57245"
     inkscape:window-x="-8"
     inkscape:window-y="-8"
     inkscape:window-maximized="1"
     inkscape:current-layer="Capa_1" /><g
     id="g4155"
     style="fill:#f2f2f2"><path
       inkscape:connector-curvature="0"
       style="fill:#f2f2f2;fill-opacity:1"
       id="path7"
       d="m 28.755575,6.9680002 -0.470075,0.149 -2.503398,0.223 -0.707112,1.129 -0.513082,-0.163 -1.992317,-1.796 -0.289046,-0.934 -0.387061,-0.9959999 -1.2522,-1.123 -1.477235,-0.289 -0.034,0.676 1.44723,1.412 0.708113,0.8339999 -0.796127,0.416 -0.648103,-0.191 -0.971154,-0.405 0.033,-0.7829999 -1.274203,-0.524 -0.423067,1.8409999 -1.284204,0.291 0.12702,1.027 1.673266,0.322 0.289046,-1.641 1.38122,0.204 0.642102,0.376 1.030164,0 0.705112,1.412 1.869297,1.8959998 -0.137022,0.737 -1.507239,-0.192 -2.604415,1.315 -1.875298,2.249 -0.244039,0.996 -0.673107,0 -1.254199,-0.578 -1.218194,0.578 0.303048,1.285 0.530084,-0.611 0.932149,-0.029 -0.06501,1.154 0.772123,0.226 0.771123,0.866 1.2592,-0.354 1.438229,0.227 1.670266,0.449 0.834132,0.098 1.414225,1.605 2.729434,1.605 -1.76528,3.372 -1.863297,0.866 -0.707112,1.927 -2.696429,1.8 -0.287046,1.037999 C 26.288183,29.3 31.415998,23.109 31.415998,15.707 31.413998,12.474 30.433842,9.4650001 28.755575,6.9680002 Z" /><path
       inkscape:connector-curvature="0"
       style="fill:#f2f2f2;fill-opacity:1"
       id="path9"
       d="m 17.513787,23.917 -1.144182,-2.121 1.050167,-2.188 -1.050167,-0.314 -1.179188,-1.184 -2.612415,-0.586 -0.867138,-1.814 0,1.077 -0.382061,0 -2.2513581,-3.052 0,-2.507 -1.6502625,-2.6829998 -2.6204169,0.4669999 -1.7652808,0 -0.8881413,-0.5819999 1.1331803,-0.898 -1.1301798,0.261 C 0.79412723,10.119 9.064e-7,12.818 9.064e-7,15.709 9.064e-7,24.382 7.0321195,31.415999 15.7075,31.415999 c 0.668106,0 1.32321,-0.059 1.971313,-0.137 L 17.514787,29.376 c 0,0 0.721115,-2.826 0.721115,-2.922 -10e-4,-0.097 -0.722115,-2.537 -0.722115,-2.537 z" /><path
       inkscape:connector-curvature="0"
       style="fill:#f2f2f2;fill-opacity:1"
       id="path11"
       d="m 5.8369294,5.0650003 2.7904439,-0.389 1.2862046,-0.705 1.4472301,0.417 2.312368,-0.128 0.792126,-1.245 1.155184,0.19 2.805446,-0.263 0.773123,-0.852 1.090173,-0.7279999 1.542246,0.232 0.562089,-0.085 C 20.36224,0.55300039 18.10188,4.1107818e-7 15.706499,4.1107818e-7 10.830724,4.1107818e-7 6.4710303,2.2220003 3.5925724,5.7110002 l 0.008,0 2.2363557,-0.6459999 z M 16.370605,1.5620004 17.97486,0.67900039 l 1.030164,0.59500001 -1.491237,1.1349999 -1.424227,0.143 -0.641102,-0.416 0.922147,-0.5739999 z m -4.751756,0.129 0.708113,0.295 0.927147,-0.295 0.505081,0.8749999 -2.140341,0.562 -1.029164,-0.602 c -10e-4,0 1.006161,-0.6479999 1.029164,-0.8349999 z" /></g><g
     id="g13"
     transform="matrix(0.08721918,0,0,0.08427513,-3.4887489e-4,28.76841)" /><g
     id="g15"
     transform="matrix(0.08721918,0,0,0.08427513,-3.4887489e-4,28.76841)" /><g
     id="g17"
     transform="matrix(0.08721918,0,0,0.08427513,-3.4887489e-4,28.76841)" /><g
     id="g19"
     transform="matrix(0.08721918,0,0,0.08427513,-3.4887489e-4,28.76841)" /><g
     id="g21"
     transform="matrix(0.08721918,0,0,0.08427513,-3.4887489e-4,28.76841)" /><g
     id="g23"
     transform="matrix(0.08721918,0,0,0.08427513,-3.4887489e-4,28.76841)" /><g
     id="g25"
     transform="matrix(0.08721918,0,0,0.08427513,-3.4887489e-4,28.76841)" /><g
     id="g27"
     transform="matrix(0.08721918,0,0,0.08427513,-3.4887489e-4,28.76841)" /><g
     id="g29"
     transform="matrix(0.08721918,0,0,0.08427513,-3.4887489e-4,28.76841)" /><g
     id="g31"
     transform="matrix(0.08721918,0,0,0.08427513,-3.4887489e-4,28.76841)" /><g
     id="g33"
     transform="matrix(0.08721918,0,0,0.08427513,-3.4887489e-4,28.76841)" /><g
     id="g35"
     transform="matrix(0.08721918,0,0,0.08427513,-3.4887489e-4,28.76841)" /><g
     id="g37"
     transform="matrix(0.08721918,0,0,0.08427513,-3.4887489e-4,28.76841)" /><g
     id="g39"
     transform="matrix(0.08721918,0,0,0.08427513,-3.4887489e-4,28.76841)" /><g
     id="g41"
     transform="matrix(0.08721918,0,0,0.08427513,-3.4887489e-4,28.76841)" /></svg>