<?xml version="1.0" encoding="UTF-8" standalone="no"?>
<!-- Generator: Adobe Illustrator 16.0.0, SVG Export Plug-In . SVG Version: 6.00 Build 0)  -->

<svg
   xmlns:dc="http://purl.org/dc/elements/1.1/"
   xmlns:cc="http://creativecommons.org/ns#"
   xmlns:rdf="http://www.w3.org/1999/02/22-rdf-syntax-ns#"
   xmlns:svg="http://www.w3.org/2000/svg"
   xmlns="http://www.w3.org/2000/svg"
   xmlns:sodipodi="http://sodipodi.sourceforge.net/DTD/sodipodi-0.dtd"
   xmlns:inkscape="http://www.inkscape.org/namespaces/inkscape"
   version="1.1"
   id="Capa_1"
   x="0px"
   y="0px"
   width="360"
   height="360"
   viewBox="0 0 360 360"
   xml:space="preserve"
   inkscape:version="0.91 r13725"
   sodipodi:docname="Facebook.svg"><metadata
     id="metadata40"><rdf:RDF><cc:Work
         rdf:about=""><dc:format>image/svg+xml</dc:format><dc:type
           rdf:resource="http://purl.org/dc/dcmitype/StillImage" /><dc:title /></cc:Work></rdf:RDF></metadata><defs
     id="defs38" /><sodipodi:namedview
     pagecolor="#ffffff"
     bordercolor="#666666"
     borderopacity="1"
     objecttolerance="10"
     gridtolerance="10"
     guidetolerance="10"
     inkscape:pageopacity="0"
     inkscape:pageshadow="2"
     inkscape:window-width="1920"
     inkscape:window-height="1017"
     id="namedview36"
     showgrid="false"
     inkscape:zoom="0.65555556"
     inkscape:cx="-298.98305"
     inkscape:cy="157.55002"
     inkscape:window-x="-8"
     inkscape:window-y="-8"
     inkscape:window-maximized="1"
     inkscape:current-layer="Capa_1" /><rect
     style="opacity:0.86299995;fill:#ffffff;fill-opacity:1;fill-rule:nonzero;stroke:#dc5000;stroke-width:2;stroke-linecap:butt;stroke-linejoin:miter;stroke-miterlimit:4;stroke-dasharray:none;stroke-opacity:0"
     id="rect4151"
     width="201.356"
     height="314.23727"
     x="99.153"
     y="44.762726" /><g
     id="g3"
     style="fill:#4862a3;fill-opacity:1"
     transform="scale(4,4)"><path
       id="Facebook__x28_alt_x29_"
       d="M 90,15.001 C 90,7.119 82.884,0 75,0 L 15,0 C 7.116,0 0,7.119 0,15.001 L 0,74.999 C 0,82.881 7.116,90 15.001,90 L 45,90 45,56 34,56 34,41 45,41 45,35.156 C 45,25.077 52.568,16 61.875,16 L 74,16 74,31 61.875,31 C 60.548,31 59,32.611 59,35.024 l 0,5.976 15,0 0,15 -15,0 0,34 16,0 c 7.884,0 15,-7.119 15,-15.001 l 0,-59.998 z"
       style="fill:#4862a3;fill-opacity:1"
       inkscape:connector-curvature="0" /></g><g
     id="g6" /><g
     id="g8" /><g
     id="g10" /><g
     id="g12" /><g
     id="g14" /><g
     id="g16" /><g
     id="g18" /><g
     id="g20" /><g
     id="g22" /><g
     id="g24" /><g
     id="g26" /><g
     id="g28" /><g
     id="g30" /><g
     id="g32" /><g
     id="g34" /></svg>