<?xml version="1.0" encoding="UTF-8" standalone="no"?>
<!-- Generator: Adobe Illustrator 16.0.0, SVG Export Plug-In . SVG Version: 6.00 Build 0)  -->

<svg
   xmlns:dc="http://purl.org/dc/elements/1.1/"
   xmlns:cc="http://creativecommons.org/ns#"
   xmlns:rdf="http://www.w3.org/1999/02/22-rdf-syntax-ns#"
   xmlns:svg="http://www.w3.org/2000/svg"
   xmlns="http://www.w3.org/2000/svg"
   xmlns:sodipodi="http://sodipodi.sourceforge.net/DTD/sodipodi-0.dtd"
   xmlns:inkscape="http://www.inkscape.org/namespaces/inkscape"
   version="1.1"
   id="Capa_1"
   x="0px"
   y="0px"
   width="360"
   height="360"
   viewBox="0 0 360 360"
   xml:space="preserve"
   inkscape:version="0.91 r13725"
   sodipodi:docname="Hourglass.svg"><metadata
     id="metadata41"><rdf:RDF><cc:Work
         rdf:about=""><dc:format>image/svg+xml</dc:format><dc:type
           rdf:resource="http://purl.org/dc/dcmitype/StillImage" /></cc:Work></rdf:RDF></metadata><defs
     id="defs39" /><sodipodi:namedview
     pagecolor="#ffffff"
     bordercolor="#666666"
     borderopacity="1"
     objecttolerance="10"
     gridtolerance="10"
     guidetolerance="10"
     inkscape:pageopacity="0"
     inkscape:pageshadow="2"
     inkscape:window-width="1920"
     inkscape:window-height="1017"
     id="namedview37"
     showgrid="false"
     inkscape:zoom="1.6188861"
     inkscape:cx="190.33089"
     inkscape:cy="98.220094"
     inkscape:window-x="-8"
     inkscape:window-y="-8"
     inkscape:window-maximized="1"
     inkscape:current-layer="Capa_1" /><rect
     style="opacity:0.86299995;fill:#ffffff;fill-opacity:1;fill-rule:nonzero;stroke:#dc5000;stroke-width:2;stroke-linecap:butt;stroke-linejoin:miter;stroke-miterlimit:4;stroke-dasharray:none;stroke-opacity:0"
     id="rect4173"
     width="64.859398"
     height="224.22824"
     x="145.77925"
     y="79.560257" /><rect
     style="opacity:0.86299995;fill:#ffffff;fill-opacity:1;fill-rule:nonzero;stroke:#dc5000;stroke-width:2;stroke-linecap:butt;stroke-linejoin:miter;stroke-miterlimit:4;stroke-dasharray:none;stroke-opacity:0"
     id="rect4175"
     width="156.2803"
     height="85.861511"
     x="98.833389"
     y="230.28117" /><rect
     style="opacity:0.86299995;fill:#ffffff;fill-opacity:1;fill-rule:nonzero;stroke:#dc5000;stroke-width:2;stroke-linecap:butt;stroke-linejoin:miter;stroke-miterlimit:4;stroke-dasharray:none;stroke-opacity:0"
     id="rect4169"
     width="130.33653"
     height="66.71254"
     x="114.89381"
     y="84.501923" /><g
     id="g3"
     transform="matrix(0.93636716,0,0,0.87309556,-13.044265,0)"><path
       d="m 322.716,72.617 22.961,0 c 5.523,0 10,-4.478 10,-10 l 0,-52.617 c 0,-5.522 -4.477,-10 -10,-10 L 66.649,0 c -5.523,0 -10,4.478 -10,10 l 0,52.617 c 0,5.522 4.477,10 10,10 l 22.961,0 c 9.269,62.04 38.201,112.225 75.94,133.546 -37.741,21.317 -66.672,71.504 -75.94,133.546 l -22.961,0 c -5.523,0 -10,4.479 -10,10 l 0,52.617 c 0,5.521 4.477,10 10,10 l 279.027,0 c 5.523,0 10,-4.479 10,-10 l 0,-52.617 c 0,-5.521 -4.477,-10 -10,-10 l -22.961,0 c -9.27,-62.04 -38.201,-112.227 -75.941,-133.545 37.741,-21.319 66.674,-71.505 75.942,-133.547 z m -98.984,170.285 c 36.618,46.604 50.171,69.167 55.093,79.889 1.42,3.096 1.166,6.702 -0.672,9.569 -1.838,2.866 -5.01,4.602 -8.416,4.602 l -127.145,0 c -3.406,0 -6.579,-1.733 -8.417,-4.602 -1.838,-2.868 -2.092,-6.474 -0.671,-9.569 4.92,-10.721 18.472,-33.283 55.093,-79.893 l 1.069,-1.359 0,-61.099 -1.345,-1.44 c -20.33,-21.785 -35.889,-39.178 -46.246,-51.695 -3.004,-3.632 -3.065,-8.869 -0.146,-12.569 2.919,-3.7 8.027,-4.858 12.257,-2.782 13.721,6.735 33.876,14.765 51.978,14.765 18.255,0 38.292,-7.972 51.886,-14.659 4.232,-2.085 9.342,-0.925 12.264,2.776 2.922,3.702 2.859,8.941 -0.146,12.573 -10.365,12.518 -25.895,29.874 -46.158,51.588 l -1.346,1.44 0,61.106 1.068,1.359 z"
       id="path5"
       inkscape:connector-curvature="0" /></g><g
     id="g7" /><g
     id="g9" /><g
     id="g11" /><g
     id="g13" /><g
     id="g15" /><g
     id="g17" /><g
     id="g19" /><g
     id="g21" /><g
     id="g23" /><g
     id="g25" /><g
     id="g27" /><g
     id="g29" /><g
     id="g31" /><g
     id="g33" /><g
     id="g35" /></svg>