<?xml version="1.0" encoding="UTF-8" standalone="no"?>
<!-- Generator: Adobe Illustrator 16.0.0, SVG Export Plug-In . SVG Version: 6.00 Build 0)  -->

<svg
   xmlns:dc="http://purl.org/dc/elements/1.1/"
   xmlns:cc="http://creativecommons.org/ns#"
   xmlns:rdf="http://www.w3.org/1999/02/22-rdf-syntax-ns#"
   xmlns:svg="http://www.w3.org/2000/svg"
   xmlns="http://www.w3.org/2000/svg"
   xmlns:sodipodi="http://sodipodi.sourceforge.net/DTD/sodipodi-0.dtd"
   xmlns:inkscape="http://www.inkscape.org/namespaces/inkscape"
   version="1.1"
   id="Capa_1"
   x="0px"
   y="0px"
   width="360"
   height="360"
   viewBox="0 0 360 360"
   xml:space="preserve"
   inkscape:version="0.91 r13725"
   sodipodi:docname="Intersection.svg"><metadata
     id="metadata67"><rdf:RDF><cc:Work
         rdf:about=""><dc:format>image/svg+xml</dc:format><dc:type
           rdf:resource="http://purl.org/dc/dcmitype/StillImage" /></cc:Work></rdf:RDF></metadata><defs
     id="defs65" /><sodipodi:namedview
     pagecolor="#ffffff"
     bordercolor="#666666"
     borderopacity="1"
     objecttolerance="10"
     gridtolerance="10"
     guidetolerance="10"
     inkscape:pageopacity="0"
     inkscape:pageshadow="2"
     inkscape:window-width="1920"
     inkscape:window-height="1017"
     id="namedview63"
     showgrid="false"
     inkscape:zoom="1.3413003"
     inkscape:cx="328.35362"
     inkscape:cy="165.75455"
     inkscape:window-x="-8"
     inkscape:window-y="-8"
     inkscape:window-maximized="1"
     inkscape:current-layer="Capa_1" /><g
     id="g4249"><rect
       y="1.0143454"
       x="131.01434"
       height="357.97131"
       width="97.971321"
       id="rect4195"
       style="opacity:1;fill:#707070;fill-opacity:1;fill-rule:nonzero;stroke:#707070;stroke-width:2.02868223;stroke-linecap:butt;stroke-linejoin:miter;stroke-miterlimit:4;stroke-dasharray:none;stroke-opacity:1" /><rect
       transform="matrix(0,1,-1,0,0,0)"
       style="opacity:1;fill:#707070;fill-opacity:1;fill-rule:nonzero;stroke:#707070;stroke-width:2.02868223;stroke-linecap:butt;stroke-linejoin:miter;stroke-miterlimit:4;stroke-dasharray:none;stroke-opacity:1"
       id="rect4197"
       width="97.971321"
       height="357.97131"
       x="131.01434"
       y="-358.98566" /><polygon
       transform="matrix(0,0.74895935,-0.74895935,0,360.29,-12.725612)"
       id="polygon4243"
       points="497.658,168.365 329.294,168.365 329.294,0 302.108,0 302.108,195.55 497.658,195.55 "
       style="fill:#ffffff" /><polygon
       transform="scale(0.72338835,0.72338835)"
       id="polygon7"
       points="497.658,302.107 302.108,302.107 302.108,497.658 329.294,497.658 329.294,329.293 497.658,329.293 " /><polygon
       style="fill:#ffffff"
       points="302.108,0 302.108,195.55 497.658,195.55 497.658,168.365 329.294,168.365 329.294,0 "
       id="polygon4245"
       transform="matrix(-0.74895935,0,0,-0.74895935,372.72561,360)" /><polygon
       transform="scale(0.72338835,0.72338835)"
       id="polygon9"
       points="195.55,302.107 0,302.107 0,329.293 168.364,329.293 168.364,497.658 195.55,497.658 " /><polygon
       transform="matrix(0,-0.74895935,0.74895935,0,0,372.72561)"
       id="polygon4247"
       points="497.658,195.55 497.658,168.365 329.294,168.365 329.294,0 302.108,0 302.108,195.55 "
       style="fill:#ffffff" /><polygon
       transform="scale(0.72338835,0.72338835)"
       id="polygon11"
       points="195.55,0 168.364,0 168.364,168.365 0,168.365 0,195.55 195.55,195.55 " /><polygon
       style="fill:#ffffff"
       points="329.294,168.365 329.294,0 302.108,0 302.108,195.55 497.658,195.55 497.658,168.365 "
       id="polygon4241"
       transform="matrix(0.74895935,0,0,0.74895935,-12.725612,-1.2499981e-8)" /><polygon
       transform="scale(0.72338835,0.72338835)"
       id="polygon13"
       points="497.658,195.55 497.658,168.365 329.294,168.365 329.294,0 302.108,0 302.108,195.55 " /><rect
       style="fill:#eeb221;fill-opacity:1"
       id="rect15"
       height="16.519297"
       width="35.398285"
       y="171.74034"
       x="1.8996178" /><rect
       style="fill:#eeb221;fill-opacity:1"
       id="rect17"
       height="16.519297"
       width="67.241844"
       y="171.74034"
       x="58.216846" /><rect
       style="fill:#eeb221;fill-opacity:1"
       id="rect19"
       height="16.519297"
       width="67.241119"
       y="171.74034"
       x="234.54132" /><rect
       style="fill:#eeb221;fill-opacity:1"
       id="rect21"
       height="16.519297"
       width="35.39901"
       y="171.74034"
       x="322.70282" /><rect
       style="fill:#eeb221;fill-opacity:1"
       id="rect23"
       height="35.39756"
       width="16.519297"
       y="1.8996178"
       x="171.74034" /><polygon
       style="fill:#eeb221;fill-opacity:1"
       transform="scale(0.72338835,0.72338835)"
       id="polygon25"
       points="295.307,237.411 260.247,237.411 260.247,202.351 237.411,202.351 237.411,237.411 202.352,237.411 202.352,260.247 237.411,260.247 237.411,295.307 260.247,295.307 260.247,260.247 295.307,260.247 " /><rect
       style="fill:#eeb221;fill-opacity:1"
       id="rect27"
       height="67.241844"
       width="16.519297"
       y="58.216846"
       x="171.74034" /><rect
       style="fill:#eeb221;fill-opacity:1"
       id="rect29"
       height="67.241844"
       width="16.519297"
       y="234.54059"
       x="171.74034" /><rect
       style="fill:#eeb221;fill-opacity:1"
       id="rect31"
       height="35.398285"
       width="16.519297"
       y="322.70282"
       x="171.74034" /><g
       id="g33" /><g
       id="g35" /><g
       id="g37" /><g
       id="g39" /><g
       id="g41" /><g
       id="g43" /><g
       id="g45" /><g
       id="g47" /><g
       id="g49" /><g
       id="g51" /><g
       id="g53" /><g
       id="g55" /><g
       id="g57" /><g
       id="g59" /><g
       id="g61" /></g></svg>