<?xml version="1.0" encoding="UTF-8" standalone="no"?>
<!-- Generator: Adobe Illustrator 16.0.0, SVG Export Plug-In . SVG Version: 6.00 Build 0)  -->

<svg
   xmlns:dc="http://purl.org/dc/elements/1.1/"
   xmlns:cc="http://creativecommons.org/ns#"
   xmlns:rdf="http://www.w3.org/1999/02/22-rdf-syntax-ns#"
   xmlns:svg="http://www.w3.org/2000/svg"
   xmlns="http://www.w3.org/2000/svg"
   xmlns:sodipodi="http://sodipodi.sourceforge.net/DTD/sodipodi-0.dtd"
   xmlns:inkscape="http://www.inkscape.org/namespaces/inkscape"
   version="1.1"
   id="Capa_1"
   x="0px"
   y="0px"
   width="360"
   height="360"
   viewBox="0 0360 360"
   xml:space="preserve"
   inkscape:version="0.91 r13725"
   sodipodi:docname="Network.svg"><metadata
     id="metadata53"><rdf:RDF><cc:Work
         rdf:about=""><dc:format>image/svg+xml</dc:format><dc:type
           rdf:resource="http://purl.org/dc/dcmitype/StillImage" /></cc:Work></rdf:RDF></metadata><defs
     id="defs51" /><sodipodi:namedview
     pagecolor="#ffffff"
     bordercolor="#666666"
     borderopacity="1"
     objecttolerance="10"
     gridtolerance="10"
     guidetolerance="10"
     inkscape:pageopacity="0"
     inkscape:pageshadow="2"
     inkscape:window-width="1920"
     inkscape:window-height="1017"
     id="namedview49"
     showgrid="false"
     inkscape:zoom="0.83757086"
     inkscape:cx="49.786259"
     inkscape:cy="145.6504"
     inkscape:window-x="-8"
     inkscape:window-y="-8"
     inkscape:window-maximized="1"
     inkscape:current-layer="Capa_1" /><g
     id="g4283"
     transform="matrix(0.90343466,0,0,0.90454761,2.6184534e-4,-0.22251871)"><g
       id="g4273"><g
         id="g4264"><g
           id="g4256"><path
             d="m 282.887,80.766 -1.761,-2.151 c -0.382,-0.467 -0.952,-0.733 -1.547,-0.733 -0.069,0 -2.974,0.3 -2.974,0.3 -43.555,4.537 -86.095,17.135 -126.443,37.442 l -2.72,1.369 c -0.651,0.328 -1.072,0.984 -1.1,1.712 l -0.115,3.043 c -0.074,1.998 -0.354,3.976 -0.832,5.88 l -0.748,2.98 c -0.179,0.711 0.047,1.465 0.588,1.961 l 76.309,69.953 c 0.375,0.344 0.859,0.524 1.352,0.524 0.233,0 0.468,-0.041 0.693,-0.123 l 2.953,-1.093 c 2.072,-0.766 4.257,-1.288 6.495,-1.552 l 2.933,-0.348 c 0.704,-0.084 1.312,-0.533 1.597,-1.185 L 286.688,86.72 c 0.318,-0.729 0.177,-1.576 -0.363,-2.16 l -2.293,-2.48 c -0.399,-0.43 -0.784,-0.871 -1.145,-1.314 z"
             id="path7"
             inkscape:connector-curvature="0"
             style="fill:#43b027;fill-opacity:1" /><path
             d="m 103.567,94.372 c 0.375,0.344 0.859,0.525 1.352,0.525 0.22,0 0.441,-0.036 0.655,-0.11 l 2.906,-1.008 c 3.005,-1.043 6.142,-1.571 9.322,-1.571 5.245,0 10.369,1.438 14.815,4.159 l 2.449,1.497 c 0.319,0.194 0.681,0.293 1.043,0.293 0.308,0 0.616,-0.07 0.9,-0.214 l 2.562,-1.291 c 25.075,-12.632 51.116,-22.556 77.398,-29.495 18.103,-4.779 36.783,-8.25 55.526,-10.316 l 3.005,-0.343 c 0.714,-0.081 1.33,-0.54 1.613,-1.202 l 1.244,-2.912 c 6.794,-15.049 23.754,-19.868 23.925,-19.916 0.788,-0.217 1.365,-0.891 1.456,-1.703 0.092,-0.813 -0.319,-1.599 -1.04,-1.986 l -9.139,-4.914 C 264.817,8.414 232.288,0.246 199.486,0.246 c -48.775,0 -95.704,17.836 -132.14,50.224 l -4.27,3.795 c -0.423,0.376 -0.667,0.914 -0.671,1.479 -0.004,0.566 0.231,1.107 0.648,1.49 l 40.514,37.138 z"
             id="path9"
             inkscape:connector-curvature="0"
             style="fill:#43b027;fill-opacity:1" /><path
             d="M 359.712,81.228 358.363,79.4 c -0.333,-0.451 -0.841,-0.742 -1.399,-0.802 l -2.26,-0.238 c -6.561,-0.692 -13.463,-1.232 -20.517,-1.605 l -2.772,-0.145 c -0.035,-0.002 -0.069,-0.003 -0.104,-0.003 -0.634,0 -1.23,0.3 -1.608,0.812 l -1.647,2.23 c -3.971,5.377 -9.707,9.211 -16.156,10.797 l -2.47,0.61 c -0.604,0.148 -1.104,0.569 -1.354,1.139 L 257.52,207.494 c -0.285,0.649 -0.204,1.402 0.212,1.978 l 1.732,2.391 c 3.532,4.877 5.399,10.641 5.399,16.668 0,2.529 -0.34,5.059 -1.011,7.516 l -0.828,3.033 c -0.197,0.723 0.025,1.496 0.578,2.002 l 89.199,81.771 c 0.371,0.34 0.854,0.524 1.353,0.524 0.062,0 0.125,-0.003 0.188,-0.009 0.563,-0.054 1.077,-0.343 1.415,-0.796 l 3.412,-4.58 c 25.716,-34.526 39.31,-75.59 39.31,-118.752 0,-42.824 -13.405,-83.632 -38.767,-118.012 z"
             id="path11"
             inkscape:connector-curvature="0"
             style="fill:#4f4ae2;fill-opacity:1" /><path
             d="m 247.637,255.997 c -0.373,-0.342 -0.856,-0.524 -1.352,-0.524 -0.157,0 -0.314,0.019 -0.47,0.057 l -2.673,0.646 c -1.086,0.262 -2.221,0.465 -3.371,0.602 l -2.933,0.344 c -0.705,0.082 -1.312,0.533 -1.599,1.184 l -59.646,136.031 c -0.261,0.595 -0.217,1.277 0.118,1.834 0.334,0.557 0.918,0.915 1.565,0.963 l 7.265,0.541 c 4.96,0.371 9.988,0.56 14.944,0.56 49.997,0 97.8,-18.625 134.603,-52.443 l 4.139,-3.803 c 0.413,-0.379 0.646,-0.914 0.646,-1.475 0,-0.561 -0.235,-1.095 -0.647,-1.474 l -90.589,-83.043 z"
             id="path13"
             inkscape:connector-curvature="0"
             style="fill:#4f4ae2;fill-opacity:1" /><path
             d="m 215.079,247.575 -1.731,-2.392 c -3.526,-4.875 -5.392,-10.635 -5.392,-16.655 0,-1.44 0.109,-2.894 0.325,-4.315 l 0.412,-2.717 c 0.1,-0.658 -0.136,-1.322 -0.626,-1.773 l -78.352,-71.826 c -0.374,-0.342 -0.857,-0.525 -1.352,-0.525 -0.171,0 -0.344,0.021 -0.514,0.066 l -2.726,0.725 c -2.388,0.634 -4.852,0.955 -7.323,0.955 -4.367,0 -8.562,-0.967 -12.466,-2.871 l -2.731,-1.334 c -0.278,-0.137 -0.578,-0.203 -0.877,-0.203 -0.404,0 -0.805,0.122 -1.147,0.361 l -2.49,1.744 c -46.608,32.648 -77.771,68.17 -92.198,86.438 l -1.484,1.881 c -0.365,0.461 -0.507,1.062 -0.39,1.638 l 0.478,2.346 c 7.319,35.978 24.528,69.228 49.766,96.156 25.135,26.817 57.044,46.121 92.279,55.824 l 4.301,1.184 c 0.177,0.049 0.355,0.072 0.531,0.072 0.777,0 1.506,-0.455 1.831,-1.197 l 62.088,-141.603 c 0.285,-0.652 0.205,-1.404 -0.212,-1.979 z"
             id="path15"
             inkscape:connector-curvature="0"
             style="fill:#4f4ae2;fill-opacity:1" /><path
             d="m 86.337,128.452 2.351,-1.642 c 0.728,-0.509 1.034,-1.437 0.75,-2.277 -2.107,-6.263 0.455,-10.678 0.565,-10.862 0.485,-0.814 0.338,-1.869 -0.36,-2.51 L 48.175,73.149 c -0.371,-0.339 -0.854,-0.525 -1.352,-0.525 -0.057,0 -0.114,0.002 -0.172,0.008 -0.558,0.048 -1.07,0.328 -1.412,0.771 L 41.811,77.85 C 17.658,109.178 3.524,146.591 0.94,186.045 l -0.936,14.279 c -0.055,0.842 0.423,1.627 1.196,1.964 0.258,0.112 0.53,0.167 0.799,0.167 0.539,0 1.068,-0.218 1.454,-0.627 l 9.83,-10.4 c 22.15,-23.432 46.728,-44.621 73.054,-62.976 z"
             id="path17"
             inkscape:connector-curvature="0"
             style="fill:#43b027;fill-opacity:1" /></g></g></g></g><g
     id="g19"
     transform="matrix(0.90343466,0,0,0.90454761,2.6184534e-4,-0.22251871)" /><g
     id="g21"
     transform="matrix(0.90343466,0,0,0.90454761,2.6184534e-4,-0.22251871)" /><g
     id="g23"
     transform="matrix(0.90343466,0,0,0.90454761,2.6184534e-4,-0.22251871)" /><g
     id="g25"
     transform="matrix(0.90343466,0,0,0.90454761,2.6184534e-4,-0.22251871)" /><g
     id="g27"
     transform="matrix(0.90343466,0,0,0.90454761,2.6184534e-4,-0.22251871)" /><g
     id="g29"
     transform="matrix(0.90343466,0,0,0.90454761,2.6184534e-4,-0.22251871)" /><g
     id="g31"
     transform="matrix(0.90343466,0,0,0.90454761,2.6184534e-4,-0.22251871)" /><g
     id="g33"
     transform="matrix(0.90343466,0,0,0.90454761,2.6184534e-4,-0.22251871)" /><g
     id="g35"
     transform="matrix(0.90343466,0,0,0.90454761,2.6184534e-4,-0.22251871)" /><g
     id="g37"
     transform="matrix(0.90343466,0,0,0.90454761,2.6184534e-4,-0.22251871)" /><g
     id="g39"
     transform="matrix(0.90343466,0,0,0.90454761,2.6184534e-4,-0.22251871)" /><g
     id="g41"
     transform="matrix(0.90343466,0,0,0.90454761,2.6184534e-4,-0.22251871)" /><g
     id="g43"
     transform="matrix(0.90343466,0,0,0.90454761,2.6184534e-4,-0.22251871)" /><g
     id="g45"
     transform="matrix(0.90343466,0,0,0.90454761,2.6184534e-4,-0.22251871)" /><g
     id="g47"
     transform="matrix(0.90343466,0,0,0.90454761,2.6184534e-4,-0.22251871)" /></svg>