<?xml version="1.0" encoding="UTF-8" standalone="no"?>
<!-- Generator: Adobe Illustrator 18.1.1, SVG Export Plug-In . SVG Version: 6.00 Build 0)  -->

<svg
   xmlns:dc="http://purl.org/dc/elements/1.1/"
   xmlns:cc="http://creativecommons.org/ns#"
   xmlns:rdf="http://www.w3.org/1999/02/22-rdf-syntax-ns#"
   xmlns:svg="http://www.w3.org/2000/svg"
   xmlns="http://www.w3.org/2000/svg"
   xmlns:sodipodi="http://sodipodi.sourceforge.net/DTD/sodipodi-0.dtd"
   xmlns:inkscape="http://www.inkscape.org/namespaces/inkscape"
   version="1.1"
   id="Capa_1"
   x="0px"
   y="0px"
   viewBox="0 0 360 360"
   xml:space="preserve"
   inkscape:version="0.91 r13725"
   sodipodi:docname="NodeConnection.svg"
   width="360"
   height="360"><metadata
     id="metadata41"><rdf:RDF><cc:Work
         rdf:about=""><dc:format>image/svg+xml</dc:format><dc:type
           rdf:resource="http://purl.org/dc/dcmitype/StillImage" /><dc:title /></cc:Work></rdf:RDF></metadata><defs
     id="defs39" /><sodipodi:namedview
     pagecolor="#ffffff"
     bordercolor="#666666"
     borderopacity="1"
     objecttolerance="10"
     gridtolerance="10"
     guidetolerance="10"
     inkscape:pageopacity="0"
     inkscape:pageshadow="2"
     inkscape:window-width="1920"
     inkscape:window-height="1017"
     id="namedview37"
     showgrid="false"
     inkscape:zoom="0.44939372"
     inkscape:cx="-127.95016"
     inkscape:cy="262.57599"
     inkscape:window-x="-8"
     inkscape:window-y="-8"
     inkscape:window-maximized="1"
     inkscape:current-layer="Capa_1" /><g
     id="g3"
     transform="matrix(0.75852072,0,0,0.68551451,-19.169336,0)"><path
       d="m 420.735,371.217 c -20.021,0 -37.942,7.855 -51.596,20.24 L 181.112,282.094 c 1.357,-6.061 2.407,-12.166 2.407,-18.468 0,-6.302 -1.072,-12.385 -2.407,-18.468 L 367.016,136.823 c 14.179,13.129 32.931,21.334 53.719,21.334 43.828,0 79.145,-35.251 79.145,-79.079 C 499.88,35.338 464.541,0 420.735,0 c -43.741,0 -79.079,35.338 -79.079,79.057 0,6.389 1.072,12.385 2.407,18.468 L 158.158,205.947 c -14.201,-13.194 -32.931,-21.378 -53.741,-21.378 -43.828,0 -79.145,35.317 -79.145,79.057 0,43.74 35.317,79.079 79.145,79.079 20.787,0 39.54,-8.206 53.719,-21.334 l 187.698,109.604 c -1.291,5.58 -2.101,11.4 -2.101,17.199 0,42.45 34.594,76.979 76.979,76.979 42.428,0 77.044,-34.507 77.044,-76.979 0,-42.472 -34.593,-76.957 -77.021,-76.957 z"
       id="path5"
       inkscape:connector-curvature="0" /></g><g
     id="g7" /><g
     id="g9" /><g
     id="g11" /><g
     id="g13" /><g
     id="g15" /><g
     id="g17" /><g
     id="g19" /><g
     id="g21" /><g
     id="g23" /><g
     id="g25" /><g
     id="g27" /><g
     id="g29" /><g
     id="g31" /><g
     id="g33" /><g
     id="g35" /></svg>