<?xml version="1.0" encoding="UTF-8" standalone="no"?>
<!-- Generator: Adobe Illustrator 18.1.1, SVG Export Plug-In . SVG Version: 6.00 Build 0)  -->

<svg
   xmlns:dc="http://purl.org/dc/elements/1.1/"
   xmlns:cc="http://creativecommons.org/ns#"
   xmlns:rdf="http://www.w3.org/1999/02/22-rdf-syntax-ns#"
   xmlns:svg="http://www.w3.org/2000/svg"
   xmlns="http://www.w3.org/2000/svg"
   xmlns:sodipodi="http://sodipodi.sourceforge.net/DTD/sodipodi-0.dtd"
   xmlns:inkscape="http://www.inkscape.org/namespaces/inkscape"
   version="1.1"
   id="Capa_1"
   x="0px"
   y="0px"
   viewBox="0 0 360 360"
   xml:space="preserve"
   inkscape:version="0.91 r13725"
   sodipodi:docname="OpenFile.svg"
   width="360"
   height="360"><metadata
     id="metadata44"><rdf:RDF><cc:Work
         rdf:about=""><dc:format>image/svg+xml</dc:format><dc:type
           rdf:resource="http://purl.org/dc/dcmitype/StillImage" /><dc:title /></cc:Work></rdf:RDF></metadata><defs
     id="defs42" /><sodipodi:namedview
     pagecolor="#ffffff"
     bordercolor="#666666"
     borderopacity="1"
     objecttolerance="10"
     gridtolerance="10"
     guidetolerance="10"
     inkscape:pageopacity="0"
     inkscape:pageshadow="2"
     inkscape:window-width="1920"
     inkscape:window-height="1017"
     id="namedview40"
     showgrid="false"
     inkscape:zoom="1.7867368"
     inkscape:cx="96.128624"
     inkscape:cy="204.7328"
     inkscape:window-x="-8"
     inkscape:window-y="-8"
     inkscape:window-maximized="1"
     inkscape:current-layer="Capa_1" /><rect
     style="opacity:1;fill:none;fill-opacity:1;fill-rule:nonzero;stroke:#dc5000;stroke-width:1.27826762;stroke-linecap:butt;stroke-linejoin:miter;stroke-miterlimit:4;stroke-dasharray:none;stroke-opacity:0"
     id="rect4178"
     width="81.513779"
     height="30.616468"
     x="48.480427"
     y="58.393929" /><path
     inkscape:connector-curvature="0"
     style="fill:#f2f2f2;fill-opacity:1"
     id="path8"
     d="m 348.11289,106.53009 c 0,0 -14.82145,0 -19.76194,0 -2.22211,0 -1.88677,-3.40922 -1.88677,-3.40922 l 0,-10.226675 c 0,-13.425993 -10.58055,-24.349037 -23.58558,-24.349037 l -161.36508,0 c -1.08407,0 -2.3946,-2.247282 -4.74776,-6.970653 -0.34979,-0.701343 -0.70152,-1.406665 -1.05998,-2.108008 -8.22451,-16.089107 -18.8995,-19.466496 -26.40611,-19.466496 l -41.982073,0 c -10.612357,0 -16.946238,6.364812 -24.408519,18.918354 -0.485665,0.817736 -0.962657,1.64741 -1.43965,2.477084 -2.405197,4.186172 -4.215841,7.150714 -5.615019,7.150714 l -12.268822,0 C 10.580558,68.546153 0,79.469197 0,92.89519 l 0,202.4255 c 0,11.89796 8.3112309,21.8232 19.252183,23.93022 1.323052,0.4795 2.774265,0.74909 4.333404,0.74909 l 287.733363,0 c 7.78317,0 15.26665,-6.47225 16.63017,-14.383 l 31.83515,-184.70291 c 1.36449,-7.91174 -3.88821,-14.384 -11.67138,-14.384 z M 23.58655,88.024587 l 12.268823,0 c 12.254368,0 18.025494,-10.046614 21.844323,-16.693953 0.427848,-0.74412 0.855696,-1.49023 1.291253,-2.224402 3.79763,-6.387692 6.765582,-9.627798 10.371452,-9.627798 l 39.938239,0 c 1.25559,0 5.07828,0 9.71811,9.078662 0.32763,0.641654 0.64852,1.286293 0.96844,1.927947 3.47964,6.98458 8.74004,17.538549 21.52633,17.538549 l 161.36508,0 c 2.55648,0 4.71692,2.23037 4.71692,4.869608 l 0,9.73922 c 0,0 0.29391,3.89668 -1.88677,3.89668 -61.33254,0 -245.330187,0 -245.330187,0 -7.783167,0 -15.266647,6.47225 -16.630171,14.383 L 20.077043,258.25396 c 0,0 -1.208381,4.59604 -1.208381,-3.92652 0,-40.35856 0,-161.433245 0,-161.433245 0,-2.639238 2.160438,-4.869608 4.717888,-4.869608 z" /><g
     id="g10" /><g
     id="g12" /><g
     id="g14" /><g
     id="g16" /><g
     id="g18" /><g
     id="g20" /><g
     id="g22" /><g
     id="g24" /><g
     id="g26" /><g
     id="g28" /><g
     id="g30" /><g
     id="g32" /><g
     id="g34" /><g
     id="g36" /><g
     id="g38" /></svg>