<?xml version="1.0" encoding="UTF-8" standalone="no"?>
<!-- Generator: Adobe Illustrator 18.1.1, SVG Export Plug-In . SVG Version: 6.00 Build 0)  -->

<svg
   xmlns:dc="http://purl.org/dc/elements/1.1/"
   xmlns:cc="http://creativecommons.org/ns#"
   xmlns:rdf="http://www.w3.org/1999/02/22-rdf-syntax-ns#"
   xmlns:svg="http://www.w3.org/2000/svg"
   xmlns="http://www.w3.org/2000/svg"
   xmlns:sodipodi="http://sodipodi.sourceforge.net/DTD/sodipodi-0.dtd"
   xmlns:inkscape="http://www.inkscape.org/namespaces/inkscape"
   version="1.1"
   id="Capa_1"
   x="0px"
   y="0px"
   viewBox="0 0 360 360"
   xml:space="preserve"
   inkscape:version="0.91 r13725"
   sodipodi:docname="Person.svg"
   width="360"
   height="360"><metadata
     id="metadata45"><rdf:RDF><cc:Work
         rdf:about=""><dc:format>image/svg+xml</dc:format><dc:type
           rdf:resource="http://purl.org/dc/dcmitype/StillImage" /></cc:Work></rdf:RDF></metadata><defs
     id="defs43" /><sodipodi:namedview
     pagecolor="#ffffff"
     bordercolor="#666666"
     borderopacity="1"
     objecttolerance="10"
     gridtolerance="10"
     guidetolerance="10"
     inkscape:pageopacity="0"
     inkscape:pageshadow="2"
     inkscape:window-width="1920"
     inkscape:window-height="1057"
     id="namedview41"
     showgrid="false"
     inkscape:zoom="0.48579664"
     inkscape:cx="-1179.422"
     inkscape:cy="-84.863536"
     inkscape:window-x="-8"
     inkscape:window-y="-8"
     inkscape:window-maximized="1"
     inkscape:current-layer="Capa_1" /><g
     id="g3"
     transform="matrix(6.0587309,0,0,5.9283301,-3.9599043,3.2708228e-6)"
     style="fill:#f2f2f2"><g
       id="g5"
       style="fill:#f2f2f2"><circle
         style="fill:#f2f2f2"
         cx="19.969"
         cy="6.0079999"
         r="6.0079999"
         id="circle7" /><path
         style="fill:#f2f2f2"
         d="m 53.99,37.782 c -6.299,3.684 -10.077,-1.721 -12.923,-6.924 -0.124,-0.501 -0.307,-1.009 -0.57,-1.522 -2.203,-4.285 -4.502,-8.527 -6.908,-12.703 4.699,-1.499 8.996,-0.13 12.375,4.602 2.748,3.85 9.176,0.158 6.396,-3.737 C 45.82,8.339 36.068,6.066 26.305,11.862 c -0.406,0.241 -0.732,0.521 -0.993,0.828 -0.148,0.058 -0.295,0.122 -0.44,0.19 -0.397,0.08 -0.806,0.233 -1.219,0.478 -6.069,3.603 -11.709,2.92 -15.921,-2.98 -2.75,-3.85 -9.176,-0.158 -6.395,3.737 5.374,7.527 12.919,10.392 20.857,7.96 2.491,4.278 4.856,8.632 7.128,13.032 -3.358,1.717 -6.467,3.853 -9.357,6.368 -0.125,0.109 -0.236,0.222 -0.341,0.335 -0.629,0.323 -1.184,0.868 -1.575,1.676 -1.942,4.015 -3.886,8.028 -5.828,12.043 -2.086,4.312 4.626,7.438 6.704,3.146 1.846,-3.814 3.694,-7.633 5.541,-11.445 0.25,-0.141 0.498,-0.309 0.736,-0.518 3.352,-2.918 7.191,-5.283 11.396,-6.748 0.207,-0.072 0.396,-0.158 0.574,-0.254 5.148,6.533 12.33,10.131 20.93,5.105 4.531,-2.648 0.433,-9.689 -4.112,-7.033 z"
         id="path9"
         inkscape:connector-curvature="0" /></g></g><g
     id="g11"
     transform="matrix(6.0587309,0,0,5.9283301,-3.9599043,3.2708228e-6)" /><g
     id="g13"
     transform="matrix(6.0587309,0,0,5.9283301,-3.9599043,3.2708228e-6)" /><g
     id="g15"
     transform="matrix(6.0587309,0,0,5.9283301,-3.9599043,3.2708228e-6)" /><g
     id="g17"
     transform="matrix(6.0587309,0,0,5.9283301,-3.9599043,3.2708228e-6)" /><g
     id="g19"
     transform="matrix(6.0587309,0,0,5.9283301,-3.9599043,3.2708228e-6)" /><g
     id="g21"
     transform="matrix(6.0587309,0,0,5.9283301,-3.9599043,3.2708228e-6)" /><g
     id="g23"
     transform="matrix(6.0587309,0,0,5.9283301,-3.9599043,3.2708228e-6)" /><g
     id="g25"
     transform="matrix(6.0587309,0,0,5.9283301,-3.9599043,3.2708228e-6)" /><g
     id="g27"
     transform="matrix(6.0587309,0,0,5.9283301,-3.9599043,3.2708228e-6)" /><g
     id="g29"
     transform="matrix(6.0587309,0,0,5.9283301,-3.9599043,3.2708228e-6)" /><g
     id="g31"
     transform="matrix(6.0587309,0,0,5.9283301,-3.9599043,3.2708228e-6)" /><g
     id="g33"
     transform="matrix(6.0587309,0,0,5.9283301,-3.9599043,3.2708228e-6)" /><g
     id="g35"
     transform="matrix(6.0587309,0,0,5.9283301,-3.9599043,3.2708228e-6)" /><g
     id="g37"
     transform="matrix(6.0587309,0,0,5.9283301,-3.9599043,3.2708228e-6)" /><g
     id="g39"
     transform="matrix(6.0587309,0,0,5.9283301,-3.9599043,3.2708228e-6)" /></svg>