<?xml version="1.0" encoding="UTF-8" standalone="no"?>
<!-- Generator: Adobe Illustrator 16.0.0, SVG Export Plug-In . SVG Version: 6.00 Build 0)  -->

<svg
   xmlns:dc="http://purl.org/dc/elements/1.1/"
   xmlns:cc="http://creativecommons.org/ns#"
   xmlns:rdf="http://www.w3.org/1999/02/22-rdf-syntax-ns#"
   xmlns:svg="http://www.w3.org/2000/svg"
   xmlns="http://www.w3.org/2000/svg"
   xmlns:sodipodi="http://sodipodi.sourceforge.net/DTD/sodipodi-0.dtd"
   xmlns:inkscape="http://www.inkscape.org/namespaces/inkscape"
   version="1.1"
   id="Capa_1"
   x="0px"
   y="0px"
   width="360"
   height="360"
   viewBox="0 0 360 360"
   xml:space="preserve"
   inkscape:version="0.91 r13725"
   sodipodi:docname="Play.svg"><metadata
     id="metadata41"><rdf:RDF><cc:Work
         rdf:about=""><dc:format>image/svg+xml</dc:format><dc:type
           rdf:resource="http://purl.org/dc/dcmitype/StillImage" /></cc:Work></rdf:RDF></metadata><defs
     id="defs39" /><sodipodi:namedview
     pagecolor="#ffffff"
     bordercolor="#666666"
     borderopacity="1"
     objecttolerance="10"
     gridtolerance="10"
     guidetolerance="10"
     inkscape:pageopacity="0"
     inkscape:pageshadow="2"
     inkscape:window-width="1920"
     inkscape:window-height="1017"
     id="namedview37"
     showgrid="false"
     inkscape:zoom="1.4402452"
     inkscape:cx="-149.28014"
     inkscape:cy="81.930496"
     inkscape:window-x="-8"
     inkscape:window-y="-8"
     inkscape:window-maximized="1"
     inkscape:current-layer="Capa_1" /><g
     id="g3"
     transform="matrix(2.4382562,0,0,2.19698,-19.766943,2.2235107e-5)"
     style="fill:#f2f2f2"><path
       d="M 34.857,3.613 C 20.084,-4.861 8.107,2.081 8.107,19.106 l 0,125.637 c 0,17.042 11.977,23.975 26.75,15.509 L 144.67,97.275 c 14.778,-8.477 14.778,-22.211 0,-30.686 L 34.857,3.613 Z"
       id="path5"
       inkscape:connector-curvature="0"
       style="fill:#f2f2f2" /></g><g
     id="g7"
     transform="matrix(2.4382562,0,0,2.19698,-19.766943,2.2235107e-5)" /><g
     id="g9"
     transform="matrix(2.4382562,0,0,2.19698,-19.766943,2.2235107e-5)" /><g
     id="g11"
     transform="matrix(2.4382562,0,0,2.19698,-19.766943,2.2235107e-5)" /><g
     id="g13"
     transform="matrix(2.4382562,0,0,2.19698,-19.766943,2.2235107e-5)" /><g
     id="g15"
     transform="matrix(2.4382562,0,0,2.19698,-19.766943,2.2235107e-5)" /><g
     id="g17"
     transform="matrix(2.4382562,0,0,2.19698,-19.766943,2.2235107e-5)" /><g
     id="g19"
     transform="matrix(2.4382562,0,0,2.19698,-19.766943,2.2235107e-5)" /><g
     id="g21"
     transform="matrix(2.4382562,0,0,2.19698,-19.766943,2.2235107e-5)" /><g
     id="g23"
     transform="matrix(2.4382562,0,0,2.19698,-19.766943,2.2235107e-5)" /><g
     id="g25"
     transform="matrix(2.4382562,0,0,2.19698,-19.766943,2.2235107e-5)" /><g
     id="g27"
     transform="matrix(2.4382562,0,0,2.19698,-19.766943,2.2235107e-5)" /><g
     id="g29"
     transform="matrix(2.4382562,0,0,2.19698,-19.766943,2.2235107e-5)" /><g
     id="g31"
     transform="matrix(2.4382562,0,0,2.19698,-19.766943,2.2235107e-5)" /><g
     id="g33"
     transform="matrix(2.4382562,0,0,2.19698,-19.766943,2.2235107e-5)" /><g
     id="g35"
     transform="matrix(2.4382562,0,0,2.19698,-19.766943,2.2235107e-5)" /></svg>