<?xml version="1.0" encoding="UTF-8" standalone="no"?>
<!-- Generator: Adobe Illustrator 16.0.0, SVG Export Plug-In . SVG Version: 6.00 Build 0)  -->

<svg
   xmlns:dc="http://purl.org/dc/elements/1.1/"
   xmlns:cc="http://creativecommons.org/ns#"
   xmlns:rdf="http://www.w3.org/1999/02/22-rdf-syntax-ns#"
   xmlns:svg="http://www.w3.org/2000/svg"
   xmlns="http://www.w3.org/2000/svg"
   xmlns:sodipodi="http://sodipodi.sourceforge.net/DTD/sodipodi-0.dtd"
   xmlns:inkscape="http://www.inkscape.org/namespaces/inkscape"
   version="1.1"
   id="Capa_1"
   x="0px"
   y="0px"
   width="360"
   height="360"
   viewBox="0 0 612 612"
   xml:space="preserve"
   inkscape:version="0.91 r13725"
   sodipodi:docname="Quit.svg"><metadata
     id="metadata44"><rdf:RDF><cc:Work
         rdf:about=""><dc:format>image/svg+xml</dc:format><dc:type
           rdf:resource="http://purl.org/dc/dcmitype/StillImage" /></cc:Work></rdf:RDF></metadata><defs
     id="defs42" /><sodipodi:namedview
     pagecolor="#ffffff
"
     bordercolor="#666666"
     borderopacity="1"
     objecttolerance="10"
     gridtolerance="10"
     guidetolerance="10"
     inkscape:pageopacity="0"
     inkscape:pageshadow="2"
     inkscape:window-width="1920"
     inkscape:window-height="1056"
     id="namedview40"
     showgrid="false"
     inkscape:zoom="0.38562092"
     inkscape:cx="-133.55085"
     inkscape:cy="306"
     inkscape:window-x="0"
     inkscape:window-y="0"
     inkscape:window-maximized="1"
     inkscape:current-layer="Capa_1" /><g
     id="g3"><g
       id="Substract"><g
         id="g6"><path
           d="M 306,0 C 137.012,0 0,137.012 0,306 0,474.988 137.012,612 306,612 474.988,612 612,474.988 612,306 612,137.012 474.988,0 306,0 Z m 0,535.5 C 179.239,535.5 76.5,432.761 76.5,306 76.5,179.239 179.239,76.5 306,76.5 432.761,76.5 535.5,179.239 535.5,306 535.5,432.761 432.761,535.5 306,535.5 Z m -153,-191.25 306,0 0,-76.5 -306,0 0,76.5 z"
           id="path8"
           inkscape:connector-curvature="0" /></g></g></g><g
     id="g10" /><g
     id="g12" /><g
     id="g14" /><g
     id="g16" /><g
     id="g18" /><g
     id="g20" /><g
     id="g22" /><g
     id="g24" /><g
     id="g26" /><g
     id="g28" /><g
     id="g30" /><g
     id="g32" /><g
     id="g34" /><g
     id="g36" /><g
     id="g38" /><path
     style="fill:#f2f2f2;fill-opacity:1;stroke:#0052bf;stroke-width:0;stroke-miterlimit:4;stroke-dasharray:none;stroke-opacity:0.27000002"
     d="M 151.0898,357.3217 C 102.86572,349.20157 57.994953,320.0379 30.810269,279.14632 -4.1378771,226.57679 -8.395089,156.10948 19.937782,99.179928 42.513291,53.818713 85.457608,19.309968 136.14407,5.8001009 c 22.29411,-5.94222827 65.39335,-5.91987057 88.16949,0.045738 93.25381,24.4253751 150.7766,117.8989811 130.96971,212.8236511 -5.20252,24.9331 -23.85874,61.31543 -41.49274,80.9168 -40.40632,44.91437 -104.265,67.57504 -162.70073,57.73541 z m 56.36783,-45.31469 C 258.1061,301.35365 299.4092,261.47098 311.08328,211.94509 332.864,119.543 256.57592,34.526238 162.48188,46.341105 70.482183,57.892997 17.96303,157.78789 59.928847,241.40374 c 21.877846,43.59104 68.828653,73.18088 117.706743,74.18236 6.41822,0.13147 19.83814,-1.4791 29.82204,-3.57909 z"
     id="path4178"
     inkscape:connector-curvature="0"
     transform="scale(1.6999999,1.6999999)" /><path
     style="fill:#f2f2f2;fill-opacity:1;stroke:#0052bf;stroke-width:0;stroke-miterlimit:4;stroke-dasharray:none;stroke-opacity:0.27000002"
     d="m 89.466102,179.77119 0,-22.04238 89.466098,0 89.46611,0 0,22.04238 0,22.04237 -89.46611,0 -89.466098,0 0,-22.04237 z"
     id="path4180"
     inkscape:connector-curvature="0"
     transform="scale(1.6999999,1.6999999)" /></svg>