<?xml version="1.0" encoding="UTF-8" standalone="no"?>
<!-- Generator: Adobe Illustrator 16.0.0, SVG Export Plug-In . SVG Version: 6.00 Build 0)  -->

<svg
   xmlns:dc="http://purl.org/dc/elements/1.1/"
   xmlns:cc="http://creativecommons.org/ns#"
   xmlns:rdf="http://www.w3.org/1999/02/22-rdf-syntax-ns#"
   xmlns:svg="http://www.w3.org/2000/svg"
   xmlns="http://www.w3.org/2000/svg"
   xmlns:sodipodi="http://sodipodi.sourceforge.net/DTD/sodipodi-0.dtd"
   xmlns:inkscape="http://www.inkscape.org/namespaces/inkscape"
   version="1.1"
   id="Capa_1"
   x="0px"
   y="0px"
   width="360"
   height="360"
   viewBox="0 0 360 360"
   xml:space="preserve"
   inkscape:version="0.91 r13725"
   sodipodi:docname="Rabbit.svg"><metadata
     id="metadata43"><rdf:RDF><cc:Work
         rdf:about=""><dc:format>image/svg+xml</dc:format><dc:type
           rdf:resource="http://purl.org/dc/dcmitype/StillImage" /><dc:title></dc:title></cc:Work></rdf:RDF></metadata><defs
     id="defs41" /><sodipodi:namedview
     pagecolor="#ffffff"
     bordercolor="#666666"
     borderopacity="1"
     objecttolerance="10"
     gridtolerance="10"
     guidetolerance="10"
     inkscape:pageopacity="0"
     inkscape:pageshadow="2"
     inkscape:window-width="1440"
     inkscape:window-height="897"
     id="namedview39"
     showgrid="false"
     inkscape:zoom="0.40487705"
     inkscape:cx="291.44601"
     inkscape:cy="291.4465"
     inkscape:window-x="1912"
     inkscape:window-y="199"
     inkscape:window-maximized="1"
     inkscape:current-layer="Capa_1" /><g
     id="g3"
     style="fill:#f2f2f2"
     transform="matrix(0.60925327,0,0,0.61761157,2.4388425,2.4843438e-4)"><g
       id="g5"
       style="fill:#f2f2f2"><path
         d="m 526.834,235.822 c -6.308,-15.153 -11.856,-30.576 -18.748,-45.546 -5.969,-12.966 -15.985,-20.689 -27.282,-27.287 -6.455,-3.766 -13.681,-6.205 -20.563,-8.865 -2.102,-0.812 -3.447,-3.309 -3.007,-5.517 1.126,-5.643 2.379,-11.607 3.187,-17.629 0.489,-3.664 -0.425,-7.495 -0.47,-11.253 -0.061,-5.101 -0.012,-10.204 0.196,-15.3 0.363,-8.829 -1.918,-17.157 -4.039,-25.614 -1.359,-5.423 -0.367,-11.478 -1.959,-16.789 -1.652,-5.521 0.322,-12.212 -4.961,-16.614 -0.118,-0.098 -0.184,-0.343 -0.167,-0.51 0.844,-8.576 -5.484,-14.574 -8.373,-21.714 -2.933,-7.246 -7.752,-14.157 -15.879,-17.617 -2.881,-1.225 -5.516,-3.023 -8.482,-4.974 -1.881,-1.24 -4.007,-0.466 -4.745,1.664 -2.546,7.364 -5.116,14.035 -6.622,20.935 -1.488,6.847 -5.111,13.048 -3.998,20.898 0.8,5.618 -2.685,11.771 -3.88,17.764 -0.633,3.17 -0.963,6.397 -1.302,9.649 -0.232,2.24 -1.656,2.685 -3.06,0.918 C 389.314,68.178 386.352,63.914 382.3,61.417 375.323,57.121 370.138,50.728 363.304,46.672 352.63,40.34 341.785,33.755 330.166,29.716 c -11.519,-4.007 -24.027,-5.463 -36.23,-7.047 -3.212,-0.416 -6.643,0.845 -10.507,2.049 -2.15,0.669 -3.076,2.713 -2.036,4.712 3.594,6.908 6.817,13.358 10.457,19.563 6.027,10.278 12.286,20.433 18.813,30.4 3.701,5.651 8.192,10.779 12.232,16.214 4.153,5.594 7.988,11.437 12.342,16.867 3.015,3.758 6.744,6.936 10.017,10.497 3.606,3.926 7.299,7.802 10.526,12.028 8.841,11.579 12.276,25.182 14.116,39.319 0.069,0.538 0.151,1.117 0.396,1.591 4.636,8.895 -0.236,14.582 -6.527,19.935 -0.886,0.755 -0.959,2.444 -1.453,3.685 -0.844,2.113 -1.313,4.533 -2.66,6.259 -4.174,5.332 -4.953,11.493 -5.471,17.911 -0.322,3.978 -1.502,7.874 -2.068,11.844 -0.09,0.637 -0.041,1.294 0.053,1.901 0.159,1.041 -0.534,3.477 -1.469,5.528 -3.473,7.634 -5.899,16.026 -13.064,21.172 -1.832,1.313 -2.35,1.921 -0.91,1.75 1.44,-0.171 2.641,-0.18 2.686,-0.021 0.045,0.159 -1.637,0.926 -3.746,1.714 -0.318,0.118 -0.641,0.236 -0.963,0.358 -2.113,0.788 -2.848,1.689 -1.644,2.016 1.203,0.327 0.461,1.2 -1.665,1.955 -1.889,0.669 -3.709,1.313 -5.569,1.975 -2.126,0.75 -3.035,1.767 -2.036,2.264 1,0.498 0.245,1.294 -1.681,1.779 -1.926,0.485 -3.272,1.375 -3.003,1.979 0.27,0.604 -1.306,1.444 -3.509,1.91 -3.966,0.836 -7.939,1.701 -11.963,2.068 -1.301,0.118 -2.7,-0.086 -4.08,-0.478 -2.166,-0.616 -5.605,-1.624 -7.858,-1.575 -13.17,0.282 -35.672,4.391 -44.778,6.148 -2.211,0.429 -5.818,0.979 -8.062,1.212 -3.052,0.314 -6.308,0.649 -9.666,0.996 -2.24,0.232 -3.77,0.689 -3.411,1.023 0.355,0.335 -1.089,1.184 -3.228,1.897 -9.833,3.288 -19.849,6.634 -29.906,9.996 -2.138,0.714 -3.297,1.611 -2.583,2.003 0.714,0.392 -0.4,1.403 -2.521,2.171 -5.675,2.048 -11.355,3.725 -15.802,7.054 -4.814,3.607 -10.164,6.479 -14.913,10.286 -5.349,4.284 -12.795,5.944 -19.331,8.747 -0.62,0.266 -1.24,0.53 -2.056,0.886 -1.139,0.489 -1.155,1.293 -0.033,1.795 1.122,0.502 0.563,1.999 -1.245,3.346 -3.929,2.922 -7.813,5.814 -11.738,8.735 -1.808,1.347 -2.734,2.746 -2.069,3.129 0.665,0.384 -0.396,1.571 -2.371,2.656 -1.33,0.73 -2.64,1.448 -3.941,2.167 -1.975,1.085 -3.484,2.146 -3.375,2.37 0.114,0.225 1.424,0.188 2.934,-0.086 1.505,-0.273 1.408,0.771 -0.22,2.326 -7.181,6.854 -14.125,13.492 -21.094,20.106 -0.718,0.681 -1.481,1.313 -2.436,2.101 -1.375,1.131 -1.008,1.648 0.808,1.146 1.816,-0.497 2.272,0.62 1.044,2.51 -3.472,5.32 -6.842,10.579 -10.453,15.667 -2.317,3.26 -5.271,6.071 -7.899,9.114 -0.082,0.099 -0.065,0.282 -0.029,0.485 0.045,0.273 0.796,0.359 1.681,0.196 0.885,-0.163 0.526,1.179 -0.8,3.003 -2.199,3.015 -4.345,5.965 -6.679,9.168 -1.326,1.819 -0.947,2.518 0.844,1.555 1.792,-0.963 2.518,-0.062 1.559,1.979 -3.537,7.52 -7.226,14.052 -7.789,21.93 -0.277,3.88 -2.317,7.63 -4.304,11.824 -0.963,2.036 -0.853,3.162 0.126,2.46 0.979,-0.702 1.469,0.534 1.085,2.754 -1.812,10.457 -3.578,20.669 -5.328,30.768 -0.384,2.22 -0.106,3.773 0.624,3.468 0.73,-0.305 0.812,1.199 0.184,3.366 -0.498,1.709 -0.979,3.361 -1.457,5.015 -0.628,2.162 -0.481,3.745 0.322,3.533 0.808,-0.213 0.795,1.334 0.404,3.554 -1.02,5.797 -0.355,11.938 -4.602,16.703 -1.498,1.681 -2.236,2.628 -1.159,2.628 1.077,0 0.877,1.48 -0.441,3.312 -0.359,0.498 -0.714,0.995 -1.081,1.501 -1.318,1.828 -1.665,3.068 -0.779,2.763 0.886,-0.305 1.677,-0.44 1.767,-0.306 0.062,0.089 0.11,0.175 0.114,0.261 0.029,0.538 0.057,1.085 -0.004,1.615 -1.134,9.771 2.023,17.349 11.33,21.555 6.749,3.052 11.62,9.915 20.433,9.078 2.762,-0.261 5.822,2.709 8.764,4.158 0.114,0.057 0.286,0.004 0.469,-0.07 0.253,-0.098 0.265,-0.628 0.029,-1.187 -0.237,-0.56 1.358,-0.641 3.566,-0.176 1.583,0.335 3.17,0.669 4.773,1.008 2.208,0.465 3.705,0.229 3.354,-0.526 -0.351,-0.751 1.061,-0.673 3.199,0.033 18.458,6.091 37.271,3.562 55.928,3.912 2.252,0.041 3.832,-0.229 3.534,-0.661 -0.302,-0.437 1.285,-0.787 3.542,-0.783 6.417,0.013 12.889,0.037 19.355,-0.032 3.007,-0.033 6.03,-0.217 9.008,-0.62 6.626,-0.894 13.244,-1.849 19.829,-2.991 7.222,-1.252 14.517,1.604 21.962,-2.746 4.357,-2.545 8.319,-4.476 9.854,-7.833 0.934,-2.048 2.415,-4.423 4.61,-4.941 4.08,-0.967 7.936,-1.848 11.706,-3.007 5.283,-1.623 9.849,-3.541 10.967,-10.521 0.792,-4.958 0.396,-9.507 -4.1,-12.146 -0.441,-0.257 -0.682,-0.849 -0.849,-1.469 -0.245,-0.927 -2.211,-1.849 -4.456,-2.036 -0.498,-0.041 -1.008,-0.086 -1.53,-0.131 -2.244,-0.188 -3.125,-1.905 -1.962,-3.839 0.673,-1.118 1.302,-2.162 1.905,-3.17 1.163,-1.93 2.375,-3.35 2.709,-3.175 0.334,0.176 0.702,1.657 0.816,3.31 0.114,1.653 1.02,1.362 2.016,-0.661 0.489,-0.991 0.958,-1.942 1.412,-2.868 0.996,-2.02 2.048,-3.574 2.346,-3.469 0.298,0.106 0.673,1.506 0.833,3.117 0.159,1.612 0.967,1.225 1.808,-0.869 0.269,-0.673 0.539,-1.342 0.812,-2.027 0.836,-2.093 1.636,-2.276 1.787,-0.416 0.151,1.86 0.71,1.583 1.64,-0.474 1.856,-4.101 4.762,-7.188 9.323,-9.127 6.304,-2.676 12.371,-5.916 18.675,-8.604 1.061,-0.453 3.337,0.2 4.104,1.126 3.08,3.705 5.699,7.789 8.666,11.6 3.112,4.003 6.344,7.919 9.673,11.742 4.239,4.863 8.63,9.592 12.946,14.39 0.245,0.273 0.461,0.567 0.686,0.882 0.354,0.506 0.967,0.399 1.362,-0.229 0.395,-0.628 1.457,0.53 2.375,2.591 0.322,0.722 0.648,1.456 0.983,2.216 0.913,2.06 1.827,2.599 2.035,1.203 0.208,-1.396 1.412,-1.024 2.685,0.832 3.396,4.953 6.684,9.752 9.891,14.427 1.272,1.861 2.305,2.203 2.305,0.771 0,-1.432 1.024,-1.077 2.285,0.787 1.885,2.787 3.676,5.431 5.59,8.258 1.265,1.865 2.093,1.946 1.86,0.18 -0.236,-1.767 -0.139,-3.406 0.212,-3.659 0.351,-0.257 1.714,1.012 3.04,2.831 0.755,1.032 1.505,2.064 2.256,3.097 1.326,1.82 2.844,2.844 3.293,2.216 0.465,-0.648 0.51,-0.959 0.53,-1.27 0.012,-0.171 -0.139,-0.354 -0.123,-0.525 0.005,-0.065 0.09,-0.119 0.241,-0.221 0.15,-0.102 1.75,0.877 3.578,2.195 1.248,0.897 2.514,1.815 3.818,2.754 1.828,1.317 3.224,1.562 3.117,0.551 -0.105,-1.012 1.498,-1.135 3.562,-0.232 1.782,0.779 3.479,1.469 5.242,1.746 4.517,0.718 9.393,-0.147 13.705,1.089 8.629,2.469 15.851,-1.326 21.596,-5.899 3.603,-2.868 6.98,-3.644 10.901,-3.998 2.244,-0.204 5.397,-1.53 7.034,-3.081 2.244,-2.13 4.545,-4.316 6.72,-6.377 1.632,-1.55 2.179,-4.459 1.167,-6.475 -2.525,-5.035 -5.292,-9.417 -10.698,-11.021 -2.158,-0.641 -3.178,-1.338 -2.142,-2.207 1.036,-0.869 0.049,-1.575 -2.203,-1.575 -0.629,0 -1.236,0 -1.828,0 -2.252,0 -4.08,-0.114 -4.084,-0.257 -0.004,-0.143 0.881,-0.494 1.982,-0.787 1.102,-0.294 0.339,-1.302 -1.705,-2.252 -0.612,-0.282 -1.212,-0.563 -1.812,-0.841 -2.044,-0.946 -2.905,-1.909 -1.922,-2.142 0.983,-0.237 0.172,-1.298 -1.812,-2.371 -3.741,-2.031 -7.495,-4.08 -11.293,-6.055 -0.8,-0.416 -1.661,-0.714 -2.677,-1.04 -1.514,-0.485 -1.778,-1.175 -0.6,-1.522 1.179,-0.343 1.085,-1.122 -0.204,-1.737 -1.289,-0.616 -1.102,-1.31 0.424,-1.547 1.526,-0.236 1.073,-1.126 -1.007,-1.987 -1.751,-0.722 -3.489,-1.439 -5.149,-2.125 -2.081,-0.861 -3.044,-2.534 -2.081,-3.676 0.865,-1.028 1.498,-1.808 1.318,-2.273 -0.481,-1.244 -1.176,-2.402 -1.954,-3.59 -1.241,-1.881 -1.629,-3.362 -0.841,-3.329 0.787,0.032 1.138,-0.897 0.791,-2.077 -0.212,-0.714 -0.407,-1.428 -0.555,-2.15 -0.897,-4.394 -0.856,-9.232 -2.766,-13.117 -2.611,-5.316 -2.102,-9.433 0.832,-13.121 1.403,-1.763 3.187,-2.407 3.574,-1.808 0.392,0.6 1.403,-0.269 2.256,-1.941 0.856,-1.673 1.759,-2.521 2.016,-1.897 0.257,0.624 1.645,-0.27 3.097,-1.991 1.208,-1.432 2.439,-2.893 3.692,-4.378 1.452,-1.722 2.885,-2.428 3.19,-1.574 0.311,0.853 1.208,-0.168 2.228,-2.18 5.104,-10.094 13.729,-18.106 15.725,-29.62 0.008,-0.049 0.106,-0.086 0.216,-0.118 0.135,-0.041 0.734,0.379 1.335,0.942 0.6,0.562 1.599,-0.734 2.231,-2.897 3.525,-12.117 6.936,-23.852 10.416,-35.813 0.629,-2.163 2.293,-5.341 3.615,-7.165 6.536,-8.979 8.209,-15.063 8.434,-18.649 0.143,-2.248 -1.987,-5.153 -3.187,-7.062 -2.362,-3.762 -1.856,-7.776 -2.163,-11.706 -0.416,-5.271 0.168,-10.62 0.608,-15.862 0.188,-2.244 0.534,-3.958 1.012,-3.741 0.474,0.216 0.457,-1.416 0.498,-3.668 0.167,-9.657 8.706,-12.102 15.973,-15.137 2.081,-0.869 5.316,-2.204 7.3,-2.832 1.252,-0.396 2.436,-0.873 3.354,-1.656 2.591,-2.207 4.488,-5.243 6.617,-7.98 1.946,-2.501 4.293,-4.35 6.879,-6.263 4.419,-3.264 7.598,-8.164 11.539,-12.13 3.271,-3.288 6.658,-6.561 10.42,-9.241 4.79,-3.407 5.814,-9.878 2.436,-15.043 -3.307,-5.088 -6.506,-10.372 -8.828,-15.957 z"
         id="path7"
         style="fill:#f2f2f2"
         inkscape:connector-curvature="0" /></g></g><g
     id="g9" /><g
     id="g11" /><g
     id="g13" /><g
     id="g15" /><g
     id="g17" /><g
     id="g19" /><g
     id="g21" /><g
     id="g23" /><g
     id="g25" /><g
     id="g27" /><g
     id="g29" /><g
     id="g31" /><g
     id="g33" /><g
     id="g35" /><g
     id="g37" /></svg>