<?xml version="1.0" encoding="UTF-8" standalone="no"?>
<!-- Generator: Adobe Illustrator 16.0.0, SVG Export Plug-In . SVG Version: 6.00 Build 0)  -->

<svg
   xmlns:dc="http://purl.org/dc/elements/1.1/"
   xmlns:cc="http://creativecommons.org/ns#"
   xmlns:rdf="http://www.w3.org/1999/02/22-rdf-syntax-ns#"
   xmlns:svg="http://www.w3.org/2000/svg"
   xmlns="http://www.w3.org/2000/svg"
   xmlns:sodipodi="http://sodipodi.sourceforge.net/DTD/sodipodi-0.dtd"
   xmlns:inkscape="http://www.inkscape.org/namespaces/inkscape"
   version="1.1"
   id="Capa_1"
   x="0px"
   y="0px"
   width="360"
   height="360"
   viewBox="0 0 360 360"
   xml:space="preserve"
   inkscape:version="0.91 r13725"
   sodipodi:docname="Report.svg"><metadata
     id="metadata49"><rdf:RDF><cc:Work
         rdf:about=""><dc:format>image/svg+xml</dc:format><dc:type
           rdf:resource="http://purl.org/dc/dcmitype/StillImage" /><dc:title /></cc:Work></rdf:RDF></metadata><defs
     id="defs47" /><sodipodi:namedview
     pagecolor="#ffffff"
     bordercolor="#666666"
     borderopacity="1"
     objecttolerance="10"
     gridtolerance="10"
     guidetolerance="10"
     inkscape:pageopacity="0"
     inkscape:pageshadow="2"
     inkscape:window-width="1920"
     inkscape:window-height="1017"
     id="namedview45"
     showgrid="false"
     inkscape:zoom="0.58432473"
     inkscape:cx="-398.75088"
     inkscape:cy="201.9425"
     inkscape:window-x="-8"
     inkscape:window-y="-8"
     inkscape:window-maximized="1"
     inkscape:current-layer="Capa_1" /><g
     id="g3"
     transform="matrix(0.93599499,0,0,0.8913401,-9.0171218,2.123714e-4)"
     style="fill:#f2f2f2"><g
       id="g5"
       style="fill:#f2f2f2"><g
         id="g7"
         style="fill:#f2f2f2"><path
           d="m 344.985,101.217 -95.149,0 0,-95.148 c 0,-3.229 -2.615,-5.845 -5.846,-5.845 l -185.775,0 c -3.23,0 -5.846,2.616 -5.846,5.845 l 0,391.971 c 0,3.229 2.615,5.846 5.846,5.846 l 286.77,0 c 3.229,0 5.843,-2.616 5.843,-5.846 l 0,-290.979 c 0,-3.227 -2.614,-5.844 -5.843,-5.844 z m -66.636,230.044 c 0,4.283 -3.475,7.759 -7.76,7.759 l -137.98,0 c -4.282,0 -7.757,-3.476 -7.757,-7.759 l 0,-16.007 c 0,-4.286 3.475,-7.759 7.757,-7.759 l 137.98,0 c 4.285,0 7.76,3.473 7.76,7.759 l 0,16.007 z m 0,-68.329 c 0,4.282 -3.475,7.758 -7.76,7.758 l -137.98,0 c -4.282,0 -7.757,-3.476 -7.757,-7.758 l 0,-16.009 c 0,-4.285 3.475,-7.758 7.757,-7.758 l 137.98,0 c 4.285,0 7.76,3.473 7.76,7.758 l 0,16.009 z m 0,-68.33 c 0,4.283 -3.475,7.757 -7.76,7.757 l -137.98,0 c -4.282,0 -7.757,-3.474 -7.757,-7.757 l 0,-16.008 c 0,-4.285 3.475,-7.758 7.757,-7.758 l 137.98,0 c 4.285,0 7.76,3.473 7.76,7.758 l 0,16.008 z"
           id="path9"
           inkscape:connector-curvature="0"
           style="fill:#f2f2f2" /></g><g
         id="g11"
         style="fill:#f2f2f2"><path
           d="m 289.206,1.442 c -1.41,-1.41 -3.532,-1.828 -5.373,-1.068 -1.842,0.764 -3.041,2.561 -3.041,4.555 l 0,60.865 c 0,2.724 2.205,4.93 4.93,4.93 l 60.863,0 c 1.995,0 3.791,-1.201 4.554,-3.043 0.765,-1.842 0.344,-3.963 -1.068,-5.373 L 289.206,1.442 Z"
           id="path13"
           inkscape:connector-curvature="0"
           style="fill:#f2f2f2" /></g></g></g><g
     id="g15"
     transform="matrix(1.2034221,0,0,0.8913401,-63.022014,2.1111936e-4)" /><g
     id="g17"
     transform="matrix(1.2034221,0,0,0.8913401,-63.022014,2.1111936e-4)" /><g
     id="g19"
     transform="matrix(1.2034221,0,0,0.8913401,-63.022014,2.1111936e-4)" /><g
     id="g21"
     transform="matrix(1.2034221,0,0,0.8913401,-63.022014,2.1111936e-4)" /><g
     id="g23"
     transform="matrix(1.2034221,0,0,0.8913401,-63.022014,2.1111936e-4)" /><g
     id="g25"
     transform="matrix(1.2034221,0,0,0.8913401,-63.022014,2.1111936e-4)" /><g
     id="g27"
     transform="matrix(1.2034221,0,0,0.8913401,-63.022014,2.1111936e-4)" /><g
     id="g29"
     transform="matrix(1.2034221,0,0,0.8913401,-63.022014,2.1111936e-4)" /><g
     id="g31"
     transform="matrix(1.2034221,0,0,0.8913401,-63.022014,2.1111936e-4)" /><g
     id="g33"
     transform="matrix(1.2034221,0,0,0.8913401,-63.022014,2.1111936e-4)" /><g
     id="g35"
     transform="matrix(1.2034221,0,0,0.8913401,-63.022014,2.1111936e-4)" /><g
     id="g37"
     transform="matrix(1.2034221,0,0,0.8913401,-63.022014,2.1111936e-4)" /><g
     id="g39"
     transform="matrix(1.2034221,0,0,0.8913401,-63.022014,2.1111936e-4)" /><g
     id="g41"
     transform="matrix(1.2034221,0,0,0.8913401,-63.022014,2.1111936e-4)" /><g
     id="g43"
     transform="matrix(1.2034221,0,0,0.8913401,-63.022014,2.1111936e-4)" /></svg>