<?xml version="1.0" encoding="UTF-8" standalone="no"?>
<!-- Generator: Adobe Illustrator 18.1.1, SVG Export Plug-In . SVG Version: 6.00 Build 0)  -->

<svg
   xmlns:dc="http://purl.org/dc/elements/1.1/"
   xmlns:cc="http://creativecommons.org/ns#"
   xmlns:rdf="http://www.w3.org/1999/02/22-rdf-syntax-ns#"
   xmlns:svg="http://www.w3.org/2000/svg"
   xmlns="http://www.w3.org/2000/svg"
   xmlns:sodipodi="http://sodipodi.sourceforge.net/DTD/sodipodi-0.dtd"
   xmlns:inkscape="http://www.inkscape.org/namespaces/inkscape"
   version="1.1"
   id="Capa_1"
   x="0px"
   y="0px"
   viewBox="0 0 360 360"
   xml:space="preserve"
   inkscape:version="0.91 r13725"
   sodipodi:docname="Restart.svg"
   width="360"
   height="360"><metadata
     id="metadata45"><rdf:RDF><cc:Work
         rdf:about=""><dc:format>image/svg+xml</dc:format><dc:type
           rdf:resource="http://purl.org/dc/dcmitype/StillImage" /><dc:title></dc:title></cc:Work></rdf:RDF></metadata><defs
     id="defs43" /><sodipodi:namedview
     pagecolor="#ffffff"
     bordercolor="#666666"
     borderopacity="1"
     objecttolerance="10"
     gridtolerance="10"
     guidetolerance="10"
     inkscape:pageopacity="0"
     inkscape:pageshadow="2"
     inkscape:window-width="1440"
     inkscape:window-height="897"
     id="namedview41"
     showgrid="false"
     inkscape:zoom="1.4533451"
     inkscape:cx="114.81528"
     inkscape:cy="232.6526"
     inkscape:window-x="1912"
     inkscape:window-y="199"
     inkscape:window-maximized="1"
     inkscape:current-layer="Capa_1" /><g
     id="g3"
     style="fill:#f2f2f2"
     transform="matrix(19.570535,0,0,17.735506,-18.63115,0.00469663)"><g
       id="g5"
       style="fill:#f2f2f2"><g
         id="g7"
         style="fill:#f2f2f2"><path
           style="fill:#f2f2f2"
           d="m 0.952,11.102 c 0,-0.264 0.213,-0.474 0.475,-0.474 l 2.421,0 c 0.262,0 0.475,0.21 0.475,0.474 0,3.211 2.615,5.826 5.827,5.826 3.212,0 5.827,-2.615 5.827,-5.826 0,-3.214 -2.614,-5.826 -5.827,-5.826 -0.34,0 -0.68,0.028 -1.016,0.089 l 0,1.647 C 9.134,7.205 9.018,7.379 8.843,7.451 8.662,7.524 8.46,7.482 8.322,7.347 L 3.49,4.074 C 3.306,3.889 3.306,3.592 3.49,3.407 L 8.323,0.139 C 8.459,0.003 8.661,-0.037 8.842,0.035 9.017,0.109 9.133,0.281 9.133,0.473 l 0,1.487 c 0.34,-0.038 0.68,-0.057 1.016,-0.057 5.071,0 9.198,4.127 9.198,9.198 0,5.07 -4.127,9.197 -9.198,9.197 -5.07,0.001 -9.197,-4.126 -9.197,-9.196 z"
           id="path9"
           inkscape:connector-curvature="0" /></g></g></g><g
     id="g11" /><g
     id="g13" /><g
     id="g15" /><g
     id="g17" /><g
     id="g19" /><g
     id="g21" /><g
     id="g23" /><g
     id="g25" /><g
     id="g27" /><g
     id="g29" /><g
     id="g31" /><g
     id="g33" /><g
     id="g35" /><g
     id="g37" /><g
     id="g39" /></svg>