<?xml version="1.0" encoding="UTF-8" standalone="no"?>
<!-- Generator: Adobe Illustrator 16.0.0, SVG Export Plug-In . SVG Version: 6.00 Build 0)  -->

<svg
   xmlns:dc="http://purl.org/dc/elements/1.1/"
   xmlns:cc="http://creativecommons.org/ns#"
   xmlns:rdf="http://www.w3.org/1999/02/22-rdf-syntax-ns#"
   xmlns:svg="http://www.w3.org/2000/svg"
   xmlns="http://www.w3.org/2000/svg"
   xmlns:sodipodi="http://sodipodi.sourceforge.net/DTD/sodipodi-0.dtd"
   xmlns:inkscape="http://www.inkscape.org/namespaces/inkscape"
   version="1.1"
   id="Capa_1"
   x="0px"
   y="0px"
   width="360"
   height="360"
   viewBox="0 0 938.692 938.692"
   xml:space="preserve"
   inkscape:version="0.91 r13725"
   sodipodi:docname="road.svg"><metadata
     id="metadata43"><rdf:RDF><cc:Work
         rdf:about=""><dc:format>image/svg+xml</dc:format><dc:type
           rdf:resource="http://purl.org/dc/dcmitype/StillImage" /></cc:Work></rdf:RDF></metadata><defs
     id="defs41" /><sodipodi:namedview
     pagecolor="#ffffff"
     bordercolor="#666666"
     borderopacity="1"
     objecttolerance="10"
     gridtolerance="10"
     guidetolerance="10"
     inkscape:pageopacity="0"
     inkscape:pageshadow="2"
     inkscape:window-width="1920"
     inkscape:window-height="1057"
     id="namedview39"
     showgrid="false"
     inkscape:zoom="0.50282735"
     inkscape:cx="-106.39827"
     inkscape:cy="474.20394"
     inkscape:window-x="-8"
     inkscape:window-y="-8"
     inkscape:window-maximized="1"
     inkscape:current-layer="Capa_1" /><g
     id="g3"
     transform="matrix(1.2554486,0,0,0.85899915,-128.86561,0.02073529)"
     style="fill:#f2f2f2"><g
       id="g5"
       style="fill:#f2f2f2"><path
         d="M 689.212,37.158 C 686.63,16.636 669.09,0 650.035,0 L 512.818,0 c 0.003,0.057 0.011,0.113 0.012,0.17 l 3.607,175.708 c 0.104,5.087 -4.073,9.211 -9.334,9.211 l -72.896,0 c -5.259,0 -9.399,-4.124 -9.246,-9.211 L 430.247,0.17 C 430.249,0.113 430.257,0.057 430.26,0 L 295.782,0 C 276.727,0 259.055,16.636 256.313,37.158 L 140.768,901.534 c -2.743,20.521 19.369,37.158 49.39,37.158 l 212.322,0 c -0.273,-0.76 -0.424,-1.553 -0.398,-2.376 l 5.525,-183.663 c 0.153,-5.087 5.853,-9.211 12.729,-9.211 l 95.306,0 c 6.876,0 12.535,4.124 12.641,9.211 l 3.771,183.663 c 0.018,0.823 -0.14,1.617 -0.422,2.376 l 216.636,0 c 30.021,0 52.265,-16.638 49.684,-37.158 L 689.212,37.158 Z m -266.555,215.31 c 0.152,-5.087 4.677,-9.211 10.104,-9.211 l 75.231,0 c 5.428,0 9.913,4.124 10.017,9.211 l 3.608,175.708 c 0.104,5.087 -4.667,9.211 -10.657,9.211 l -83.023,0 c -5.989,0 -10.722,-4.124 -10.568,-9.211 l 5.288,-175.708 z m 92.13,435.012 -93.061,0 c -6.714,0 -12.032,-4.124 -11.88,-9.211 l 5.286,-175.708 c 0.153,-5.088 5.264,-9.211 11.417,-9.211 l 85.269,0 c 6.152,0 11.225,4.123 11.328,9.211 l 3.608,175.708 c 0.105,5.087 -5.253,9.211 -11.967,9.211 z"
         id="path7"
         inkscape:connector-curvature="0"
         style="fill:#f2f2f2" /></g></g><g
     id="g9" /><g
     id="g11" /><g
     id="g13" /><g
     id="g15" /><g
     id="g17" /><g
     id="g19" /><g
     id="g21" /><g
     id="g23" /><g
     id="g25" /><g
     id="g27" /><g
     id="g29" /><g
     id="g31" /><g
     id="g33" /><g
     id="g35" /><g
     id="g37" /></svg>