<?xml version="1.0" encoding="UTF-8" standalone="no"?>
<svg
   xmlns:dc="http://purl.org/dc/elements/1.1/"
   xmlns:cc="http://creativecommons.org/ns#"
   xmlns:rdf="http://www.w3.org/1999/02/22-rdf-syntax-ns#"
   xmlns:svg="http://www.w3.org/2000/svg"
   xmlns="http://www.w3.org/2000/svg"
   xmlns:xlink="http://www.w3.org/1999/xlink"
   xmlns:sodipodi="http://sodipodi.sourceforge.net/DTD/sodipodi-0.dtd"
   xmlns:inkscape="http://www.inkscape.org/namespaces/inkscape"
   version="1.0"
   width="600.000000pt"
   height="212.000000pt"
   viewBox="0 0 600.000000 212.000000"
   preserveAspectRatio="xMidYMid meet"
   id="svg2"
   inkscape:version="0.91 r13725"
   sodipodi:docname="BusImage.svg">
  <defs
     id="defs12">
    <linearGradient
       inkscape:collect="always"
       id="linearGradient6000">
      <stop
         style="stop-color:#f2f2f2;stop-opacity:1;"
         offset="0"
         id="stop6002" />
      <stop
         style="stop-color:#838383;stop-opacity:0"
         offset="1"
         id="stop6004" />
    </linearGradient>
    <linearGradient
       inkscape:collect="always"
       xlink:href="#linearGradient6000"
       id="linearGradient6006"
       x1="165.66096"
       y1="59.351913"
       x2="96.159523"
       y2="192.64233"
       gradientUnits="userSpaceOnUse" />
  </defs>
  <sodipodi:namedview
     pagecolor="#ffffff"
     bordercolor="#666666"
     borderopacity="1"
     objecttolerance="10"
     gridtolerance="10"
     guidetolerance="10"
     inkscape:pageopacity="0"
     inkscape:pageshadow="2"
     inkscape:window-width="1440"
     inkscape:window-height="897"
     id="namedview10"
     showgrid="false"
     inkscape:zoom="0.74270112"
     inkscape:cx="375.09607"
     inkscape:cy="199.52941"
     inkscape:window-x="1912"
     inkscape:window-y="199"
     inkscape:window-maximized="1"
     inkscape:current-layer="svg2" />
  <metadata
     id="metadata4">
Created by potrace 1.12, written by Peter Selinger 2001-2015
<rdf:RDF>
  <cc:Work
     rdf:about="">
    <dc:format>image/svg+xml</dc:format>
    <dc:type
       rdf:resource="http://purl.org/dc/dcmitype/StillImage" />
  </cc:Work>
</rdf:RDF>
</metadata>
  <path
     inkscape:connector-curvature="0"
     style="fill:#000080;fill-opacity:1;stroke:#000000;stroke-width:0.08;stroke-miterlimit:4;stroke-dasharray:none;stroke-opacity:1"
     id="path8"
     d="m 111.3,2.4 c -1.1,1.3 -2.5,4.9 -3.3,7.9 l -1.3,5.5 -30.1,0.6 c -16.5,0.3 -31.4,0.5 -33.1,0.5 -4.3,0 -16.1,3 -22,5.6 -5.9,2.6 -11,6.7 -13,10.5 -1.8,3.5 -4.2,13.8 -6.3,27.5 -2.4,16.1 -2.4,75.2 0.1,91 3.9,24.7 5.6,29.2 12.8,34.5 10.6,7.6 25.5,9.8 67,9.9 l 24.6,0.1 1.2,5.4 c 1.6,7.4 4.3,10.6 8.7,10.6 4,0 4.2,-1.2 1.9,-10 -0.8,-3 -1.5,-5.6 -1.5,-5.8 0,-0.1 103.5,-0.2 230.1,-0.2 164.5,0 231.3,-0.3 234.4,-1.1 6.2,-1.6 12,-6.8 13.9,-12.7 3.5,-11.3 4.1,-21.5 4.1,-75.2 C 599.5,30 598,22.3 581.8,17.5 577.2,16.2 549.8,16 346.8,16 220.4,16 117,15.9 117,15.7 c 0,-0.1 0.7,-2.7 1.5,-5.7 2.3,-8.8 2.1,-10 -1.9,-10 -2.5,0 -4,0.7 -5.3,2.4 z m 4.5,4.5 c -1.1,4.5 -3.8,6.4 -3.8,2.8 0,-2.4 2.5,-6.7 4,-6.7 0.4,0 0.3,1.8 -0.2,3.9 z m -5.4,13.6 c 0.3,0.8 0.1,1.5 -0.4,1.5 -0.6,0 -1,-0.7 -1,-1.5 0,-0.8 0.2,-1.5 0.4,-1.5 0.2,0 0.6,0.7 1,1.5 z m 15.4,-0.8 c -1,0.2 -2.8,0.2 -4,0 -1.3,-0.2 -0.5,-0.4 1.7,-0.4 2.2,-0.1 3.2,0.1 2.3,0.4 z m -9.8,0.7 c 0,0.3 -0.4,0.8 -1,1.1 -0.5,0.3 -1,0.1 -1,-0.4 0,-0.6 0.5,-1.1 1,-1.1 0.6,0 1,0.2 1,0.4 z m 27.8,0.3 c -1.6,0.2 -4,0.2 -5.5,0 -1.6,-0.2 -0.3,-0.4 2.7,-0.4 3,0 4.3,0.2 2.8,0.4 z M 584,22.2 c 2.4,1.3 5,3.3 5.8,4.5 l 1.4,2.3 -8.6,0 c -8.3,0 -8.6,-0.1 -8.6,-2.3 0,-4.4 1.2,-6.7 3.4,-6.7 1.2,0 4.2,1 6.6,2.2 z M 163.8,21.7 c -1.6,0.2 -4,0.2 -5.5,0 -1.6,-0.2 -0.3,-0.4 2.7,-0.4 3,0 4.3,0.2 2.8,0.4 z m 85.3,0.5 c 0,1 0.2,1 0.6,0 0.3,-0.9 5.3,-1.1 20.6,-1 l 20.2,0.3 -19.7,0.2 -19.8,0.3 0,8 c 0,6.6 -0.2,7.8 -1.5,7.4 -1.1,-0.5 -1.5,-2.4 -1.5,-8 l 0,-7.3 -8.7,-0.4 -8.8,-0.3 9.3,-0.2 c 6.8,-0.1 9.2,0.1 9.3,1 z M 374,24.9 c 1.1,4.1 0.4,11.7 -1.1,12.7 -0.5,0.3 -0.9,-3.1 -0.9,-7.5 l 0,-8.1 -20.7,0 c -16.1,0 -20.4,0.3 -19.5,1.2 1.8,1.8 1.5,12.3 -0.3,13.8 -1.3,1.1 -1.5,0.2 -1.5,-6.9 l 0,-8.1 -19.2,-0.3 c -10.6,-0.1 -1,-0.3 21.4,-0.5 l 40.7,-0.2 1.1,3.9 z m 40.6,-2.2 c 1.8,2.4 1.8,11.4 -0.1,13.9 -1.3,1.7 -1.4,1.1 -1.5,-6.3 l 0,-8.3 -19.7,-0.3 -19.8,-0.2 19.9,-0.3 c 17.9,-0.2 20,0 21.2,1.5 z m 40.5,-0.5 c 0,1 0.2,1 0.6,0 0.4,-0.9 9.4,-1.1 41.1,-1 l 40.7,0.3 -40.2,0.2 -40.3,0.3 0,7.4 c 0,5.6 -0.4,7.5 -1.5,8 -1.3,0.4 -1.5,-0.8 -1.5,-7.4 l 0,-8 -19.7,-0.3 -19.8,-0.2 20.3,-0.3 c 15.6,-0.1 20.2,0.1 20.3,1 z m -302.3,3.7 c 0.6,1.4 1.3,3.4 1.7,4.3 0.5,1.3 0.2,1.5 -1.4,1.1 -1.2,-0.3 -2.1,-0.1 -2.1,0.6 0,1.8 -1.6,1.2 -1.6,-0.7 -0.1,-0.9 -0.8,-3.3 -1.7,-5.3 l -1.6,-3.5 2.9,0.4 c 2,0.3 3.2,1.2 3.8,3.1 z m 30,-3.2 c -1.6,0.2 -4,0.2 -5.5,0 -1.6,-0.2 -0.3,-0.4 2.7,-0.4 3,0 4.3,0.2 2.8,0.4 z m -47.4,1 c 5.2,0.4 8,1.1 8.3,2 0.3,0.8 0.4,1.6 0.1,1.8 -0.5,0.5 -17.4,-2 -22.8,-3.4 -3.4,-0.9 -3.4,-0.9 1.6,-1 2.8,-0.1 8.6,0.2 12.8,0.6 z m 60.9,0 c -0.7,0.2 -1.9,0.2 -2.5,0 -0.7,-0.3 -0.2,-0.5 1.2,-0.5 1.4,0 1.9,0.2 1.3,0.5 z m 96.1,2.8 c 0.8,3.8 -0.2,10.5 -1.4,10.5 -1.2,0 -2,-2.8 -2,-7 0,-7.2 2.3,-9.5 3.4,-3.5 z M 36.7,24.6 c -0.3,0.3 -1.2,0.4 -1.9,0.1 -0.8,-0.3 -0.5,-0.6 0.6,-0.6 1.1,-0.1 1.7,0.2 1.3,0.5 z m 166,0 c -0.3,0.3 -1.2,0.4 -1.9,0.1 -0.8,-0.3 -0.5,-0.6 0.6,-0.6 1.1,-0.1 1.7,0.2 1.3,0.5 z M 21.7,29 C 16.6,34.6 13.3,41.6 12,49.6 11.3,53.4 10,59.9 9,64 5.8,77 5,85.3 5,105.7 c 0,20.6 0.8,28.4 3.9,41.8 1.1,4.4 2.4,11 2.9,14.7 1.2,8.3 4.3,14.9 9.5,20.5 4.6,5.1 3.9,5.4 -2.6,1.3 C 11,179.1 9.3,174.8 5.3,149.5 2.8,133.8 2.8,78.5 5.2,62.5 9,37.9 11,32.9 18.7,28 c 6.4,-4.1 7.2,-3.8 3,1 z m 21.4,-2.3 c 1.3,1.6 1.2,1.7 -0.3,0.4 -1,-0.7 -1.8,-1.5 -1.8,-1.7 0,-0.8 0.8,-0.3 2.1,1.3 z m 138,-0.8 c 27.4,1.7 31.4,5.1 6,5.1 -23.4,0 -28.6,-0.6 -30,-3.6 -1,-2.4 -1,-2.4 4.2,-2.4 2.8,0 11.8,0.5 19.8,0.9 z m 63.9,4.1 0,5 -6.4,0 c -4.9,0 -6.9,-0.5 -9,-2.1 -3.1,-2.5 -3.2,-3.3 -0.6,-5.9 1.6,-1.6 3.3,-2 9,-2 l 7,0 0,5 z m 41,0 0,5 -16,0 -16,0 0,-5 0,-5 16,0 16,0 0,5 z m 41,0 0,5 -15.5,0 -15.5,0 0,-5 0,-5 15.5,0 15.5,0 0,5 z m 41.2,0 0.3,5 -16.2,0 -16.3,0 0,-5 0,-5 15.9,0 15.9,0 0.4,5 z m 41.8,0 0,5 -16,0 -16,0 0,-5 0,-5 16,0 16,0 0,5 z m 41,0 0,5 -16,0 -16,0 0,-5 0,-5 16,0 16,0 0,5 z m 88,-3 c 2.6,2.6 2.5,3.4 -0.6,5.9 -2.6,2 -3.7,2.1 -40.5,2.1 l -37.9,0 0,-5 0,-5 38.5,0 c 37.2,0 38.6,0.1 40.5,2 z M 39.8,29.2 c 3.2,3.2 0.5,10.7 -5.7,15.9 -5.2,4.5 -15,10.3 -15.8,9.5 -1,-0.9 2.6,-11.5 5.3,-15.6 3.6,-5.5 4.7,-6.6 8.4,-8.9 4,-2.4 6.1,-2.6 7.8,-0.9 z m 4.9,2 c -0.3,0.8 -0.6,0.5 -0.6,-0.6 -0.1,-1.1 0.2,-1.7 0.5,-1.3 0.3,0.3 0.4,1.2 0.1,1.9 z m 78.8,2.4 c 10.5,1.9 20.1,3.7 21.4,4 2.7,0.6 2.7,-2.3 -0.5,27.4 -2.6,23 -2.3,60.6 0.5,87.4 2.4,22.5 2.4,22.6 -2.7,22.6 -1.3,0 -10.2,1.6 -19.8,3.5 -25.9,5.2 -37.5,4.6 -41.9,-2.1 -0.8,-1.3 -2.6,-6.6 -4,-11.7 -9.2,-35 -9.6,-75.3 -1,-112.9 3.8,-16.9 6,-20.1 14.8,-21.7 6,-1 11.7,-0.4 33.2,3.5 z m 7.2,-4 c -0.3,0.3 -1.2,0.4 -1.9,0.1 -0.8,-0.3 -0.5,-0.6 0.6,-0.6 1.1,-0.1 1.7,0.2 1.3,0.5 z m 7,1 c -0.3,0.3 -1.2,0.4 -1.9,0.1 -0.8,-0.3 -0.5,-0.6 0.6,-0.6 1.1,-0.1 1.7,0.2 1.3,0.5 z M 25,31.4 c 0,0.2 -0.8,1 -1.7,1.7 -1.6,1.3 -1.7,1.2 -0.4,-0.4 1.3,-1.6 2.1,-2.1 2.1,-1.3 z m 120.3,0.3 c -0.7,0.2 -1.9,0.2 -2.5,0 -0.7,-0.3 -0.2,-0.5 1.2,-0.5 1.4,0 1.9,0.2 1.3,0.5 z m 17.5,2 c -1,0.2 -2.8,0.2 -4,0 -1.3,-0.2 -0.5,-0.4 1.7,-0.4 2.2,-0.1 3.2,0.1 2.3,0.4 z m 32.4,1 c -4,0.2 -10.3,0.2 -14,0 -3.7,-0.2 -0.4,-0.3 7.3,-0.3 7.7,0 10.7,0.2 6.7,0.3 z M 44.7,37.2 c -0.3,0.8 -0.6,0.5 -0.6,-0.6 -0.1,-1.1 0.2,-1.7 0.5,-1.3 0.3,0.3 0.4,1.2 0.1,1.9 z m 184.8,0.6 c -0.3,0.3 -1.1,0 -1.8,-0.7 -0.9,-1 -0.8,-1.1 0.6,-0.5 1,0.3 1.5,0.9 1.2,1.2 z m 311,-0.8 c -0.3,0.5 -1.2,1 -1.8,1 -0.7,0 -0.6,-0.4 0.3,-1 1.9,-1.2 2.3,-1.2 1.5,0 z M 43.1,41.3 c -1,0.9 -1.1,0.8 -0.5,-0.6 0.3,-1 0.9,-1.5 1.2,-1.2 0.3,0.3 0,1.1 -0.7,1.8 z m 519.5,1.5 c 2.4,1.6 3.3,5.5 4.4,18.8 2.1,27.4 2.3,55.6 0.6,79.6 -0.9,12.5 -2.1,23.9 -2.8,25.3 -2,4.5 -9.7,4.9 -10.8,0.5 -0.3,-1.4 -0.2,-7.7 0.3,-14 1.1,-15.2 1.1,-77.2 0,-92.8 -0.5,-6.8 -0.7,-13.6 -0.5,-15.3 0.4,-2.6 0.8,-2.9 4.1,-2.9 2,0 4.1,0.4 4.7,0.8 z M 41,44.3 c 0,0.2 -1.2,1.4 -2.7,2.8 l -2.8,2.4 2.4,-2.8 C 40.2,44.2 41,43.5 41,44.3 Z M 14.7,55.2 c -0.3,0.8 -0.6,0.5 -0.6,-0.6 -0.1,-1.1 0.2,-1.7 0.5,-1.3 0.3,0.3 0.4,1.2 0.1,1.9 z m -5,49 c -0.3,0.8 -0.6,0.5 -0.6,-0.6 -0.1,-1.1 0.2,-1.7 0.5,-1.3 0.3,0.3 0.4,1.2 0.1,1.9 z m 0,5 c -0.3,0.8 -0.6,0.5 -0.6,-0.6 -0.1,-1.1 0.2,-1.7 0.5,-1.3 0.3,0.3 0.4,1.2 0.1,1.9 z m 5,50 c -0.3,0.8 -0.6,0.5 -0.6,-0.6 -0.1,-1.1 0.2,-1.7 0.5,-1.3 0.3,0.3 0.4,1.2 0.1,1.9 z m 11.4,1.9 C 37,168.1 41,172.9 41,178.8 41,187 30.9,184.5 24.4,174.7 21.9,170.8 18,161 18,158.3 c 0,-2 1.2,-1.6 8.1,2.8 z m 12.9,4.4 c 1.3,1.4 2.1,2.5 1.8,2.5 -0.2,0 -1.5,-1.1 -2.8,-2.5 -1.3,-1.4 -2.1,-2.5 -1.8,-2.5 0.2,0 1.5,1.1 2.8,2.5 z m 4.8,7 c -0.3,0.3 -0.9,-0.2 -1.2,-1.2 -0.6,-1.4 -0.5,-1.5 0.5,-0.6 0.7,0.7 1,1.5 0.7,1.8 z m 204.7,0.5 c 0.5,0.8 1.1,0.8 2,0 0.8,-0.7 7.9,-0.9 20.6,-0.7 l 19.4,0.2 -19.7,0.3 -19.8,0.2 0,8 0,8 19.8,0.3 c 12.1,0.1 8.4,0.3 -9.8,0.3 -16.7,0 -25.4,-0.3 -20,-0.6 5.2,-0.3 8.9,-0.7 8.3,-0.8 -0.9,-0.1 -1.3,-2.5 -1.3,-7.7 l 0,-7.4 -8.2,-0.4 -8.3,-0.3 8.2,-0.2 c 4.8,-0.1 8.4,0.2 8.8,0.8 z m 82.7,0.7 c 2.1,1.9 2.6,12.1 0.6,14.1 -0.9,0.9 3.4,1.2 19.5,1.2 l 20.7,0 0,-8.3 c 0.1,-7.4 0.2,-8 1.5,-6.3 1.7,2.3 2,9.8 0.5,12.7 -1,1.8 -0.5,1.9 19,1.9 l 20,0 0,-8 0,-8 -19.2,-0.2 -19.3,-0.3 18.9,-0.2 c 22.5,-0.4 22.6,-0.3 22.6,8.7 0,3.1 -0.5,6.1 -1.2,6.8 -0.9,0.9 3.3,1.2 19,1.2 l 20.2,0 0,-8 0,-8 -19.7,-0.2 -19.8,-0.3 19,-0.2 c 10.4,-0.2 19.6,0 20.5,0.3 0.8,0.4 1.8,0.6 2.3,0.6 0.4,-0.1 0.7,3.2 0.7,7.3 0,5.2 -0.4,7.6 -1.2,7.7 -0.7,0.2 16.9,0.5 39.2,0.8 22.3,0.3 -14.4,0.5 -81.5,0.5 -67.1,0 -113.3,-0.1 -102.7,-0.2 l 19.2,-0.3 0,-8 0,-8 -19.2,-0.3 -19.3,-0.2 18.9,-0.3 c 16.4,-0.2 19.2,0 20.8,1.5 z m -286.5,2.5 c -0.3,0.8 -0.6,0.5 -0.6,-0.6 -0.1,-1.1 0.2,-1.7 0.5,-1.3 0.3,0.3 0.4,1.2 0.1,1.9 z m 247.7,1.3 c 0.8,3.8 -0.2,10.5 -1.4,10.5 -1.2,0 -2,-2.8 -2,-7 0,-7.2 2.3,-9.5 3.4,-3.5 z m -47.4,3.5 0,5 -7,0 c -5.7,0 -7.4,-0.4 -9,-2 -1.1,-1.1 -2,-2.5 -2,-3 0,-0.6 0.9,-1.9 2,-3 1.6,-1.6 3.3,-2 9,-2 l 7,0 0,5 z m 41,0 0,5 -16,0 -16,0 0,-5 0,-5 16,0 16,0 0,5 z m 41,0 0,5 -15.5,0 -15.5,0 0,-5 0,-5 15.5,0 15.5,0 0,5 z m 41.2,0 0.3,5 -16.2,0 -16.3,0 0,-5 0,-5 15.9,0 15.9,0 0.4,5 z m 41.8,0 0,5 -16,0 -16,0 0,-5 0,-5 16,0 16,0 0,5 z m 41,0 0,5 -16,0 -16,0 0,-5 0,-5 16,0 16,0 0,5 z m 86.2,-3.3 c 2.2,2 2.3,4.1 0.1,6.5 -1.5,1.7 -4.1,1.8 -39.5,1.8 l -37.8,0 0,-5 0,-5 37.7,0 c 33.6,0 37.8,0.2 39.5,1.7 z m 5.6,0.8 c -0.3,0.3 -0.9,-0.2 -1.2,-1.2 -0.6,-1.4 -0.5,-1.5 0.5,-0.6 0.7,0.7 1,1.5 0.7,1.8 z m -347.5,-0.8 c -3.5,0.2 -9.1,0.2 -12.5,0 -3.5,-0.2 -0.7,-0.3 6.2,-0.3 6.9,0 9.7,0.1 6.3,0.3 z m -32.5,1 c -1,0.2 -2.6,0.2 -3.5,0 -1,-0.3 -0.2,-0.5 1.7,-0.5 1.9,0 2.7,0.2 1.8,0.5 z m 45.7,0.3 c 0.3,0.6 -0.1,0.7 -0.9,0.4 -1.8,-0.7 -2.1,-1.4 -0.7,-1.4 0.6,0 1.3,0.4 1.6,1 z m -163.8,3.2 c -0.3,0.8 -0.6,0.5 -0.6,-0.6 -0.1,-1.1 0.2,-1.7 0.5,-1.3 0.3,0.3 0.4,1.2 0.1,1.9 z m 100.6,-1.5 c -0.7,0.2 -1.9,0.2 -2.5,0 -0.7,-0.3 -0.2,-0.5 1.2,-0.5 1.4,0 1.9,0.2 1.3,0.5 z m 9.1,1.3 c -0.3,0.8 -1,2.7 -1.6,4.1 -0.6,1.9 -1.8,2.8 -3.7,3.1 l -2.8,0.4 1.9,-4.5 c 1.5,-3.7 2.3,-4.6 4.3,-4.6 1.9,0 2.4,0.4 1.9,1.5 z m -16.7,-0.4 c -0.3,0.3 -1.2,0.4 -1.9,0.1 -0.8,-0.3 -0.5,-0.6 0.6,-0.6 1.1,-0.1 1.7,0.2 1.3,0.5 z M 204,182 c 0,0.5 -1.8,1.4 -4.1,2 -4.1,1.1 -27.4,2.9 -38.1,3 -5.7,0 -5.8,0 -4.6,-2.5 1.3,-2.9 2.6,-3.1 28.6,-3.3 11.1,-0.1 18.2,0.2 18.2,0.8 z m 338.1,3.3 c -1,0.9 -1.1,0.8 -0.5,-0.6 0.3,-1 0.9,-1.5 1.2,-1.2 0.3,0.3 0,1.1 -0.7,1.8 z m 44.4,-1.5 4.9,0.7 -3.8,3.2 c -3.4,2.8 -11.4,5.9 -12.4,4.8 -0.3,-0.2 -0.7,-2.4 -0.9,-5 l -0.6,-4.5 3.9,0.1 c 2.2,0 6.1,0.4 8.9,0.7 z m -544,2.2 c -1,1.1 -2.2,2 -2.8,2 -0.5,0 0.1,-0.9 1.4,-2 3.1,-2.5 3.7,-2.5 1.4,0 z m 101.3,-0.3 c -0.2,1.4 -1.7,2 -5.8,2.5 -6.7,0.7 -19.5,1 -18.8,0.3 0.4,-0.5 20.6,-4.2 23.6,-4.4 0.8,-0.1 1.2,0.7 1,1.6 z m 62.7,0.3 c -0.3,0.5 -1.2,1 -1.8,1 -0.7,0 -0.6,-0.4 0.3,-1 1.9,-1.2 2.3,-1.2 1.5,0 z m -9.2,2.7 c -0.7,0.2 -1.9,0.2 -2.5,0 -0.7,-0.3 -0.2,-0.5 1.2,-0.5 1.4,0 1.9,0.2 1.3,0.5 z m -14.5,1 c -1.6,0.2 -4,0.2 -5.5,0 -1.6,-0.2 -0.3,-0.4 2.7,-0.4 3,0 4.3,0.2 2.8,0.4 z m -72.4,1.8 c -0.4,0.8 -0.8,1.5 -1,1.5 -0.2,0 -0.4,-0.7 -0.4,-1.5 0,-0.8 0.4,-1.5 1,-1.5 0.5,0 0.7,0.7 0.4,1.5 z m 53.4,-0.8 c -1.6,0.2 -4,0.2 -5.5,0 -1.6,-0.2 -0.3,-0.4 2.7,-0.4 3,0 4.3,0.2 2.8,0.4 z m -19.5,1 c -1.3,0.2 -3.3,0.2 -4.5,0 -1.3,-0.2 -0.3,-0.4 2.2,-0.4 2.5,0 3.5,0.2 2.3,0.4 z m -18,1 c -1.3,0.2 -3.5,0.2 -5,0 -1.6,-0.2 -0.5,-0.4 2.2,-0.4 2.8,0 4,0.2 2.8,0.4 z m -12.7,8.1 c 1.5,0.9 3.5,8.2 2.3,8.2 -1,0 -3.4,-3.7 -4.4,-6.8 -0.6,-2.2 0.1,-2.8 2.1,-1.4 z" />
  <path
     style="fill:#ffffff;fill-opacity:1"
     d="m 109.01695,226.62836 c -6.02912,-1.71295 -8.75349,-5.16664 -11.951084,-15.15039 -3.240712,-10.11839 -7.049175,-28.77988 -8.928812,-43.75121 -1.876799,-14.94874 -1.587142,-57.32291 0.494617,-72.357665 2.192505,-15.834583 5.766245,-33.30293 8.73747,-42.708517 5.835249,-18.471845 12.290109,-19.277638 69.337729,-8.655783 8.29611,1.544677 15.47237,2.808502 15.94725,2.808502 1.37818,0 1.01683,8.006436 -1.25281,27.758654 -1.84208,16.031319 -2.1176,23.350035 -2.12698,56.499939 -0.009,32.99941 0.28865,41.1121 2.23234,60.77528 2.48834,25.17316 2.29244,27.29161 -2.52366,27.29161 -1.46916,0 -12.08207,1.74286 -23.58426,3.87304 -22.27385,4.12505 -39.78587,5.49052 -46.3818,3.61654 z"
     id="path4138"
     inkscape:connector-curvature="0"
     transform="scale(0.8,0.8)" />
  <path
     style="fill:#ffffff;fill-opacity:1"
     d="m 22.616941,66.255186 c 0,-5.80009 7.562153,-20.583987 13.299824,-26.000957 3.896545,-3.678752 10.104432,-6.097687 12.440452,-4.847487 6.643318,3.555396 2.962828,14.131792 -7.987685,22.953716 -4.849523,3.906861 -15.539755,10.350552 -17.171804,10.350552 -0.319433,0 -0.580787,-1.10512 -0.580787,-2.455824 z"
     id="path4140"
     inkscape:connector-curvature="0"
     transform="scale(0.8,0.8)" />
  <path
     style="fill:#ffffff;fill-opacity:1"
     d="m 38.619305,226.84403 c -5.316498,-3.37162 -9.37574,-9.08663 -13.15137,-18.51581 -2.94597,-7.35722 -3.640323,-12.03923 -1.785442,-12.03923 1.530042,0 11.457624,6.16268 17.054816,10.587 7.19903,5.69051 10.441866,10.66679 10.441866,16.02352 0,2.43491 -0.51412,4.94123 -1.142489,5.5696 -1.958607,1.9586 -6.868449,1.25977 -11.417381,-1.62508 z"
     id="path4142"
     inkscape:connector-curvature="0"
     transform="scale(0.8,0.8)" />
  <path
     style="fill:#ffffff;fill-opacity:1"
     d="M 22.825999,229.93074 C 14.347229,224.17771 11.733949,218.16203 7.7980349,195.33692 3.197726,168.65884 2.7067723,99.435308 6.9337287,73.471383 10.932403,48.90967 14.325879,40.77332 22.962168,35.040878 c 8.432601,-5.597241 9.209716,-4.818342 3.03916,3.046137 -6.296272,8.024705 -8.546316,13.998532 -12.789637,33.956256 -5.5752525,26.222233 -5.8541612,28.417699 -6.4708287,50.935989 -0.7261557,26.51635 0.531052,40.86463 5.9238977,67.60834 4.70508,23.33299 6.45801,28.18142 13.139155,36.34157 2.436292,2.97563 4.429622,5.65334 4.429622,5.95047 0,1.30658 -2.748314,0.21248 -7.407538,-2.9489 z"
     id="path4144"
     inkscape:connector-curvature="0"
     transform="scale(0.8,0.8)" />
  <path
     style="fill:#ffffff;fill-opacity:1"
     d="m 161.3245,32.470538 c -15.87253,-2.794507 -15.91106,-3.9197 -0.11843,-3.458229 13.28042,0.388062 18.33616,1.501416 19.22625,4.233927 0.55694,1.709766 -6.65314,1.417067 -19.10782,-0.775698 z"
     id="path4146"
     inkscape:connector-curvature="0"
     transform="scale(0.8,0.8)" />
  <path
     style="fill:#ffffff;fill-opacity:1"
     d="m 206.84335,38.324397 c -3.14184,-0.398348 -6.6545,-1.029605 -7.80591,-1.402795 -2.32636,-0.754011 -3.8206,-4.092592 -2.44665,-5.466546 1.82465,-1.824645 55.98208,2.217825 58.10109,4.336836 0.31918,0.319177 0.0708,1.089871 -0.55201,1.712654 -1.33732,1.337324 -38.17826,1.975935 -47.29652,0.819851 z"
     id="path4150"
     inkscape:connector-curvature="0"
     transform="scale(0.8,0.8)" />
  <path
     style="fill:#ffffff;fill-opacity:1"
     d="m 186.7361,39.43472 c -0.29147,-0.916372 -1.3533,-3.768405 -2.35961,-6.337852 -1.00631,-2.569446 -1.64189,-4.859492 -1.41239,-5.088991 0.72268,-0.722682 6.09462,0.786745 7.00146,1.967297 0.47694,0.620892 1.57415,2.949737 2.43826,5.175211 l 1.57111,4.046316 -2.37248,0 c -1.30486,0 -2.37248,0.428434 -2.37248,0.952075 0,1.607368 -1.93137,1.054369 -2.49387,-0.714056 z"
     id="path4152"
     inkscape:connector-curvature="0"
     transform="scale(0.8,0.8)" />
  <path
     style="fill:#ffffff;fill-opacity:1;stroke:#000000;stroke-opacity:1;stroke-width:0;stroke-miterlimit:4;stroke-dasharray:none"
     d="m 141.59252,257.93581 c -2.1238,-3.44079 -3.32116,-7.19727 -2.54234,-7.97609 1.0914,-1.0914 4.33279,1.66102 5.33215,4.52779 2.29913,6.59529 0.51432,8.80138 -2.78981,3.4483 z"
     id="path4154"
     inkscape:connector-curvature="0"
     transform="scale(0.8,0.8)" />
  <path
     style="fill:#ffffff;fill-opacity:1"
     d="m 149.71888,235.55423 c 0.52364,-0.52497 5.87906,-1.8327 11.90093,-2.90608 19.34762,-3.44865 18.08942,-3.36456 18.08942,-1.20904 0,1.05258 -0.90786,2.39966 -2.01748,2.99351 -2.60138,1.39222 -29.31104,2.46318 -27.97287,1.12161 z"
     id="path4156"
     inkscape:connector-curvature="0"
     transform="scale(0.8,0.8)" />
  <path
     style="fill:#ffffff;fill-opacity:1"
     d="m 196.2954,233.09139 c -1.0647,-2.77456 1.31429,-5.24424 5.55204,-5.7637 14.86369,-1.82196 53.07567,-1.5272 53.07567,0.40942 0,2.26874 -17.94326,4.66765 -45.93941,6.14183 -10.31184,0.54299 -12.22325,0.42435 -12.6883,-0.78755 z"
     id="path4158"
     inkscape:connector-curvature="0"
     transform="scale(0.8,0.8)" />
  <path
     style="fill:#ffffff;fill-opacity:1"
     d="m 183.47295,234.96525 c 2.85797,-7.51703 5.94742,-10.80952 8.60294,-9.16832 1.11236,0.68748 1.11696,1.41354 0.0298,4.70757 -1.51578,4.59286 -2.50748,5.55515 -6.56024,6.3657 -2.94752,0.58951 -3.00192,0.53951 -2.07253,-1.90495 z"
     id="path4160"
     inkscape:connector-curvature="0"
     transform="scale(0.8,0.8)" />
  <path
     style="fill:#ffffff;fill-opacity:1"
     d="m 288.72176,42.203658 c -4.87033,-2.977723 -5.70943,-4.52342 -3.92992,-7.239289 1.91305,-2.919687 6.81518,-4.324169 15.11679,-4.331028 l 6.4265,-0.0053 0,6.664521 0,6.664522 -7.37857,-0.0035 c -5.47868,-0.0027 -8.11403,-0.453248 -10.2348,-1.749893 z"
     id="path4162"
     inkscape:connector-curvature="0"
     transform="scale(0.8,0.8)" />
  <path
     style="fill:#ffffff;fill-opacity:1"
     d="m 317.00247,37.530571 0.28152,-6.426503 20.23158,-0.256953 20.23159,-0.256953 0,6.683456 0,6.683456 -20.51311,0 -20.5131,0 0.28152,-6.426503 z"
     id="path4164"
     inkscape:connector-curvature="0"
     transform="scale(0.8,0.8)" />
  <path
     style="fill:#ffffff;fill-opacity:1"
     d="m 370.12412,37.292552 0,-6.664521 19.51753,0 19.51753,0 0,6.664521 0,6.664522 -19.51753,0 -19.51753,0 0,-6.664522 z"
     id="path4166"
     inkscape:connector-curvature="0"
     transform="scale(0.8,0.8)" />
  <path
     style="fill:#ffffff;fill-opacity:1"
     d="m 419.632,37.273618 0,-6.683456 20.23158,0.256953 20.23158,0.256953 0.28152,6.426503 0.28152,6.426503 -20.5131,0 -20.5131,0 0,-6.683456 z"
     id="path4168"
     inkscape:connector-curvature="0"
     transform="scale(0.8,0.8)" />
  <path
     style="fill:#ffffff;fill-opacity:1"
     d="m 472.19061,37.530571 0.28152,-6.426503 20.23158,-0.256953 20.23159,-0.256953 0,6.683456 0,6.683456 -20.51311,0 -20.5131,0 0.28152,-6.426503 z"
     id="path4170"
     inkscape:connector-curvature="0"
     transform="scale(0.8,0.8)" />
  <path
     style="fill:#ffffff;fill-opacity:1"
     d="m 523.40811,37.273618 0,-6.683456 20.23159,0.256953 20.23158,0.256953 0.28152,6.426503 0.28152,6.426503 -20.5131,0 -20.51311,0 0,-6.683456 z"
     id="path4172"
     inkscape:connector-curvature="0"
     transform="scale(0.8,0.8)" />
  <path
     style="fill:#ffffff;fill-opacity:1"
     d="m 574.82014,37.203193 0,-6.753881 47.3657,0.373274 c 49.83591,0.392741 50.77961,0.476806 53.45563,4.761802 1.07027,1.713756 0.93089,2.260673 -1.09147,4.283031 -1.27512,1.275122 -3.9925,2.706714 -6.03861,3.181316 -2.04612,0.474601 -23.9637,0.873133 -48.70573,0.885625 l -44.98552,0.02271 0,-6.753881 z"
     id="path4176"
     inkscape:connector-curvature="0"
     transform="scale(0.8,0.8)" />
  <path
     style="fill:#ffffff;fill-opacity:1"
     d="m 286.41462,230.003 c -3.58276,-3.01469 -3.62529,-3.84506 -0.37096,-7.24185 2.44439,-2.55139 2.95313,-2.6703 11.42489,-2.6703 l 8.86658,0 0,6.18849 0,6.18848 -8.49562,0 c -7.75075,0 -8.75245,-0.21611 -11.42489,-2.46482 z"
     id="path4178"
     inkscape:connector-curvature="0"
     transform="scale(0.8,0.8)" />
  <path
     style="fill:#ffffff;fill-opacity:1"
     d="m 316.80795,226.27934 0,-6.18849 20.4696,0 20.46961,0 0,6.18849 0,6.18848 -20.46961,0 -20.4696,0 0,-6.18848 z"
     id="path4180"
     inkscape:connector-curvature="0"
     transform="scale(0.8,0.8)" />
  <path
     style="fill:#ffffff;fill-opacity:1"
     d="m 370.12412,226.27934 0,-6.18849 19.51753,0 19.51753,0 0,6.18849 0,6.18848 -19.51753,0 -19.51753,0 0,-6.18848 z"
     id="path4182"
     inkscape:connector-curvature="0"
     transform="scale(0.8,0.8)" />
  <path
     style="fill:#ffffff;fill-opacity:1"
     d="m 419.632,226.27934 0,-6.18849 20.4696,0 20.4696,0 0,6.18849 0,6.18848 -20.4696,0 -20.4696,0 0,-6.18848 z"
     id="path4184"
     inkscape:connector-curvature="0"
     transform="scale(0.8,0.8)" />
  <path
     style="fill:#ffffff;fill-opacity:1"
     d="m 471.99609,226.27934 0,-6.18849 20.4696,0 20.46961,0 0,6.18849 0,6.18848 -20.46961,0 -20.4696,0 0,-6.18848 z"
     id="path4186"
     inkscape:connector-curvature="0"
     transform="scale(0.8,0.8)" />
  <path
     style="fill:#ffffff;fill-opacity:1"
     d="m 523.40811,226.27934 0,-6.18849 20.46961,0 20.4696,0 0,6.18849 0,6.18848 -20.4696,0 -20.46961,0 0,-6.18848 z"
     id="path4188"
     inkscape:connector-curvature="0"
     transform="scale(0.8,0.8)" />
  <path
     style="fill:#ffffff;fill-opacity:1"
     d="m 574.82014,226.27934 0,-6.23987 47.50444,0.26371 c 45.17518,0.25078 47.60268,0.35264 49.50788,2.0774 2.55747,2.31526 2.55747,5.48225 0,7.79751 -1.9052,1.72476 -4.3327,1.82662 -49.50788,2.0774 l -47.50444,0.26371 0,-6.23986 z"
     id="path4190"
     inkscape:connector-curvature="0"
     transform="scale(0.8,0.8)" />
  <path
     style="fill:#ffffff;fill-opacity:1"
     d="m 693.41916,210.64276 c -1.54551,-1.70776 -1.58764,-3.64583 -0.6236,-28.68627 1.30823,-33.98068 1.30986,-62.46261 0.006,-97.366808 -0.56556,-15.13526 -0.77162,-28.541343 -0.4579,-29.791296 0.50572,-2.014951 1.10811,-2.272642 5.31263,-2.272642 5.99395,0 8.03515,1.896425 9.3873,8.721505 4.80036,24.230056 5.14512,103.226081 0.60294,138.153491 -1.03002,7.92048 -1.63808,9.97956 -3.35835,11.37255 -2.84094,2.30045 -8.73264,2.22969 -10.86861,-0.13053 z"
     id="path4192"
     inkscape:connector-curvature="0"
     transform="scale(0.8,0.8)" />
  <path
     style="fill:#ff0000;fill-opacity:1"
     d="m 693.30959,210.86632 c -1.46848,-1.46848 -1.541,-3.80128 -0.83609,-26.89611 0.42453,-13.90849 0.59975,-42.63972 0.38939,-63.84718 -0.21036,-21.207457 -0.40026,-44.985517 -0.42201,-52.840132 l -0.0395,-14.281117 5.42237,-0.283977 c 4.98681,-0.261167 5.55759,-0.0776 7.10583,2.285317 0.92591,1.413111 2.21362,5.61102 2.86157,9.328685 4.72931,27.134512 3.66105,130.060784 -1.49052,143.610444 -0.5253,1.38165 -1.8043,2.96657 -2.84223,3.52205 -2.86777,1.53479 -8.33833,1.21245 -10.14876,-0.59798 z"
     id="path4194"
     inkscape:connector-curvature="0"
     transform="scale(0.8,0.8)" />
  <path
     style="fill:#ff0000;fill-opacity:1;stroke:#000000;stroke-opacity:1;stroke-width:2.2;stroke-miterlimit:4;stroke-dasharray:none"
     d="m 718.26602,35.705761 c -0.98145,-0.981449 -0.7497,-6.892208 0.35086,-8.948619 1.6921,-3.161714 6.75722,-2.198425 14.43867,2.745958 1.93783,1.247335 4.19698,3.296018 5.02034,4.55263 l 1.49703,2.284748 -10.33609,0 c -5.68485,0 -10.62171,-0.285622 -10.97081,-0.634717 z"
     id="path4196"
     inkscape:connector-curvature="0"
     transform="scale(0.8,0.8)" />
  <path
     style="fill:#ffffff;fill-opacity:1"
     d="m 718.18544,238.89432 c -0.23882,-1.17819 -0.69104,-4.02907 -1.00494,-6.33529 l -0.57072,-4.19312 9.91077,0.60639 c 13.33706,0.81604 13.88948,1.0896 9.44004,4.67481 -4.34205,3.49867 -12.31891,7.36739 -15.2169,7.38008 -1.44331,0.006 -2.26319,-0.67723 -2.55825,-2.13287 z"
     id="path4198"
     inkscape:connector-curvature="0"
     transform="scale(0.8,0.8)" />
  <path
     style="fill:#e6e6e6;fill-opacity:1;stroke:#000000;stroke-opacity:1;stroke-width:2.2;stroke-miterlimit:4;stroke-dasharray:none"
     d="m 694.26324,211.13299 c -1.7886,-1.30786 -1.82778,-3.2583 -1.57298,-78.30813 0.14372,-42.331769 0.24461,-77.716614 0.22421,-78.632986 -0.0309,-1.388501 0.83179,-1.66613 5.17736,-1.66613 4.47395,0 5.43012,0.329127 6.73302,2.317606 4.65464,7.103883 7.15975,56.1555 5.36846,105.11813 -1.46661,40.08833 -2.70675,49.34699 -6.91111,51.59709 -2.48553,1.33021 -6.90282,1.12177 -9.01896,-0.42558 z"
     id="path4200"
     inkscape:connector-curvature="0"
     transform="scale(0.8,0.8)" />
  <path
     style="fill:#f2f2f2;fill-opacity:1"
     d="m 106.39949,225.64367 c -3.37528,-1.7494 -4.83441,-3.33161 -6.876837,-7.45697 -3.116604,-6.295 -6.539925,-19.59629 -9.961915,-38.70698 -2.395015,-13.37537 -2.531444,-15.79221 -2.544492,-45.07557 -0.01516,-34.021 0.964097,-43.796803 6.998421,-69.86445 7.128033,-30.792369 9.662263,-31.683401 63.796853,-22.430897 12.30556,2.103226 23.12351,4.051019 24.03988,4.328429 2.15855,0.653451 2.19674,7.731051 0.13045,24.177927 -2.37294,18.887736 -2.90553,87.359851 -0.87014,111.868751 2.67091,32.16146 2.70837,33.16472 1.3043,34.9324 -1.83036,2.30435 -43.97833,9.32523 -59.83125,9.96651 -11.11538,0.44963 -12.18373,0.33483 -16.18527,-1.73915 z"
     id="path4202"
     inkscape:connector-curvature="0"
     transform="scale(0.8,0.8)" />
  <path
     style="fill:url(#linearGradient6006);fill-opacity:1;stroke:#000000;stroke-opacity:1;stroke-width:2.2;stroke-miterlimit:4;stroke-dasharray:none"
     d="m 106.82833,226.36826 c -6.79349,-2.95906 -10.481653,-11.60497 -15.674131,-36.74379 -4.21767,-20.4194 -5.072856,-32.70237 -4.441227,-63.78899 0.576164,-28.356846 1.469507,-36.887427 5.95936,-56.906233 4.813959,-21.463894 7.27387,-26.7856 14.078588,-30.457239 5.30436,-2.862088 20.32297,-1.958795 49.40587,2.971514 14.01367,2.375682 25.96457,4.619271 26.55755,4.985753 1.12328,0.694233 0.75425,13.080235 -1.061,35.610778 -1.17285,14.557072 -1.18994,86.010727 -0.024,100.443857 1.53233,18.96912 2.06167,34.20909 1.22914,35.38775 -0.86984,1.23149 -26.85789,6.14776 -44.3752,8.39463 -13.80313,1.77048 -27.72137,1.81531 -31.65491,0.10197 l -4e-5,0 z"
     id="path4204"
     inkscape:connector-curvature="0"
     transform="scale(0.8,0.8)" />
  <path
     style="fill:#f2f2f2;fill-opacity:1;stroke:#000000;stroke-opacity:1;stroke-width:2.2;stroke-miterlimit:4;stroke-dasharray:none"
     d="m 288.38802,42.34201 c -4.0327,-1.986932 -5.72128,-5.295634 -3.85256,-7.548929 2.29558,-2.767988 7.20236,-4.16505 14.62854,-4.16505 l 7.17113,0 0,6.664521 0,6.664522 -7.37857,-0.02168 c -4.89718,-0.01439 -8.45135,-0.550239 -10.56854,-1.593385 z"
     id="path4206"
     inkscape:connector-curvature="0"
     transform="scale(0.8,0.8)" />
  <path
     style="fill:#f2f2f2;fill-opacity:1;stroke:#000000;stroke-opacity:1;stroke-width:2.2;stroke-miterlimit:4;stroke-dasharray:none"
     d="m 316.80795,37.292552 0,-6.664521 20.4696,0 20.46961,0 0,6.664521 0,6.664522 -20.46961,0 -20.4696,0 0,-6.664522 z"
     id="path4208"
     inkscape:connector-curvature="0"
     transform="scale(0.8,0.8)" />
  <path
     style="fill:#f2f2f2;fill-opacity:1;stroke:#000000;stroke-opacity:1;stroke-width:2.2;stroke-miterlimit:4;stroke-dasharray:none"
     d="m 370.12412,37.292552 0,-6.664521 19.51753,0 19.51753,0 0,6.664521 0,6.664522 -19.51753,0 -19.51753,0 0,-6.664522 z"
     id="path4212"
     inkscape:connector-curvature="0"
     transform="scale(0.8,0.8)" />
  <path
     style="fill:#f2f2f2;fill-opacity:1;stroke:#000000;stroke-opacity:1;stroke-width:2.2;stroke-miterlimit:4;stroke-dasharray:none"
     d="m 419.632,37.292552 0,-6.664521 20.4696,0 20.4696,0 0,6.664521 0,6.664522 -20.4696,0 -20.4696,0 0,-6.664522 z"
     id="path4214"
     inkscape:connector-curvature="0"
     transform="scale(0.8,0.8)" />
  <path
     style="fill:#f2f2f2;fill-opacity:1;stroke:#000000;stroke-opacity:1;stroke-width:2.2;stroke-miterlimit:4;stroke-dasharray:none"
     d="m 471.99609,37.292552 0,-6.664521 20.4696,0 20.46961,0 0,6.664521 0,6.664522 -20.46961,0 -20.4696,0 0,-6.664522 z"
     id="path4216"
     inkscape:connector-curvature="0"
     transform="scale(0.8,0.8)" />
  <path
     style="fill:#f2f2f2;fill-opacity:1;stroke:#000000;stroke-opacity:1;stroke-width:2.2;stroke-miterlimit:4;stroke-dasharray:none"
     d="m 523.40811,37.292552 0,-6.664521 20.46961,0 20.4696,0 0,6.664521 0,6.664522 -20.4696,0 -20.46961,0 0,-6.664522 z"
     id="path4218"
     inkscape:connector-curvature="0"
     transform="scale(0.8,0.8)" />
  <path
     style="fill:#f2f2f2;fill-opacity:1;stroke:#000000;stroke-opacity:1;stroke-width:2.2;stroke-miterlimit:4;stroke-dasharray:none"
     d="m 574.81951,37.054534 -6.2e-4,-6.90254 13.09165,0.231149 c 7.2004,0.127131 28.72947,0.351713 47.84236,0.499071 36.45201,0.281039 37.80968,0.437593 40.04688,4.617837 0.86839,1.622595 0.67384,2.378375 -1.09758,4.263963 -1.18417,1.260494 -3.68436,2.7172 -5.55599,3.237124 -2.03256,0.56463 -21.71068,0.947455 -48.86452,0.950626 l -45.46155,0.0053 -6.3e-4,-6.90254 z"
     id="path4220"
     inkscape:connector-curvature="0"
     transform="scale(0.8,0.8)" />
  <path
     style="fill:#f2f2f2;fill-opacity:1;stroke:#000000;stroke-opacity:1;stroke-width:2.2;stroke-miterlimit:4;stroke-dasharray:none"
     d="m 574.82014,226.27934 0,-6.23987 47.50444,0.26371 c 45.17518,0.25078 47.60268,0.35264 49.50788,2.0774 2.55747,2.31526 2.55747,5.48225 0,7.79751 -1.9052,1.72476 -4.3327,1.82662 -49.50788,2.0774 l -47.50444,0.26371 0,-6.23986 z"
     id="path4224"
     inkscape:connector-curvature="0"
     transform="scale(0.8,0.8)" />
  <path
     style="fill:#f2f2f2;fill-opacity:1;stroke:#000000;stroke-opacity:1;stroke-width:2.2;stroke-miterlimit:4;stroke-dasharray:none"
     d="m 523.40811,226.27934 0,-6.18849 20.46961,0 20.4696,0 0,6.18849 0,6.18848 -20.4696,0 -20.46961,0 0,-6.18848 z"
     id="path4226"
     inkscape:connector-curvature="0"
     transform="scale(0.8,0.8)" />
  <path
     style="fill:#f2f2f2;fill-opacity:1;stroke:#000000;stroke-opacity:1;stroke-width:2.2;stroke-miterlimit:4;stroke-dasharray:none"
     d="m 471.99609,226.27934 0,-6.18849 20.4696,0 20.46961,0 0,6.18849 0,6.18848 -20.46961,0 -20.4696,0 0,-6.18848 z"
     id="path4228"
     inkscape:connector-curvature="0"
     transform="scale(0.8,0.8)" />
  <path
     style="fill:#f2f2f2;fill-opacity:1;stroke:#000000;stroke-opacity:1;stroke-width:2.2;stroke-miterlimit:4;stroke-dasharray:none"
     d="m 419.632,226.27934 0,-6.18849 20.4696,0 20.4696,0 0,6.18849 0,6.18848 -20.4696,0 -20.4696,0 0,-6.18848 z"
     id="path4230"
     inkscape:connector-curvature="0"
     transform="scale(0.8,0.8)" />
  <path
     style="fill:#f2f2f2;fill-opacity:1;stroke:#000000;stroke-opacity:1;stroke-width:2.2;stroke-miterlimit:4;stroke-dasharray:none"
     d="m 370.12412,226.27934 0,-6.18849 19.51753,0 19.51753,0 0,6.18849 0,6.18848 -19.51753,0 -19.51753,0 0,-6.18848 z"
     id="path4232"
     inkscape:connector-curvature="0"
     transform="scale(0.8,0.8)" />
  <path
     style="fill:#f2f2f2;fill-opacity:1;stroke:#000000;stroke-opacity:1;stroke-width:2.2;stroke-miterlimit:4;stroke-dasharray:none"
     d="m 316.80795,226.27934 0,-6.18849 20.4696,0 20.46961,0 0,6.18849 0,6.18848 -20.46961,0 -20.4696,0 0,-6.18848 z"
     id="path4234"
     inkscape:connector-curvature="0"
     transform="scale(0.8,0.8)" />
  <path
     style="fill:#f2f2f2;fill-opacity:1;stroke:#000000;stroke-opacity:1;stroke-width:2.2;stroke-miterlimit:4;stroke-dasharray:none"
     d="m 286.04366,229.79752 c -3.14537,-3.28305 -3.16799,-4.01039 -0.22359,-7.18746 2.21063,-2.38531 2.8179,-2.51921 11.4249,-2.51921 l 9.09016,0 0,6.18849 0,6.18848 -8.86658,0 c -8.47176,0 -8.9805,-0.11891 -11.42489,-2.6703 z"
     id="path4236"
     inkscape:connector-curvature="0"
     transform="scale(0.8,0.8)" />
  <path
     style="fill:#ffe680;fill-opacity:1"
     d="m 718.208,239.52737 c -0.3185,-0.83001 -0.84496,-3.77117 -1.1699,-6.5359 l -0.5908,-5.02679 5.11436,0.37684 c 12.78455,0.94199 17.02909,1.47425 17.47203,2.19093 1.13078,1.82965 -13.68153,10.50404 -17.93661,10.50404 -1.27049,0 -2.57057,-0.6791 -2.88908,-1.50912 z"
     id="path4238"
     inkscape:connector-curvature="0"
     transform="scale(0.8,0.8)" />
  <path
     style="fill:#ffff00;fill-opacity:1;stroke:#000000;stroke-opacity:1;stroke-width:2.2;stroke-miterlimit:4;stroke-dasharray:none"
     d="m 40.230319,228.11973 c -6.571716,-3.40556 -11.945031,-10.89313 -15.74652,-21.94235 -2.151378,-6.25308 -2.392216,-9.88839 -0.655103,-9.88839 4.274582,0 23.1093,14.55369 25.954056,20.05484 1.685359,3.25913 1.837867,10.54134 0.253934,12.12528 -1.588149,1.58815 -6.398211,1.41678 -9.806367,-0.34938 z"
     id="path4240"
     inkscape:connector-curvature="0"
     transform="scale(0.8,0.8)" />
  <path
     style="fill:#ffff00;fill-opacity:1;stroke:#000000;stroke-opacity:1;stroke-width:2.1;stroke-miterlimit:4;stroke-dasharray:none"
     d="m 22.842032,64.516959 c 0.640756,-5.684773 6.718236,-17.682666 11.540349,-22.782448 2.360945,-2.496895 5.811984,-4.870664 8.598555,-5.914448 l 4.654766,-1.743565 2.247774,2.613193 c 1.236275,1.437256 2.247774,3.525119 2.247774,4.639695 0,6.402764 -8.535029,16.074724 -20.638581,23.387799 -8.515399,5.145081 -9.251211,5.12805 -8.650637,-0.200226 z"
     id="path4242"
     inkscape:connector-curvature="0"
     transform="scale(0.8,0.8)" />
  <path
     style="fill:#f9f9f9;fill-opacity:1"
     d="m 718.1574,240.16541 c -0.2961,-0.4791 -0.81383,-3.50665 -1.15051,-6.72789 l -0.61216,-5.85681 6.09272,0.57453 c 13.9153,1.31221 16.08316,1.62793 16.56836,2.41301 1.1569,1.87189 -13.62802,10.46824 -18.0044,10.46824 -1.29561,0 -2.59791,-0.39199 -2.89401,-0.87108 z"
     id="path4244"
     inkscape:connector-curvature="0"
     transform="scale(0.8,0.8)" />
  <path
     style="fill:#f9f9f9;fill-opacity:1;stroke:#000000;stroke-opacity:1;stroke-width:2.2;stroke-miterlimit:4;stroke-dasharray:none"
     d="m 196.23879,232.94386 c -0.85508,-2.22831 0.31716,-4.21185 3.20159,-5.41737 3.01187,-1.25878 53.87665,-1.73626 55.09957,-0.51723 2.41421,2.40652 -8.49807,4.53817 -32.51726,6.35206 -19.01677,1.43611 -25.11048,1.33745 -25.7839,-0.41746 z"
     id="path4246"
     inkscape:connector-curvature="0"
     transform="scale(0.8,0.8)" />
  <path
     style="fill:#f9f9f9;fill-opacity:1;stroke:#000000;stroke-opacity:1;stroke-width:2.2;stroke-miterlimit:4;stroke-dasharray:none"
     d="m 183.08659,235.08602 c 1.25309,-4.13325 4.59609,-9.26767 6.40871,-9.84297 3.02672,-0.96065 4.01423,0.94542 2.72286,5.25562 -1.25409,4.18576 -4.10743,6.72952 -7.54852,6.72952 -1.8729,0 -2.12789,-0.34505 -1.58305,-2.14217 z"
     id="path4248"
     inkscape:connector-curvature="0"
     transform="scale(0.8,0.8)" />
  <path
     style="fill:#f9f9f9;fill-opacity:1;stroke:#000000;stroke-opacity:1;stroke-width:2.2;stroke-miterlimit:4;stroke-dasharray:none"
     d="m 149.71888,235.48466 c 0.97497,-1.01646 16.03495,-4.31389 24.99196,-5.47206 4.58373,-0.5927 4.99839,-0.48785 4.99839,1.26391 0,3.73143 -2.34242,4.39461 -16.9794,4.80718 -9.6726,0.27263 -13.67048,0.0886 -13.01095,-0.59903 z"
     id="path4252"
     inkscape:connector-curvature="0"
     transform="scale(0.8,0.8)" />
  <path
     style="fill:#f9f9f9;fill-opacity:1;stroke:#000000;stroke-opacity:1;stroke-width:2.2;stroke-miterlimit:4;stroke-dasharray:none"
     d="m 167.8083,33.827937 c -1.04728,-0.213129 -5.66154,-1.075117 -10.2539,-1.915529 -13.16372,-2.408986 -11.53326,-3.528124 4.35428,-2.988758 10.79136,0.366356 14.44102,0.827357 16.32553,2.062132 1.3349,0.874662 2.42709,2.008851 2.42709,2.520421 0,0.895605 -8.93417,1.119244 -12.853,0.321734 z"
     id="path4254"
     inkscape:connector-curvature="0"
     transform="scale(0.8,0.8)" />
  <path
     style="fill:#f9f9f9;fill-opacity:1;stroke:#000000;stroke-opacity:1;stroke-width:2.2;stroke-miterlimit:4;stroke-dasharray:none"
     d="m 184.89653,35.626422 c -2.66818,-8.003868 -2.65993,-7.854614 -0.43415,-7.854614 4.18489,0 7.04121,2.947538 8.99547,9.282726 0.5336,1.729779 0.29271,2.142167 -1.25131,2.142167 -1.05166,0 -2.1769,0.428434 -2.50053,0.952075 -1.37424,2.223577 -3.10234,0.598652 -4.80948,-4.522354 z"
     id="path4256"
     inkscape:connector-curvature="0"
     transform="scale(0.8,0.8)" />
  <path
     style="fill:#f9f9f9;fill-opacity:1;stroke:#000000;stroke-opacity:1;stroke-width:2.2;stroke-miterlimit:4;stroke-dasharray:none"
     d="m 203.59059,38.167265 c -2.8363,-0.497572 -5.72822,-1.378827 -6.4265,-1.958345 -1.78663,-1.482774 -1.5793,-4.569732 0.35683,-5.312694 1.90586,-0.731347 35.3924,1.198551 47.16464,2.718195 9.35326,1.207384 11.32831,2.016019 9.46815,3.876505 -1.52284,1.523112 -42.60393,2.072617 -50.56312,0.676339 z"
     id="path4258"
     inkscape:connector-curvature="0"
     transform="scale(0.8,0.8)" />
  <path
     style="fill:#ff0000;fill-opacity:1;stroke:#000000;stroke-opacity:1;stroke-width:2.2;stroke-miterlimit:4;stroke-dasharray:none"
     d="m 717.74121,238.89432 c -0.43727,-1.17819 -1.01668,-4.17722 -1.28759,-6.66452 l -0.49256,-4.52235 3.45333,0.007 c 4.74037,0.01 19.31074,1.72775 19.93307,2.35009 1.02366,1.02365 -4.14688,5.37058 -9.67248,8.13176 -6.96593,3.48092 -10.81727,3.70612 -11.93377,0.6978 z"
     id="path4260"
     inkscape:connector-curvature="0"
     transform="scale(0.8,0.8)" />
  <path
     style="fill:#666666;fill-opacity:1;stroke:#000000;stroke-opacity:1;stroke-width:2.2;stroke-miterlimit:4;stroke-dasharray:none"
     d="M 23.215823,230.4472 C 15.637847,225.42776 12.755039,220.36379 9.7322418,206.76181 6.6062621,192.69553 5.3790072,181.11228 4.318667,155.66669 2.0444556,101.09111 6.4672606,56.324297 15.555727,41.927234 c 3.007216,-4.763738 14.67781,-12.641669 14.67781,-9.907874 0,0.24159 -2.266896,3.776166 -5.037547,7.854614 -6.068649,8.933161 -8.141787,15.16115 -13.187435,39.616836 -3.2672291,15.835893 -3.8738751,20.78494 -4.5721652,37.29996 -1.2834583,30.35463 0.4540243,50.22692 7.0767082,80.93918 3.701829,17.16698 4.969446,20.28278 12.038036,29.5894 2.025321,2.66658 3.682403,5.13008 3.682403,5.47443 0,1.39254 -2.772063,0.46562 -7.017714,-2.34658 z"
     id="path4262"
     inkscape:connector-curvature="0"
     transform="scale(0.8,0.8)" />
</svg>
