<?xml version="1.0" encoding="UTF-8" standalone="no"?>
<!-- Generator: Adobe Illustrator 16.0.0, SVG Export Plug-In . SVG Version: 6.00 Build 0)  -->

<svg
   xmlns:dc="http://purl.org/dc/elements/1.1/"
   xmlns:cc="http://creativecommons.org/ns#"
   xmlns:rdf="http://www.w3.org/1999/02/22-rdf-syntax-ns#"
   xmlns:svg="http://www.w3.org/2000/svg"
   xmlns="http://www.w3.org/2000/svg"
   xmlns:sodipodi="http://sodipodi.sourceforge.net/DTD/sodipodi-0.dtd"
   xmlns:inkscape="http://www.inkscape.org/namespaces/inkscape"
   version="1.1"
   id="Capa_1"
   x="0px"
   y="0px"
   width="360"
   height="360"
   viewBox="0 0 360 360"
   xml:space="preserve"
   inkscape:version="0.91 r13725"
   sodipodi:docname="Confirm.svg"><metadata
     id="metadata41"><rdf:RDF><cc:Work
         rdf:about=""><dc:format>image/svg+xml</dc:format><dc:type
           rdf:resource="http://purl.org/dc/dcmitype/StillImage" /><dc:title /></cc:Work></rdf:RDF></metadata><defs
     id="defs39" /><sodipodi:namedview
     pagecolor="#ffffff"
     bordercolor="#666666"
     borderopacity="1"
     objecttolerance="10"
     gridtolerance="10"
     guidetolerance="10"
     inkscape:pageopacity="0"
     inkscape:pageshadow="2"
     inkscape:window-width="1440"
     inkscape:window-height="897"
     id="namedview37"
     showgrid="false"
     inkscape:zoom="0.5678783"
     inkscape:cx="-296.72693"
     inkscape:cy="207.791"
     inkscape:window-x="1912"
     inkscape:window-y="199"
     inkscape:window-maximized="1"
     inkscape:current-layer="Capa_1" /><g
     id="g3"
     style="fill:#269226;fill-opacity:1"
     transform="matrix(0.77000725,0,0,0.98889502,19.999615,-25.483733)"><path
       d="m 411.47,96.426 -46.319,-46.32 c -5.482,-5.482 -14.371,-5.482 -19.853,0 L 152.348,243.058 70.282,160.994 c -5.48,-5.482 -14.37,-5.482 -19.851,0 l -46.319,46.32 c -5.482,5.481 -5.482,14.37 0,19.852 l 138.311,138.31 c 2.741,2.742 6.334,4.112 9.926,4.112 3.593,0 7.186,-1.37 9.926,-4.112 L 411.47,116.277 c 2.633,-2.632 4.111,-6.203 4.111,-9.925 10e-4,-3.724 -1.478,-7.293 -4.111,-9.926 z"
       id="path5"
       style="fill:#269226;fill-opacity:1"
       inkscape:connector-curvature="0" /></g><g
     id="g7" /><g
     id="g9" /><g
     id="g11" /><g
     id="g13" /><g
     id="g15" /><g
     id="g17" /><g
     id="g19" /><g
     id="g21" /><g
     id="g23" /><g
     id="g25" /><g
     id="g27" /><g
     id="g29" /><g
     id="g31" /><g
     id="g33" /><g
     id="g35" /></svg>