<?xml version="1.0" encoding="UTF-8" standalone="no"?>
<!-- Generator: Adobe Illustrator 16.0.0, SVG Export Plug-In . SVG Version: 6.00 Build 0)  -->

<svg
   xmlns:dc="http://purl.org/dc/elements/1.1/"
   xmlns:cc="http://creativecommons.org/ns#"
   xmlns:rdf="http://www.w3.org/1999/02/22-rdf-syntax-ns#"
   xmlns:svg="http://www.w3.org/2000/svg"
   xmlns="http://www.w3.org/2000/svg"
   xmlns:sodipodi="http://sodipodi.sourceforge.net/DTD/sodipodi-0.dtd"
   xmlns:inkscape="http://www.inkscape.org/namespaces/inkscape"
   version="1.1"
   id="Capa_1"
   x="0px"
   y="0px"
   width="360"
   height="360"
   viewBox="0 0 473.426 473.426"
   xml:space="preserve"
   inkscape:version="0.91 r13725"
   sodipodi:docname="roadIntersection.svg"><metadata
     id="metadata59"><rdf:RDF><cc:Work
         rdf:about=""><dc:format>image/svg+xml</dc:format><dc:type
           rdf:resource="http://purl.org/dc/dcmitype/StillImage" /></cc:Work></rdf:RDF></metadata><defs
     id="defs57" /><sodipodi:namedview
     pagecolor="#ffffff"
     bordercolor="#666666"
     borderopacity="1"
     objecttolerance="10"
     gridtolerance="10"
     guidetolerance="10"
     inkscape:pageopacity="0"
     inkscape:pageshadow="2"
     inkscape:window-width="1920"
     inkscape:window-height="1017"
     id="namedview55"
     showgrid="false"
     inkscape:zoom="1.9939758"
     inkscape:cx="181.32794"
     inkscape:cy="177.60939"
     inkscape:window-x="1912"
     inkscape:window-y="5"
     inkscape:window-maximized="1"
     inkscape:current-layer="Capa_1" /><g
     id="g3"
     style="fill:#f2f2f2"
     transform="translate(0,-1.36061e-5)"><g
       id="g5"
       style="fill:#f2f2f2"><path
         d="m 460.926,302.072 -146.353,0 c -6.904,0 -12.5,5.597 -12.5,12.5 l 0,146.354 c 0,6.903 5.596,12.5 12.5,12.5 6.903,0 12.5,-5.597 12.5,-12.5 l 0,-133.854 133.853,0 c 6.903,0 12.5,-5.596 12.5,-12.5 0,-6.903 -5.597,-12.5 -12.5,-12.5 z"
         id="path7"
         style="fill:#f2f2f2"
         inkscape:connector-curvature="0" /><path
         d="m 158.853,302.072 -146.353,0 c -6.903,0 -12.5,5.597 -12.5,12.5 0,6.904 5.597,12.5 12.5,12.5 l 133.853,0 0,133.854 c 0,6.903 5.596,12.5 12.5,12.5 6.904,0 12.5,-5.597 12.5,-12.5 l 0,-146.354 c 0,-6.903 -5.596,-12.5 -12.5,-12.5 z"
         id="path9"
         style="fill:#f2f2f2"
         inkscape:connector-curvature="0" /><path
         d="m 158.853,0 c -6.904,0 -12.5,5.597 -12.5,12.5 l 0,133.853 -133.853,0 c -6.903,0 -12.5,5.596 -12.5,12.5 0,6.904 5.597,12.5 12.5,12.5 l 146.353,0 c 6.904,0 12.5,-5.596 12.5,-12.5 l 0,-146.353 c 0,-6.903 -5.596,-12.5 -12.5,-12.5 z"
         id="path11"
         style="fill:#f2f2f2"
         inkscape:connector-curvature="0" /><path
         d="m 314.573,171.353 146.353,0 c 6.903,0 12.5,-5.596 12.5,-12.5 0,-6.904 -5.597,-12.5 -12.5,-12.5 l -133.853,0 0,-133.853 c 0,-6.903 -5.597,-12.5 -12.5,-12.5 -6.904,0 -12.5,5.597 -12.5,12.5 l 0,146.353 c 0,6.904 5.596,12.5 12.5,12.5 z"
         id="path13"
         style="fill:#f2f2f2"
         inkscape:connector-curvature="0" /><path
         d="m 236.713,365.38 c -6.903,0 -12.5,5.597 -12.5,12.5 l 0,83.046 c 0,6.903 5.597,12.5 12.5,12.5 6.902,0 12.5,-5.597 12.5,-12.5 l 0,-83.046 c 0,-6.903 -5.598,-12.5 -12.5,-12.5 z"
         id="path15"
         style="fill:#f2f2f2"
         inkscape:connector-curvature="0" /><path
         d="m 236.713,108.046 c 6.902,0 12.5,-5.597 12.5,-12.5 l 0,-83.046 c 0,-6.903 -5.598,-12.5 -12.5,-12.5 -6.903,0 -12.5,5.597 -12.5,12.5 l 0,83.046 c 0,6.903 5.597,12.5 12.5,12.5 z"
         id="path17"
         style="fill:#f2f2f2"
         inkscape:connector-curvature="0" /><path
         d="m 12.5,249.213 83.046,0 c 6.903,0 12.5,-5.598 12.5,-12.5 0,-6.903 -5.597,-12.5 -12.5,-12.5 l -83.046,0 c -6.903,0 -12.5,5.597 -12.5,12.5 0,6.902 5.597,12.5 12.5,12.5 z"
         id="path19"
         style="fill:#f2f2f2"
         inkscape:connector-curvature="0" /><path
         d="m 460.926,224.213 -83.046,0 c -6.903,0 -12.5,5.597 -12.5,12.5 0,6.902 5.597,12.5 12.5,12.5 l 83.046,0 c 6.903,0 12.5,-5.598 12.5,-12.5 0,-6.903 -5.597,-12.5 -12.5,-12.5 z"
         id="path21"
         style="fill:#f2f2f2"
         inkscape:connector-curvature="0" /><path
         d="m 278.234,224.213 -29.021,0 0,-29.023 c 0,-6.903 -5.598,-12.5 -12.5,-12.5 -6.903,0 -12.5,5.597 -12.5,12.5 l 0,29.023 -29.023,0 c -6.903,0 -12.5,5.597 -12.5,12.5 0,6.902 5.597,12.5 12.5,12.5 l 29.023,0 0,29.023 c 0,6.902 5.597,12.5 12.5,12.5 6.902,0 12.5,-5.598 12.5,-12.5 l 0,-29.023 29.021,0 c 6.903,0 12.501,-5.598 12.501,-12.5 0,-6.903 -5.596,-12.5 -12.501,-12.5 z"
         id="path23"
         style="fill:#f2f2f2"
         inkscape:connector-curvature="0" /></g></g><g
     id="g25" /><g
     id="g27" /><g
     id="g29" /><g
     id="g31" /><g
     id="g33" /><g
     id="g35" /><g
     id="g37" /><g
     id="g39" /><g
     id="g41" /><g
     id="g43" /><g
     id="g45" /><g
     id="g47" /><g
     id="g49" /><g
     id="g51" /><g
     id="g53" /></svg>