<?xml version="1.0" encoding="UTF-8" standalone="no"?>
<!-- Generator: Adobe Illustrator 18.1.1, SVG Export Plug-In . SVG Version: 6.00 Build 0)  -->

<svg
   xmlns:dc="http://purl.org/dc/elements/1.1/"
   xmlns:cc="http://creativecommons.org/ns#"
   xmlns:rdf="http://www.w3.org/1999/02/22-rdf-syntax-ns#"
   xmlns:svg="http://www.w3.org/2000/svg"
   xmlns="http://www.w3.org/2000/svg"
   xmlns:sodipodi="http://sodipodi.sourceforge.net/DTD/sodipodi-0.dtd"
   xmlns:inkscape="http://www.inkscape.org/namespaces/inkscape"
   version="1.1"
   id="Capa_1"
   x="0px"
   y="0px"
   viewBox="0 0 360 360"
   xml:space="preserve"
   inkscape:version="0.91 r13725"
   sodipodi:docname="Print.svg"
   width="360"
   height="360"><metadata
     id="metadata47"><rdf:RDF><cc:Work
         rdf:about=""><dc:format>image/svg+xml</dc:format><dc:type
           rdf:resource="http://purl.org/dc/dcmitype/StillImage" /></cc:Work></rdf:RDF></metadata><defs
     id="defs45" /><sodipodi:namedview
     pagecolor="#ffffff"
     bordercolor="#666666"
     borderopacity="1"
     objecttolerance="10"
     gridtolerance="10"
     guidetolerance="10"
     inkscape:pageopacity="0"
     inkscape:pageshadow="2"
     inkscape:window-width="1920"
     inkscape:window-height="1017"
     id="namedview43"
     showgrid="false"
     inkscape:zoom="0.921875"
     inkscape:cx="204.30376"
     inkscape:cy="174.19741"
     inkscape:window-x="-8"
     inkscape:window-y="-8"
     inkscape:window-maximized="1"
     inkscape:current-layer="Capa_1" /><g
     id="g3"
     transform="matrix(22.5,0,0,24,0,-12)"><g
       id="g5"><path
         style="fill:#030104"
         d="m 4,12.5 0,3 8,0 0,-3 0,-2 -8,0 0,2 z m 1,-1 6,0 0,1 -6,0 0,-1 z m 0,2 6,0 0,1 -6,0 0,-1 z"
         id="path7"
         inkscape:connector-curvature="0" /><polygon
         style="fill:#030104"
         points="12,3.5 12,0.5 4,0.5 4,3.5 4,5.5 12,5.5 "
         id="polygon9" /><path
         style="fill:#030104"
         d="m 14,3.5 -1,0 0,2 0,1 -10,0 0,-1 0,-2 -1,0 c -1,0 -2,1 -2,2 l 0,5 c 0,1 1,2 2,2 l 1,0 0,-2 0,-1 10,0 0,1 0,2 1,0 c 1,0 2,-1 2,-2 l 0,-5 c 0,-1 -1,-2 -2,-2 z"
         id="path11"
         inkscape:connector-curvature="0" /></g></g><g
     id="g13" /><g
     id="g15" /><g
     id="g17" /><g
     id="g19" /><g
     id="g21" /><g
     id="g23" /><g
     id="g25" /><g
     id="g27" /><g
     id="g29" /><g
     id="g31" /><g
     id="g33" /><g
     id="g35" /><g
     id="g37" /><g
     id="g39" /><g
     id="g41" /></svg>