<?xml version="1.0" encoding="UTF-8" standalone="no"?>
<!-- Generator: Adobe Illustrator 16.0.0, SVG Export Plug-In . SVG Version: 6.00 Build 0)  -->

<svg
   xmlns:dc="http://purl.org/dc/elements/1.1/"
   xmlns:cc="http://creativecommons.org/ns#"
   xmlns:rdf="http://www.w3.org/1999/02/22-rdf-syntax-ns#"
   xmlns:svg="http://www.w3.org/2000/svg"
   xmlns="http://www.w3.org/2000/svg"
   xmlns:sodipodi="http://sodipodi.sourceforge.net/DTD/sodipodi-0.dtd"
   xmlns:inkscape="http://www.inkscape.org/namespaces/inkscape"
   version="1.1"
   id="Capa_1"
   x="0px"
   y="0px"
   width="360"
   height="360"
   viewBox="0 0 360 360"
   xml:space="preserve"
   inkscape:version="0.91 r13725"
   sodipodi:docname="ShowReport.svg"><metadata
     id="metadata41"><rdf:RDF><cc:Work
         rdf:about=""><dc:format>image/svg+xml</dc:format><dc:type
           rdf:resource="http://purl.org/dc/dcmitype/StillImage" /><dc:title></dc:title></cc:Work></rdf:RDF></metadata><defs
     id="defs39" /><sodipodi:namedview
     pagecolor="#ffffff"
     bordercolor="#666666"
     borderopacity="1"
     objecttolerance="10"
     gridtolerance="10"
     guidetolerance="10"
     inkscape:pageopacity="0"
     inkscape:pageshadow="2"
     inkscape:window-width="1920"
     inkscape:window-height="1017"
     id="namedview37"
     showgrid="false"
     inkscape:zoom="0.46883164"
     inkscape:cx="251.6895"
     inkscape:cy="251.6895"
     inkscape:window-x="-8"
     inkscape:window-y="-8"
     inkscape:window-maximized="1"
     inkscape:current-layer="Capa_1" /><g
     id="g3"
     style="fill:#ececec"
     transform="matrix(0.7267389,0,0,0.7151669,-2.9125513,1.0449e-6)"><path
       d="m 458.091,128.116 0,326.842 c 0,26.698 -21.723,48.421 -48.422,48.421 l -220.92,0 c -26.699,0 -48.421,-21.723 -48.421,-48.421 l 0,-212.519 c 6.907,1.149 13.953,1.894 21.184,1.894 5.128,0 10.161,-0.381 15.132,-0.969 l 0,211.594 c 0,6.673 5.429,12.104 12.105,12.104 l 220.92,0 c 6.674,0 12.105,-5.432 12.105,-12.104 l 0,-326.842 c 0,-6.676 -5.432,-12.105 -12.105,-12.105 l -119.834,0 c 0,-12.625 -1.897,-24.793 -5.297,-36.315 l 125.131,0 c 26.699,-0.001 48.422,21.721 48.422,48.42 z M 159.49,228.401 C 96.517,228.401 45.288,177.172 45.288,114.202 45.289,51.229 96.517,0 159.49,0 c 62.971,0 114.202,51.229 114.202,114.202 0,62.97 -51.231,114.199 -114.202,114.199 z m 0,-24.211 c 49.618,0 89.989,-40.364 89.989,-89.988 0,-49.627 -40.365,-89.991 -89.989,-89.991 -49.626,0 -89.991,40.364 -89.991,89.991 0,49.624 40.371,89.988 89.991,89.988 z m 68.491,-77.882 c 6.682,0 12.105,-5.423 12.105,-12.105 0,-6.682 -5.423,-12.105 -12.105,-12.105 l -56.386,0 0,-47.52 c 0,-6.682 -5.423,-12.105 -12.105,-12.105 -6.682,0 -12.105,5.423 -12.105,12.105 l 0,59.625 c 0,6.682 5.423,12.105 12.105,12.105 l 68.491,0 z m 139.716,98.148 -131.14,0 c -6.682,0 -12.105,5.423 -12.105,12.105 0,6.683 5.423,12.105 12.105,12.105 l 131.14,0 c 6.685,0 12.105,-5.423 12.105,-12.105 10e-4,-6.682 -5.42,-12.105 -12.105,-12.105 z m 0.213,73.429 -131.14,0 c -6.682,0 -12.105,5.42 -12.105,12.105 0,6.685 5.423,12.105 12.105,12.105 l 131.14,0 c 6.685,0 12.104,-5.42 12.104,-12.105 0,-6.685 -5.413,-12.105 -12.104,-12.105 z m 0,76.468 -131.14,0 c -6.682,0 -12.105,5.426 -12.105,12.105 0,6.685 5.423,12.104 12.105,12.104 l 131.14,0 c 6.685,0 12.104,-5.42 12.104,-12.104 10e-4,-6.68 -5.413,-12.105 -12.104,-12.105 z"
       id="path5"
       style="fill:#ececec"
       inkscape:connector-curvature="0" /></g><g
     id="g7" /><g
     id="g9" /><g
     id="g11" /><g
     id="g13" /><g
     id="g15" /><g
     id="g17" /><g
     id="g19" /><g
     id="g21" /><g
     id="g23" /><g
     id="g25" /><g
     id="g27" /><g
     id="g29" /><g
     id="g31" /><g
     id="g33" /><g
     id="g35" /></svg>