<?xml version="1.0" encoding="UTF-8" standalone="no"?>
<!-- Generator: Adobe Illustrator 16.0.0, SVG Export Plug-In . SVG Version: 6.00 Build 0)  -->

<svg
   xmlns:dc="http://purl.org/dc/elements/1.1/"
   xmlns:cc="http://creativecommons.org/ns#"
   xmlns:rdf="http://www.w3.org/1999/02/22-rdf-syntax-ns#"
   xmlns:svg="http://www.w3.org/2000/svg"
   xmlns="http://www.w3.org/2000/svg"
   xmlns:sodipodi="http://sodipodi.sourceforge.net/DTD/sodipodi-0.dtd"
   xmlns:inkscape="http://www.inkscape.org/namespaces/inkscape"
   version="1.1"
   id="Capa_1"
   x="0px"
   y="0px"
   width="360"
   height="360"
   viewBox="0 0 360 360"
   xml:space="preserve"
   inkscape:version="0.91 r13725"
   sodipodi:docname="StartAnimation.svg"><metadata
     id="metadata47"><rdf:RDF><cc:Work
         rdf:about=""><dc:format>image/svg+xml</dc:format><dc:type
           rdf:resource="http://purl.org/dc/dcmitype/StillImage" /><dc:title></dc:title></cc:Work></rdf:RDF></metadata><defs
     id="defs45" /><sodipodi:namedview
     pagecolor="#ffffff"
     bordercolor="#666666"
     borderopacity="1"
     objecttolerance="10"
     gridtolerance="10"
     guidetolerance="10"
     inkscape:pageopacity="0"
     inkscape:pageshadow="2"
     inkscape:window-width="1920"
     inkscape:window-height="1017"
     id="namedview43"
     showgrid="false"
     inkscape:zoom="0.86915209"
     inkscape:cx="98.021924"
     inkscape:cy="-14.868823"
     inkscape:window-x="-8"
     inkscape:window-y="-8"
     inkscape:window-maximized="1"
     inkscape:current-layer="Capa_1" /><g
     id="g3"
     transform="matrix(7.5,0,0,7.8872647,0,-9.294354)"
     style="fill:#ececec"><g
       id="g5"
       style="fill:#ececec"><g
         id="g7"
         style="fill:#ececec"><path
           d="m 44,4.982 -40,0 c -2.2,0 -4,1.8 -4,4 l 0,30.036 c 0,2.2 1.8,4 4,4 l 40,0 c 2.2,0 4,-1.8 4,-4 L 48,8.982 c 0,-2.2 -1.8,-4 -4,-4 z m -23.796,7.807 9.593,6.55 -9.593,6.55 0,-13.1 z m 19.797,22.423 -21.126,0 c -0.57,1.239 -1.816,2.104 -3.27,2.104 -1.454,0 -2.699,-0.866 -3.27,-2.104 l -4.335,0 c -0.829,0 -1.5,-0.673 -1.5,-1.5 0,-0.828 0.671,-1.5 1.5,-1.5 l 4.336,0 c 0.57,-1.24 1.815,-2.106 3.27,-2.106 1.455,0 2.7,0.866 3.27,2.106 l 21.126,0 c 0.828,0 1.5,0.672 1.5,1.5 0,0.828 -0.673,1.5 -1.501,1.5 z"
           id="path9"
           inkscape:connector-curvature="0"
           style="fill:#ececec" /><circle
           cx="15.605"
           cy="33.712002"
           r="1.397"
           id="circle11"
           style="fill:#ececec" /></g></g></g><g
     id="g13" /><g
     id="g15" /><g
     id="g17" /><g
     id="g19" /><g
     id="g21" /><g
     id="g23" /><g
     id="g25" /><g
     id="g27" /><g
     id="g29" /><g
     id="g31" /><g
     id="g33" /><g
     id="g35" /><g
     id="g37" /><g
     id="g39" /><g
     id="g41" /></svg>