<?xml version="1.0" encoding="UTF-8" standalone="no"?>
<svg
    xmlns:osb="http://www.openswatchbook.org/uri/2009/osb"
    xmlns:dc="http://purl.org/dc/elements/1.1/"
    xmlns:cc="http://creativecommons.org/ns#"
    xmlns:rdf="http://www.w3.org/1999/02/22-rdf-syntax-ns#"
    xmlns:svg="http://www.w3.org/2000/svg"
    xmlns="http://www.w3.org/2000/svg"
    xmlns:sodipodi="http://sodipodi.sourceforge.net/DTD/sodipodi-0.dtd"
    xmlns:inkscape="http://www.inkscape.org/namespaces/inkscape"
    viewBox="0 0 360 360"
    width="360"
    height="360"
    id="svg2"
    version="1.1"
    inkscape:version="0.91 r13725"
    sodipodi:docname="Station.svg">
    <metadata
        id="metadata18">
        <rdf:RDF>
            <cc:Work
                rdf:about="">
                <dc:format>image/svg+xml</dc:format>
                <dc:type
                    rdf:resource="http://purl.org/dc/dcmitype/StillImage" />
                <dc:title></dc:title>
            </cc:Work>
        </rdf:RDF>
    </metadata>
    <sodipodi:namedview
        pagecolor="#ffffff"
        bordercolor="#666666"
        borderopacity="1"
        objecttolerance="10"
        gridtolerance="10"
        guidetolerance="10"
        inkscape:pageopacity="0"
        inkscape:pageshadow="2"
        inkscape:window-width="1440"
        inkscape:window-height="897"
        id="namedview14"
        showgrid="false"
        inkscape:zoom="0.74920636"
        inkscape:cx="220.23307"
        inkscape:cy="320.32068"
        inkscape:window-x="-8"
        inkscape:window-y="-8"
        inkscape:window-maximized="1"
        inkscape:current-layer="svg2" />
    <defs
        id="defs16">
        <linearGradient
            id="linearGradient4214"
            osb:paint="gradient">
            <stop
                style="stop-color:#0000ff;stop-opacity:1;"
                offset="0"
                id="stop4216" />
            <stop
                style="stop-color:#0000ff;stop-opacity:0;"
                offset="1"
                id="stop4218" />
        </linearGradient>
    </defs>
    <circle
        cx="180"
        cy="180"
        id="shape"
        style="opacity:1;fill:#0234d9;fill-opacity:1"
        r="180">
        <title
            id="stationBackground">backgroundCircle</title>
    </circle>
    <path
        sodipodi:nodetypes="ssssscccsssssssscccccssssssssssssssssssssssscsssssssssccsssssssss"
        inkscape:connector-curvature="0"
        id="path12"
        d="m 102.17251,306.4472 c -2.67015,-1.15477 -5.65633,-4.04335 -7.23247,-6.99608 -1.11737,-2.09327 -1.27865,-3.50544 -1.47619,-12.92518 -0.14897,-7.10405 -0.44348,-10.71683 -0.89724,-11.00679 -0.37152,-0.2374 -4.31848,-0.44063 -8.77102,-0.44063 -8.23383,0 -8.09554,-9.98989 -8.09554,-9.98989 l 0.17472,-45.098 0.17471,-55.07889 5.10633,-38.18804 c 2.80848,-21.00343 5.51005,-39.52952 6.00348,-41.1691 1.32222,-4.39346 5.07532,-9.79324 8.95399,-12.88254 3.97124,-3.16304 14.28522,-8.30766 21.04069,-10.49512 6.23482,-2.01887 17.54671,-4.7053 27.31914,-6.48797 26.5068,-4.83531 48.15575,-4.58759 76.15387,0.8714 32.01585,6.24237 47.9959,14.88396 52.48857,28.38451 0.81106,2.43722 2.86581,16.3809 6.19886,42.06627 l 4.98566,38.42062 0,54.81888 0,43.72898 c 0,0 -0.18107,11.10466 -7.78449,11.09889 -4.28146,0.005 -8.08799,0.20323 -8.459,0.44063 -0.44968,0.28773 -0.75495,3.85949 -0.91563,10.71303 -0.27936,11.91459 -0.85295,13.9644 -4.9053,17.53145 -7.79563,6.86199 -21.45889,3.63243 -24.26563,-5.73562 -0.38173,-1.2741 -0.6706,-6.30332 -0.6706,-11.67514 0,-7.79565 -0.16057,-9.59745 -0.92323,-10.36011 -0.82618,-0.82619 -6.71947,-0.92323 -56.06507,-0.92323 -49.34561,0 -55.2389,0.097 -56.06508,0.92323 -0.76499,0.76498 -0.92421,2.6027 -0.92897,10.72202 -0.005,9.06574 -0.10937,10.01856 -1.39101,12.73634 -1.65078,3.50056 -3.27526,5.09615 -6.82837,6.70698 -3.23757,1.46777 -9.85739,1.61584 -12.92518,0.2891 z m 11.21566,-65.67119 c 5.56109,-1.98783 9.43106,-7.50764 9.43106,-13.4517 0,-8.26646 -6.17266,-14.53066 -14.31835,-14.53066 -4.04851,0 -6.49552,0.91351 -9.49013,3.54281 -3.41999,3.00279 -4.7347,6.01589 -4.7347,10.85115 0,4.56728 1.21459,7.5941 4.17073,10.39363 3.78891,3.58819 10.07849,4.93303 14.94139,3.19477 z m 145.09904,-0.8101 c 10.61901,-5.38544 10.61901,-20.17117 0,-25.55661 -7.52412,-3.81587 -16.63983,-0.51571 -19.87956,7.19698 -1.31734,3.1361 -1.11572,8.80069 0.42663,11.98676 3.46203,7.15161 12.24432,10.02872 19.45293,6.37287 z m 1.17364,-64.19213 c 1.72371,-0.32689 3.72758,-1.15197 4.45303,-1.83349 1.4566,-1.36839 2.58168,-5.70212 2.1914,-8.44105 -0.13813,-0.96939 -2.0764,-14.89079 -4.30729,-30.93645 -4.17696,-30.04266 -4.62934,-32.12363 -7.55942,-34.77347 -3.02368,-2.73448 -1.58663,-2.68167 -73.72042,-2.70901 -48.8063,-0.0185 -68.78475,0.16232 -70.68069,0.63973 -3.4599,0.87121 -5.87728,3.35778 -6.96031,7.15954 -1.45437,5.10521 -9.21892,62.48442 -8.77536,64.84885 0.58906,3.13992 3.05513,5.57122 6.16035,6.07346 4.21175,0.68122 155.59937,0.65449 159.19871,-0.0281 z M 224.66799,84.14432 c 2.71157,-0.62826 4.21428,-2.21272 4.73598,-4.9936 0.46573,-2.48256 -1.02625,-5.77744 -3.02941,-6.69014 -1.0579,-0.48201 -14.05936,-0.66526 -46.53172,-0.65585 -41.81001,0.0121 -45.15409,0.0863 -46.31674,1.02814 -2.76618,2.24069 -3.31327,5.65685 -1.40669,8.7838 0.68763,1.12776 1.8154,2.0396 2.78847,2.25454 0.89863,0.1985 1.89825,0.4491 2.22138,0.55689 1.43851,0.47986 85.41787,0.20762 87.53873,-0.28378 z"
        style="fill:#ffffff" />
</svg>
