<?xml version="1.0" encoding="UTF-8" standalone="no"?>
<!-- Generator: Adobe Illustrator 18.1.1, SVG Export Plug-In . SVG Version: 6.00 Build 0)  -->

<svg
   xmlns:dc="http://purl.org/dc/elements/1.1/"
   xmlns:cc="http://creativecommons.org/ns#"
   xmlns:rdf="http://www.w3.org/1999/02/22-rdf-syntax-ns#"
   xmlns:svg="http://www.w3.org/2000/svg"
   xmlns="http://www.w3.org/2000/svg"
   xmlns:sodipodi="http://sodipodi.sourceforge.net/DTD/sodipodi-0.dtd"
   xmlns:inkscape="http://www.inkscape.org/namespaces/inkscape"
   version="1.1"
   id="Capa_1"
   x="0px"
   y="0px"
   viewBox="0 0 45.437 45.437"
   xml:space="preserve"
   inkscape:version="0.91 r13725"
   sodipodi:docname="Bus.svg"
   height="360"
   width="360"><metadata
     id="metadata71"><rdf:RDF><cc:Work
         rdf:about=""><dc:format>image/svg+xml</dc:format><dc:type
           rdf:resource="http://purl.org/dc/dcmitype/StillImage" /></cc:Work></rdf:RDF></metadata><defs
     id="defs69" /><sodipodi:namedview
     pagecolor="#ffffff"
     bordercolor="#666666"
     borderopacity="1"
     objecttolerance="10"
     gridtolerance="10"
     guidetolerance="10"
     inkscape:pageopacity="0"
     inkscape:pageshadow="2"
     inkscape:window-width="1920"
     inkscape:window-height="1017"
     id="namedview67"
     showgrid="false"
     inkscape:zoom="0.918179"
     inkscape:cx="258.46381"
     inkscape:cy="257.07114"
     inkscape:window-x="1912"
     inkscape:window-y="5"
     inkscape:window-maximized="1"
     inkscape:current-layer="Capa_1" /><g
     id="g3"
     style="fill:#f2f2f2"
     transform="matrix(1.0926296,0,0,0.99999223,-2.1044041,3.5504874e-4)"><path
       d="M 41.403,11.11 C 41.032,7.483 40.441,4.659 39.506,3.549 35.651,-1.015 8.647,-1.349 5.581,3.549 4.831,4.749 4.305,7.563 3.952,11.116 2.813,11.25 1.926,12.209 1.926,13.383 l 0,4.443 c 0,0.988 0.626,1.821 1.5,2.146 -0.207,6.998 -0.039,14.299 0.271,17.93 0,2.803 1.883,2.338 1.883,2.338 l 1.765,0 0,3.026 c 0,1.2 1.237,2.171 2.761,2.171 1.526,0 2.763,-0.971 2.763,-2.171 l 0,-3.026 20.534,0 0,3.026 c 0,1.2 1.236,2.171 2.762,2.171 1.524,0 2.761,-0.971 2.761,-2.171 l 0,-3.026 0.58,0 c 0,0 2.216,0.304 2.358,-1.016 0,-3.621 0.228,-11.646 0.04,-19.221 0.929,-0.291 1.607,-1.147 1.607,-2.177 l 0,-4.443 C 43.512,12.181 42.582,11.206 41.403,11.11 Z M 12.176,4.2 l 20.735,0 0,3.137 -20.735,0 0,-3.137 z m 0.296,32.467 c -1.628,0 -2.947,-1.32 -2.947,-2.948 0,-1.627 1.319,-2.946 2.947,-2.946 1.628,0 2.948,1.319 2.948,2.946 0,1.628 -1.319,2.948 -2.948,2.948 z m 20.328,0 c -1.627,0 -2.949,-1.32 -2.949,-2.948 0,-1.627 1.321,-2.946 2.949,-2.946 1.628,0 2.947,1.319 2.947,2.946 10e-4,1.628 -1.319,2.948 -2.947,2.948 z m 3.747,-12.9 -28.007,0 0,-14.69 28.007,0 0,14.69 z"
       id="path5"
       style="fill:#f2f2f2"
       inkscape:connector-curvature="0" /><g
       id="g7"
       style="fill:#f2f2f2" /><g
       id="g9"
       style="fill:#f2f2f2" /><g
       id="g11"
       style="fill:#f2f2f2" /><g
       id="g13"
       style="fill:#f2f2f2" /><g
       id="g15"
       style="fill:#f2f2f2" /><g
       id="g17"
       style="fill:#f2f2f2" /><g
       id="g19"
       style="fill:#f2f2f2" /><g
       id="g21"
       style="fill:#f2f2f2" /><g
       id="g23"
       style="fill:#f2f2f2" /><g
       id="g25"
       style="fill:#f2f2f2" /><g
       id="g27"
       style="fill:#f2f2f2" /><g
       id="g29"
       style="fill:#f2f2f2" /><g
       id="g31"
       style="fill:#f2f2f2" /><g
       id="g33"
       style="fill:#f2f2f2" /><g
       id="g35"
       style="fill:#f2f2f2" /></g><g
     id="g37" /><g
     id="g39" /><g
     id="g41" /><g
     id="g43" /><g
     id="g45" /><g
     id="g47" /><g
     id="g49" /><g
     id="g51" /><g
     id="g53" /><g
     id="g55" /><g
     id="g57" /><g
     id="g59" /><g
     id="g61" /><g
     id="g63" /><g
     id="g65" /></svg>