<?xml version="1.0" encoding="UTF-8" standalone="no"?>
<!-- Generator: Adobe Illustrator 18.0.0, SVG Export Plug-In . SVG Version: 6.00 Build 0)  -->

<svg
   xmlns:dc="http://purl.org/dc/elements/1.1/"
   xmlns:cc="http://creativecommons.org/ns#"
   xmlns:rdf="http://www.w3.org/1999/02/22-rdf-syntax-ns#"
   xmlns:svg="http://www.w3.org/2000/svg"
   xmlns="http://www.w3.org/2000/svg"
   xmlns:sodipodi="http://sodipodi.sourceforge.net/DTD/sodipodi-0.dtd"
   xmlns:inkscape="http://www.inkscape.org/namespaces/inkscape"
   version="1.1"
   id="Capa_1"
   x="0px"
   y="0px"
   viewBox="0 0 360 360"
   xml:space="preserve"
   inkscape:version="0.91 r13725"
   sodipodi:docname="Turtle.svg"
   width="360"
   height="360"><metadata
     id="metadata39"><rdf:RDF><cc:Work
         rdf:about=""><dc:format>image/svg+xml</dc:format><dc:type
           rdf:resource="http://purl.org/dc/dcmitype/StillImage" /><dc:title></dc:title></cc:Work></rdf:RDF></metadata><defs
     id="defs37" /><sodipodi:namedview
     pagecolor="#ffffff"
     bordercolor="#666666"
     borderopacity="1"
     objecttolerance="10"
     gridtolerance="10"
     guidetolerance="10"
     inkscape:pageopacity="0"
     inkscape:pageshadow="2"
     inkscape:window-width="1440"
     inkscape:window-height="897"
     id="namedview35"
     showgrid="false"
     inkscape:zoom="0.77085137"
     inkscape:cx="153.0775"
     inkscape:cy="153.0775"
     inkscape:window-x="1912"
     inkscape:window-y="199"
     inkscape:window-maximized="1"
     inkscape:current-layer="Capa_1" /><path
     d="m 329.22874,60.041393 c -35.95684,2.255111 -24.54623,57.898487 -56.77792,62.100477 0.0929,-3.28988 0.14699,-6.60493 0.14699,-9.97973 0,-2.67185 -1.5933,-4.8562 -3.5958,-4.90495 -12.32192,-0.33653 -30.73716,-4.27747 -50.2401,-8.435434 -22.95174,-4.887647 -46.68897,-9.951425 -63.92717,-9.951425 -4.92924,0 -9.01891,0.401014 -12.503,1.242356 -32.8796,7.850428 -58.074902,49.717813 -82.434161,90.193433 -19.533503,32.43964 -37.973449,63.0865 -56.9883939,68.50254 -1.7449866,0.51424 -2.97141587,2.61524 -2.90674318,5.00717 0.06349682,2.38092 1.41104038,4.35139 3.18307188,4.67534 7.0093432,1.27067 13.5718562,2.49415 19.7686762,3.68304 l -19.2771638,37.82264 32.8290308,0 11.6987,-32.85479 c 8.528563,1.72199 16.217558,3.33548 23.183393,4.77284 6.120388,1.28639 11.677536,2.4454 16.827832,3.47231 l -7.870077,24.60807 33.059505,0 0,-20.08527 c 8.78607,1.2628 16.78667,1.92329 25.327,1.92329 4.25899,0 8.55208,-0.16827 13.14619,-0.50952 7.21511,-0.52682 15.45206,-1.71728 24.14878,-3.98183 l 0,22.65648 29.22852,0 -4.42125,-32.07794 c 10.56163,-5.43805 21.07741,-12.92207 30.68189,-23.19116 3.71222,-3.98025 7.16221,-8.27503 10.37468,-12.82771 C 258.66378,260.17071 257.90417,300 257.90417,300 l 34.1025,0 c -0.74432,-34.462 -23.13871,-73.73144 -35.97683,-93.50062 5.30434,-12.33392 9.34344,-26.06745 12.0985,-41.16443 27.00025,-12.29145 53.34908,-47.86528 64.92902,-53.16967 C 345.23934,106.57783 360,110.66974 360,90.760599 359.998,66.567691 340.00673,59.377755 329.22874,60.041393 Z"
     id="path3"
     style="fill:#f2f2f2"
     inkscape:connector-curvature="0" /><g
     id="g5" /><g
     id="g7" /><g
     id="g9" /><g
     id="g11" /><g
     id="g13" /><g
     id="g15" /><g
     id="g17" /><g
     id="g19" /><g
     id="g21" /><g
     id="g23" /><g
     id="g25" /><g
     id="g27" /><g
     id="g29" /><g
     id="g31" /><g
     id="g33" /></svg>